{"glyphs":{"0":{"ha":794,"x_min":68,"x_max":726,"o":"m 396 -14 l 396 -14 q 148 122 228 -14 q 68 497 68 257 l 68 497 q 101 772 68 658 q 206 947 133 886 q 396 1007 278 1007 l 396 1007 q 644 873 563 1007 q 726 497 726 739 l 726 497 q 693 223 726 338 q 588 47 660 108 q 396 -14 515 -14 z m 396 90 l 396 90 q 555 191 507 90 q 603 497 603 292 l 603 497 q 555 801 603 700 q 396 903 507 903 l 396 903 q 237 801 283 903 q 190 497 190 700 l 190 497 q 237 192 190 293 q 396 90 283 90 z "},"1":{"ha":794,"x_min":124,"x_max":493,"o":"m 493 0 l 374 0 l 374 693 q 375 789 374 753 q 379 864 376 825 l 379 864 q 339 827 357 843 q 293 788 321 811 l 293 788 l 188 701 l 124 783 l 392 992 l 493 992 l 493 0 z "},"2":{"ha":794,"x_min":67,"x_max":722,"o":"m 722 0 l 67 0 l 67 101 l 326 364 q 453 497 401 439 q 531 612 504 556 q 557 735 557 668 l 557 735 q 508 859 557 817 q 382 901 460 901 l 382 901 q 255 876 310 901 q 143 807 200 851 l 143 807 l 78 889 q 212 972 136 938 q 382 1006 288 1006 l 382 1006 q 601 935 521 1006 q 682 742 682 865 l 682 742 q 650 597 682 664 q 561 463 618 529 q 428 321 504 396 l 428 321 l 221 117 l 221 111 l 722 111 l 722 0 z "},"3":{"ha":794,"x_min":63,"x_max":715,"o":"m 335 -14 l 335 -14 q 190 -2 257 -14 q 63 40 124 10 l 63 40 l 63 154 q 197 106 125 124 q 336 89 269 89 l 336 89 q 528 141 469 89 q 588 285 588 193 l 588 285 q 515 419 588 378 q 310 460 442 460 l 310 460 l 214 460 l 214 564 l 311 564 q 497 615 433 564 q 560 751 560 667 l 560 751 q 511 863 560 824 q 379 903 463 903 l 379 903 q 242 879 299 903 q 129 819 185 856 l 129 819 l 68 903 q 199 975 121 944 q 378 1006 278 1006 l 378 1006 q 609 936 533 1006 q 685 760 685 867 l 685 760 q 629 601 685 660 q 479 522 574 542 l 479 522 l 479 517 q 657 442 599 503 q 715 282 715 381 l 715 282 q 675 128 715 196 q 551 24 635 61 q 335 -14 467 -14 z "},"4":{"ha":794,"x_min":29,"x_max":767,"o":"m 622 0 l 504 0 l 504 225 l 29 225 l 29 329 l 496 997 l 622 997 l 622 335 l 767 335 l 767 225 l 622 225 l 622 0 z m 446 758 l 149 335 l 504 335 l 504 647 q 506 770 504 719 q 511 867 508 821 l 511 867 l 506 867 q 478 810 494 840 q 446 758 461 779 l 446 758 z "},"5":{"ha":794,"x_min":88,"x_max":715,"o":"m 344 -14 l 344 -14 q 201 0 268 -14 q 88 40 133 14 l 88 40 l 88 156 q 209 108 138 125 q 346 90 281 90 l 346 90 q 523 142 456 90 q 590 304 590 194 l 590 304 q 531 453 590 401 q 342 506 471 506 l 342 506 q 253 499 303 506 q 172 485 203 492 l 172 485 l 111 524 l 149 992 l 646 992 l 646 881 l 253 881 l 229 593 q 293 603 253 597 q 382 608 333 608 l 382 608 q 625 532 535 608 q 715 317 715 456 l 715 317 q 617 74 715 163 q 344 -14 519 -14 z "},"6":{"ha":794,"x_min":76,"x_max":729,"o":"m 414 -14 l 414 -14 q 243 33 319 -14 q 122 178 167 81 q 76 424 76 275 l 76 424 q 95 634 76 531 q 163 822 114 738 q 301 956 213 906 q 531 1006 390 1006 l 531 1006 q 595 1003 560 1006 q 653 993 631 1000 l 653 993 l 653 889 q 597 901 628 897 q 533 906 565 906 l 533 906 q 374 874 438 906 q 273 786 310 842 q 219 658 236 731 q 199 504 203 586 l 199 504 l 207 504 q 296 587 239 553 q 442 621 353 621 l 442 621 q 650 542 571 621 q 729 319 729 464 l 729 319 q 644 75 729 164 q 414 -14 558 -14 z m 413 89 l 413 89 q 554 145 500 89 q 608 319 608 201 l 608 319 q 560 469 608 414 q 417 525 513 525 l 417 525 q 303 498 351 525 q 227 429 254 471 q 200 343 200 388 l 200 343 q 224 224 200 283 q 294 127 247 165 q 413 89 342 89 z "},"7":{"ha":794,"x_min":61,"x_max":726,"o":"m 324 0 l 189 0 l 596 881 l 61 881 l 61 992 l 726 992 l 726 897 l 324 0 z "},"8":{"ha":794,"x_min":68,"x_max":725,"o":"m 400 -14 l 400 -14 q 154 56 240 -14 q 68 253 68 126 l 68 253 q 97 371 68 321 q 172 457 125 421 q 274 518 219 493 l 274 518 q 151 619 201 560 q 100 769 100 678 l 100 769 q 139 898 100 846 q 244 978 178 950 q 396 1006 311 1006 l 396 1006 q 610 944 526 1006 q 693 768 693 883 l 693 768 q 667 664 693 708 q 599 585 642 619 q 504 525 556 551 l 504 525 q 615 459 565 496 q 695 374 665 422 q 725 257 725 325 l 725 257 q 637 59 725 132 q 400 -14 549 -14 z m 401 572 l 401 572 q 523 646 474 603 q 572 764 572 689 l 572 764 q 524 870 572 833 q 394 907 475 907 l 394 907 q 269 870 318 907 q 219 764 219 833 l 219 764 q 244 678 219 713 q 310 619 268 643 q 401 572 351 594 z m 397 83 l 397 83 q 552 131 499 83 q 606 256 606 179 l 606 256 q 549 376 606 328 q 397 460 492 424 l 397 460 l 375 468 q 235 378 283 429 q 188 251 188 328 l 188 251 q 239 131 188 179 q 397 83 290 83 z "},"9":{"ha":794,"x_min":69,"x_max":722,"o":"m 267 -14 l 267 -14 q 202 -10 239 -14 q 142 0 165 -7 l 142 0 l 142 104 q 264 86 196 86 l 264 86 q 424 118 361 86 q 525 205 488 150 q 579 333 563 260 q 599 486 596 406 l 599 486 l 590 486 q 502 405 560 439 q 354 371 444 371 l 354 371 q 148 449 226 371 q 69 671 69 528 l 69 671 q 109 850 69 775 q 219 965 149 925 q 386 1006 290 1006 l 386 1006 q 557 958 481 1006 q 678 813 633 910 q 722 568 722 717 l 722 568 q 703 358 722 461 q 635 170 685 254 q 497 36 586 86 q 267 -14 407 -14 z m 381 467 l 381 467 q 496 494 447 467 q 572 563 544 521 q 599 649 599 604 l 599 649 q 575 767 599 708 q 504 864 551 825 q 386 903 457 903 l 386 903 q 245 846 300 903 q 190 672 190 789 l 190 672 q 237 522 190 576 q 381 467 283 467 z "},"\u0000":{"ha":0,"x_min":null,"x_max":null,"o":""},"\r":{"ha":361,"x_min":null,"x_max":null,"o":""}," ":{"ha":361,"x_min":null,"x_max":null,"o":""},"A":{"ha":888,"x_min":0,"x_max":886,"o":"m 126 0 l 0 0 l 388 996 l 500 996 l 886 0 l 757 0 l 638 307 l 244 307 l 126 0 z m 399 718 l 286 418 l 600 418 l 489 718 q 475 758 485 729 q 456 819 465 788 q 442 867 447 850 l 442 867 q 419 783 432 824 q 399 718 407 742 l 399 718 z "},"B":{"ha":903,"x_min":135,"x_max":828,"o":"m 483 0 l 135 0 l 135 992 l 418 992 q 699 937 604 992 q 794 746 794 882 l 794 746 q 746 601 794 658 q 606 526 697 543 l 606 526 l 606 519 q 719 483 668 510 q 799 408 769 457 q 828 282 828 360 l 828 282 q 735 74 828 147 q 483 0 643 0 l 483 0 z m 260 885 l 260 569 l 443 569 q 618 610 571 569 q 665 732 665 651 l 665 732 q 608 849 665 814 q 424 885 550 885 l 424 885 l 260 885 z m 260 465 l 260 106 l 460 106 q 643 157 592 106 q 694 292 694 208 l 694 292 q 641 417 694 369 q 450 465 588 465 l 450 465 l 260 465 z "},"C":{"ha":878,"x_min":85,"x_max":835,"o":"m 540 -14 l 540 -14 q 288 49 389 -14 q 135 226 186 111 q 85 497 85 342 l 85 497 q 140 762 85 647 q 301 941 194 876 q 561 1006 408 1006 l 561 1006 q 835 947 718 1006 l 835 947 l 785 842 q 683 879 739 863 q 560 896 626 896 l 560 896 q 308 789 400 896 q 217 496 217 682 l 217 496 q 302 203 217 311 q 558 96 388 96 l 558 96 q 682 107 624 96 q 796 135 740 118 l 796 135 l 796 26 q 681 -4 740 6 q 540 -14 622 -14 z "},"D":{"ha":1014,"x_min":135,"x_max":929,"o":"m 411 0 l 135 0 l 135 992 l 440 992 q 700 936 590 992 q 869 773 810 881 q 929 506 929 665 l 929 506 q 792 127 929 254 q 411 0 656 0 l 411 0 z m 260 885 l 260 107 l 394 107 q 797 501 797 107 l 797 501 q 699 792 797 700 q 422 885 601 885 l 422 885 l 260 885 z "},"E":{"ha":772,"x_min":135,"x_max":689,"o":"m 689 0 l 135 0 l 135 992 l 689 992 l 689 882 l 260 882 l 260 572 l 664 572 l 664 464 l 260 464 l 260 110 l 689 110 l 689 0 z "},"F":{"ha":721,"x_min":135,"x_max":689,"o":"m 260 0 l 135 0 l 135 992 l 689 992 l 689 882 l 260 882 l 260 531 l 663 531 l 663 421 l 260 421 l 260 0 z "},"G":{"ha":1011,"x_min":85,"x_max":908,"o":"m 560 -14 l 560 -14 q 300 48 406 -14 q 140 224 194 110 q 85 496 85 339 l 85 496 q 146 765 85 651 q 322 942 207 879 q 599 1006 436 1006 l 599 1006 q 756 990 682 1006 q 894 947 831 975 l 894 947 l 847 839 q 728 879 794 863 q 592 896 663 896 l 592 896 q 315 789 414 896 q 215 496 215 682 l 215 496 q 253 287 215 378 q 374 145 292 196 q 589 94 456 94 l 589 94 q 700 101 654 94 q 783 118 746 108 l 783 118 l 783 413 l 565 413 l 565 524 l 908 524 l 908 38 q 746 -1 828 11 q 560 -14 664 -14 z "},"H":{"ha":1029,"x_min":135,"x_max":893,"o":"m 260 0 l 135 0 l 135 992 l 260 992 l 260 572 l 768 572 l 768 992 l 893 992 l 893 0 l 768 0 l 768 463 l 260 463 l 260 0 z "},"I":{"ha":471,"x_min":56,"x_max":414,"o":"m 414 0 l 56 0 l 56 72 l 172 99 l 172 892 l 56 919 l 56 992 l 414 992 l 414 919 l 297 892 l 297 99 l 414 72 l 414 0 z "},"J":{"ha":515,"x_min":28,"x_max":389,"o":"m 131 -264 l 131 -264 q 72 -259 97 -264 q 28 -246 47 -254 l 28 -246 l 28 -140 q 75 -150 50 -146 q 128 -154 100 -154 l 128 -154 q 194 -140 163 -154 q 244 -92 225 -126 q 264 6 264 -57 l 264 6 l 264 992 l 389 992 l 389 15 q 318 -196 389 -128 q 131 -264 247 -264 z "},"K":{"ha":860,"x_min":135,"x_max":860,"o":"m 260 0 l 135 0 l 135 992 l 260 992 l 260 503 q 345 597 303 550 q 431 692 388 644 l 431 692 l 699 992 l 844 992 l 451 560 l 860 0 l 713 0 l 361 474 l 260 385 l 260 0 z "},"L":{"ha":728,"x_min":135,"x_max":693,"o":"m 693 0 l 135 0 l 135 992 l 260 992 l 260 111 l 693 111 l 693 0 z "},"M":{"ha":1260,"x_min":135,"x_max":1125,"o":"m 250 0 l 135 0 l 135 992 l 319 992 l 625 179 l 631 179 l 942 992 l 1125 992 l 1125 0 l 1001 0 l 1001 610 q 1005 753 1001 682 q 1011 868 1008 824 l 1011 868 l 1006 868 l 675 0 l 572 0 l 246 869 l 240 869 q 247 753 244 826 q 250 601 250 681 l 250 601 l 250 0 z "},"N":{"ha":1056,"x_min":135,"x_max":921,"o":"m 250 0 l 135 0 l 135 992 l 279 992 l 808 171 l 814 171 q 810 238 813 193 q 806 335 808 282 q 804 432 804 388 l 804 432 l 804 992 l 921 992 l 921 0 l 775 0 l 244 824 l 239 824 q 247 703 243 775 q 250 554 250 631 l 250 554 l 250 0 z "},"O":{"ha":1085,"x_min":85,"x_max":1000,"o":"m 543 -14 l 543 -14 q 287 50 389 -14 q 135 229 185 114 q 85 499 85 344 l 85 499 q 135 765 85 651 q 287 943 185 879 q 544 1007 389 1007 l 544 1007 q 794 944 693 1007 q 948 766 896 881 q 1000 497 1000 651 l 1000 497 q 948 228 1000 343 q 794 50 896 114 q 543 -14 693 -14 z m 543 94 l 543 94 q 790 202 713 94 q 868 497 868 310 l 868 497 q 790 791 868 685 q 544 897 713 897 l 544 897 q 297 791 376 897 q 217 497 217 685 l 217 497 q 296 202 217 310 q 543 94 375 94 z "},"P":{"ha":840,"x_min":135,"x_max":769,"o":"m 260 0 l 135 0 l 135 992 l 397 992 q 681 915 592 992 q 769 700 769 839 l 769 700 q 733 547 769 618 q 609 431 696 475 q 374 386 522 386 l 374 386 l 260 386 l 260 0 z m 260 885 l 260 493 l 360 493 q 571 539 501 493 q 640 694 640 585 l 640 694 q 579 838 640 790 q 386 885 518 885 l 386 885 l 260 885 z "},"Q":{"ha":1085,"x_min":85,"x_max":1000,"o":"m 949 -236 l 769 -236 l 578 -12 q 558 -14 564 -14 q 543 -14 551 -14 l 543 -14 q 287 50 389 -14 q 135 229 185 114 q 85 499 85 344 l 85 499 q 135 765 85 651 q 287 943 185 879 q 544 1007 389 1007 l 544 1007 q 794 944 693 1007 q 948 766 896 881 q 1000 497 1000 651 l 1000 497 q 927 188 1000 315 q 711 11 854 60 l 711 11 l 949 -236 z m 543 94 l 543 94 q 790 202 713 94 q 868 497 868 310 l 868 497 q 790 791 868 685 q 544 897 713 897 l 544 897 q 297 791 376 897 q 217 497 217 685 l 217 497 q 296 202 217 310 q 543 94 375 94 z "},"R":{"ha":864,"x_min":135,"x_max":843,"o":"m 260 0 l 135 0 l 135 992 l 408 992 q 681 922 593 992 q 769 710 769 851 l 769 710 q 740 578 769 631 q 666 494 711 525 q 571 444 621 463 l 571 444 l 843 0 l 697 0 l 457 410 l 260 410 l 260 0 z m 260 883 l 260 515 l 408 515 q 585 563 529 515 q 640 704 640 611 l 640 704 q 582 842 640 801 q 401 883 524 883 l 401 883 l 260 883 z "},"S":{"ha":763,"x_min":71,"x_max":697,"o":"m 343 -14 l 343 -14 q 189 -1 260 -14 q 71 33 118 11 l 71 33 l 71 153 q 195 113 121 131 q 349 94 269 94 l 349 94 q 516 138 460 94 q 572 254 572 181 l 572 254 q 551 336 572 303 q 480 398 531 369 q 339 458 429 426 l 339 458 q 148 571 213 504 q 83 753 83 638 l 83 753 q 124 888 83 832 q 235 975 164 944 q 400 1006 307 1006 l 400 1006 q 550 990 482 1006 q 674 950 618 975 l 674 950 l 635 843 q 523 881 583 865 q 397 896 463 896 l 397 896 q 257 856 304 896 q 210 751 210 817 l 210 751 q 231 668 210 701 q 299 608 251 635 q 426 551 346 582 l 426 551 q 574 483 514 519 q 666 394 635 446 q 697 265 697 343 l 697 265 q 601 60 697 133 q 343 -14 506 -14 z "},"T":{"ha":772,"x_min":14,"x_max":757,"o":"m 449 0 l 324 0 l 324 882 l 14 882 l 14 992 l 757 992 l 757 882 l 449 882 l 449 0 z "},"U":{"ha":1015,"x_min":125,"x_max":889,"o":"m 503 -14 l 503 -14 q 222 87 318 -14 q 125 353 125 188 l 125 353 l 125 992 l 250 992 l 250 349 q 315 161 250 228 q 510 94 379 94 l 510 94 q 705 166 644 94 q 765 350 765 238 l 765 350 l 765 992 l 889 992 l 889 350 q 847 165 889 247 q 720 34 806 82 q 503 -14 635 -14 z "},"V":{"ha":833,"x_min":0,"x_max":833,"o":"m 479 0 l 354 0 l 0 992 l 131 992 l 354 356 q 392 241 376 294 q 417 139 407 188 l 417 139 q 442 242 426 188 q 479 358 457 296 l 479 358 l 701 992 l 833 992 l 479 0 z "},"W":{"ha":1292,"x_min":17,"x_max":1274,"o":"m 406 0 l 279 0 l 17 992 l 147 992 l 301 386 q 330 263 318 322 q 349 150 342 203 l 349 150 q 369 268 356 204 q 401 393 383 332 l 401 393 l 576 992 l 706 992 l 888 389 q 921 262 907 325 q 942 150 935 199 l 942 150 q 961 262 949 201 q 990 388 974 322 l 990 388 l 1143 992 l 1274 992 l 1010 0 l 883 0 l 690 650 q 668 731 679 690 q 650 802 657 771 q 640 846 643 833 l 640 846 q 626 769 639 828 q 593 646 613 710 l 593 646 l 406 0 z "},"X":{"ha":814,"x_min":6,"x_max":808,"o":"m 138 0 l 6 0 l 335 517 l 26 992 l 165 992 l 408 603 l 653 992 l 785 992 l 478 519 l 808 0 l 667 0 l 404 431 l 138 0 z "},"Y":{"ha":786,"x_min":0,"x_max":786,"o":"m 456 0 l 331 0 l 331 379 l 0 992 l 136 992 l 393 504 l 651 992 l 786 992 l 456 385 l 456 0 z "},"Z":{"ha":794,"x_min":53,"x_max":740,"o":"m 740 0 l 53 0 l 53 94 l 575 881 l 69 881 l 69 992 l 726 992 l 726 897 l 204 111 l 740 111 l 740 0 z "},"a":{"ha":779,"x_min":64,"x_max":667,"o":"m 299 -14 l 299 -14 q 131 40 197 -14 q 64 207 64 93 l 64 207 q 151 378 64 318 q 421 444 239 439 l 421 444 l 547 449 l 547 493 q 507 622 547 586 q 393 658 467 658 l 393 658 q 282 641 335 658 q 183 601 229 624 l 183 601 l 146 693 q 261 738 194 719 q 400 757 328 757 l 400 757 q 601 697 536 757 q 667 507 667 638 l 667 507 l 667 0 l 578 0 l 554 106 l 549 106 q 447 15 500 44 q 299 -14 393 -14 z m 326 85 l 326 85 q 483 137 421 85 q 546 297 546 189 l 546 297 l 546 364 l 436 360 q 244 315 297 354 q 190 206 190 276 l 190 206 q 228 114 190 143 q 326 85 267 85 z "},"b":{"ha":853,"x_min":118,"x_max":778,"o":"m 471 -14 l 471 -14 q 328 18 383 -14 q 240 94 272 50 l 240 94 l 231 94 l 206 0 l 118 0 l 118 1056 l 240 1056 l 240 799 q 238 710 240 751 q 233 646 236 669 l 233 646 l 240 646 q 328 725 272 693 q 471 757 383 757 l 471 757 q 694 660 610 757 q 778 372 778 564 l 778 372 q 693 83 778 181 q 471 -14 608 -14 z m 453 88 l 453 88 q 602 161 553 88 q 651 374 651 235 l 651 374 q 450 656 651 656 l 450 656 q 286 588 332 656 q 240 376 240 519 l 240 376 l 240 371 q 285 160 240 233 q 453 88 331 88 z "},"c":{"ha":667,"x_min":76,"x_max":621,"o":"m 417 -14 l 417 -14 q 241 26 318 -14 q 120 151 164 67 q 76 368 76 236 l 76 368 q 122 592 76 506 q 247 718 168 678 q 425 758 325 758 l 425 758 q 535 747 482 758 q 621 718 588 735 l 621 718 l 583 617 q 506 640 550 629 q 422 651 461 651 l 422 651 q 203 369 203 651 l 203 369 q 256 163 203 235 q 415 92 310 92 l 415 92 q 523 104 476 92 q 608 135 569 117 l 608 135 l 608 26 q 526 -3 571 7 q 417 -14 481 -14 z "},"d":{"ha":854,"x_min":76,"x_max":736,"o":"m 382 -14 l 382 -14 q 160 83 243 -14 q 76 371 76 179 l 76 371 q 160 660 76 563 q 383 758 244 758 l 383 758 q 524 726 469 758 q 614 649 579 694 l 614 649 l 622 649 q 617 702 621 667 q 614 758 614 738 l 614 758 l 614 1056 l 736 1056 l 736 0 l 638 0 l 619 100 l 614 100 q 525 19 581 53 q 382 -14 469 -14 z m 401 88 l 401 88 q 567 152 519 88 q 615 347 615 217 l 615 347 l 615 369 q 569 583 615 508 q 400 657 524 657 l 400 657 q 252 578 301 657 q 203 368 203 500 l 203 368 q 252 161 203 235 q 401 88 301 88 z "},"e":{"ha":783,"x_min":76,"x_max":713,"o":"m 435 -14 l 435 -14 q 248 29 329 -14 q 122 158 167 72 q 76 367 76 243 l 76 367 q 117 576 76 489 q 233 711 158 664 q 406 758 307 758 l 406 758 q 570 717 501 758 q 676 599 639 675 q 713 422 713 524 l 713 422 l 713 349 l 203 349 q 267 156 206 222 q 440 90 329 90 l 440 90 q 566 103 511 90 q 679 142 621 117 l 679 142 l 679 35 q 567 -2 622 10 q 435 -14 511 -14 z m 206 446 l 206 446 l 585 446 q 541 599 585 540 q 404 658 497 658 l 404 658 q 266 602 317 658 q 206 446 215 546 z "},"f":{"ha":478,"x_min":21,"x_max":538,"o":"m 274 0 l 151 0 l 151 650 l 21 650 l 21 707 l 151 749 l 151 792 q 215 999 151 936 q 393 1063 279 1063 l 393 1063 q 474 1055 438 1063 q 538 1038 511 1047 l 538 1038 l 506 942 q 454 956 483 949 q 394 963 425 963 l 394 963 q 303 922 333 963 q 274 793 274 881 l 274 793 l 274 744 l 461 744 l 461 650 l 274 650 l 274 0 z "},"g":{"ha":854,"x_min":76,"x_max":736,"o":"m 403 -333 l 403 -333 q 135 -286 239 -333 l 135 -286 l 135 -174 q 410 -232 244 -232 l 410 -232 q 560 -176 506 -232 q 615 -22 615 -119 l 615 -22 l 615 7 q 617 55 615 24 q 619 99 618 86 l 619 99 l 614 99 q 383 -14 539 -14 l 383 -14 q 158 88 239 -14 q 76 371 76 189 l 76 371 q 158 653 76 549 q 382 758 239 758 l 382 758 q 515 731 456 758 q 615 646 574 703 l 615 646 l 622 646 l 639 744 l 736 744 l 736 -12 q 655 -253 736 -172 q 403 -333 574 -333 z m 401 86 l 401 86 q 565 147 514 86 q 617 342 617 207 l 617 342 l 617 371 q 564 590 617 524 q 399 656 511 656 l 399 656 q 254 581 306 656 q 203 369 203 507 l 203 369 q 253 159 203 232 q 401 86 304 86 z "},"h":{"ha":858,"x_min":118,"x_max":746,"o":"m 240 0 l 118 0 l 118 1056 l 240 1056 l 240 746 q 233 642 240 690 l 233 642 l 242 642 q 340 728 278 699 q 474 757 401 757 l 474 757 q 678 692 610 757 q 746 485 746 628 l 746 485 l 746 0 l 625 0 l 625 476 q 458 656 625 656 l 458 656 q 287 585 333 656 q 240 385 240 515 l 240 385 l 240 0 z "},"i":{"ha":358,"x_min":108,"x_max":251,"o":"m 240 0 l 118 0 l 118 744 l 240 744 l 240 0 z m 181 868 l 181 868 q 129 888 150 868 q 108 946 108 907 l 108 946 q 129 1005 108 986 q 181 1024 150 1024 l 181 1024 q 230 1005 208 1024 q 251 946 251 986 l 251 946 q 230 888 251 907 q 181 868 208 868 z "},"ı":{"ha":358,"x_min":118,"x_max":240,"o":"m 240 0 l 118 0 l 118 744 l 240 744 l 240 0 z "},"j":{"ha":463,"x_min":28,"x_max":356,"o":"m 135 -333 l 135 -333 q 74 -328 100 -333 q 28 -317 47 -324 l 28 -317 l 28 -218 q 71 -228 49 -224 q 119 -232 93 -232 l 119 -232 q 193 -208 164 -232 q 222 -115 222 -183 l 222 -115 l 222 744 l 344 744 l 344 -111 q 294 -274 344 -215 q 135 -333 244 -333 z m 285 868 l 285 868 q 233 888 254 868 q 213 946 213 907 l 213 946 q 233 1005 213 986 q 285 1024 254 1024 l 285 1024 q 334 1005 313 1024 q 356 946 356 986 l 356 946 q 334 888 356 907 q 285 868 313 868 z "},"ȷ":{"ha":463,"x_min":28,"x_max":344,"o":"m 135 -333 l 135 -333 q 74 -328 100 -333 q 28 -317 47 -324 l 28 -317 l 28 -218 q 71 -228 49 -224 q 119 -232 93 -232 l 119 -232 q 193 -208 164 -232 q 222 -115 222 -183 l 222 -115 l 222 744 l 344 744 l 344 -111 q 294 -274 344 -215 q 135 -333 244 -333 z "},"k":{"ha":742,"x_min":118,"x_max":729,"o":"m 239 0 l 118 0 l 118 1056 l 239 1056 l 239 504 q 238 446 239 482 q 233 383 236 410 l 233 383 l 239 383 q 264 415 247 394 q 298 458 281 436 q 328 493 315 479 l 328 493 l 565 744 l 708 744 l 407 426 l 729 0 l 582 0 l 324 347 l 239 274 l 239 0 z "},"l":{"ha":358,"x_min":118,"x_max":240,"o":"m 240 0 l 118 0 l 118 1056 l 240 1056 l 240 0 z "},"m":{"ha":1299,"x_min":118,"x_max":1186,"o":"m 240 0 l 118 0 l 118 744 l 217 744 l 235 643 l 242 643 q 335 730 276 701 q 461 758 394 758 l 461 758 q 689 633 636 758 l 689 633 l 696 633 q 798 728 733 697 q 935 758 863 758 l 935 758 q 1124 694 1061 758 q 1186 485 1186 629 l 1186 485 l 1186 0 l 1065 0 l 1065 479 q 914 656 1065 656 l 914 656 q 759 593 806 656 q 713 411 713 531 l 713 411 l 713 0 l 592 0 l 592 479 q 439 656 592 656 l 439 656 q 283 586 326 656 q 240 386 240 517 l 240 386 l 240 0 z "},"n":{"ha":858,"x_min":118,"x_max":746,"o":"m 240 0 l 118 0 l 118 744 l 217 744 l 235 643 l 242 643 q 342 730 278 701 q 476 758 406 758 l 476 758 q 678 694 610 758 q 746 485 746 629 l 746 485 l 746 0 l 625 0 l 625 476 q 458 656 625 656 l 458 656 q 288 586 335 656 q 240 386 240 517 l 240 386 l 240 0 z "},"o":{"ha":840,"x_min":76,"x_max":765,"o":"m 418 -14 l 418 -14 q 242 31 319 -14 q 121 163 165 76 q 76 374 76 250 l 76 374 q 169 658 76 558 q 422 758 263 758 l 422 758 q 601 713 524 758 q 722 583 678 668 q 765 374 765 497 l 765 374 q 672 88 765 189 q 418 -14 578 -14 z m 421 88 l 421 88 q 586 165 533 88 q 639 374 639 242 l 639 374 q 586 581 639 506 q 419 656 533 656 l 419 656 q 254 581 306 656 q 203 374 203 506 l 203 374 q 255 165 203 242 q 421 88 307 88 z "},"p":{"ha":853,"x_min":118,"x_max":778,"o":"m 240 -333 l 118 -333 l 118 744 l 218 744 l 235 643 l 240 643 q 328 725 274 692 q 472 758 382 758 l 472 758 q 694 663 610 758 q 778 374 778 567 l 778 374 q 694 85 778 183 q 471 -14 610 -14 l 471 -14 q 328 19 385 -14 q 240 94 272 51 l 240 94 l 232 94 q 238 35 235 71 q 240 -28 240 -1 l 240 -28 l 240 -333 z m 453 88 l 453 88 q 565 125 521 88 q 630 227 608 163 q 651 375 651 292 l 651 375 q 602 579 651 503 q 450 656 553 656 l 450 656 q 290 592 336 656 q 240 397 243 528 l 240 397 l 240 374 q 285 162 240 236 q 453 88 331 88 z "},"q":{"ha":854,"x_min":76,"x_max":736,"o":"m 736 -333 l 614 -333 l 614 -15 q 615 43 614 10 q 621 100 617 76 l 621 100 l 613 100 q 524 19 581 53 q 379 -14 468 -14 l 379 -14 q 160 83 244 -14 q 76 371 76 179 l 76 371 q 162 660 76 563 q 383 758 247 758 l 383 758 q 526 725 471 758 q 615 643 582 692 l 615 643 l 621 643 l 639 744 l 736 744 l 736 -333 z m 403 88 l 403 88 q 566 151 518 88 q 615 344 614 214 l 615 344 l 615 369 q 568 584 615 511 q 400 657 521 657 l 400 657 q 251 578 300 657 q 203 368 203 500 l 203 368 q 252 162 203 236 q 403 88 301 88 z "},"r":{"ha":574,"x_min":118,"x_max":553,"o":"m 240 0 l 118 0 l 118 744 l 218 744 l 232 608 l 238 608 q 331 714 274 669 q 465 758 388 758 l 465 758 q 510 756 486 758 q 553 750 535 754 l 553 750 l 538 638 q 498 644 519 642 q 457 647 476 647 l 457 647 q 350 616 400 647 q 270 528 300 585 q 240 397 240 472 l 240 397 l 240 0 z "},"s":{"ha":665,"x_min":71,"x_max":603,"o":"m 306 -14 l 306 -14 q 172 -1 228 -14 q 72 33 115 11 l 72 33 l 72 144 q 180 103 117 122 q 308 85 243 85 l 308 85 q 443 115 401 85 q 485 194 485 144 l 485 194 q 469 244 485 222 q 415 289 454 267 q 301 339 375 311 l 301 339 q 178 394 229 367 q 99 461 126 422 q 71 561 71 500 l 71 561 q 148 707 71 656 q 350 758 225 758 l 350 758 q 477 745 418 758 q 588 708 536 732 l 588 708 l 546 611 q 447 644 499 631 q 342 658 396 658 l 342 658 q 227 634 267 658 q 188 568 188 610 l 188 568 q 206 516 188 538 q 266 474 224 494 q 379 426 308 454 l 379 426 q 500 372 450 400 q 576 304 550 343 q 603 206 603 265 l 603 206 q 522 42 603 97 q 306 -14 442 -14 z "},"t":{"ha":501,"x_min":22,"x_max":471,"o":"m 346 -14 l 346 -14 q 238 6 288 -14 q 158 76 189 26 q 128 217 128 126 l 128 217 l 128 650 l 22 650 l 22 708 l 129 757 l 178 915 l 250 915 l 250 744 l 465 744 l 465 650 l 250 650 l 250 219 q 283 119 250 151 q 367 86 315 86 l 367 86 q 424 91 394 86 q 471 101 453 96 l 471 101 l 471 8 q 415 -8 451 -1 q 346 -14 379 -14 z "},"u":{"ha":858,"x_min":110,"x_max":740,"o":"m 381 -14 l 381 -14 q 178 51 246 -14 q 110 257 110 115 l 110 257 l 110 744 l 233 744 l 233 265 q 399 88 233 88 l 399 88 q 570 157 522 88 q 618 357 618 226 l 618 357 l 618 744 l 740 744 l 740 0 l 640 0 l 622 99 l 617 99 q 517 13 581 40 q 381 -14 453 -14 z "},"v":{"ha":706,"x_min":0,"x_max":706,"o":"m 422 0 l 282 0 l 0 744 l 131 744 l 289 306 q 313 238 300 275 q 335 166 325 200 q 349 108 344 132 l 349 108 l 354 108 q 370 167 360 132 q 394 239 381 201 q 417 306 407 276 l 417 306 l 575 744 l 706 744 l 422 0 z "},"w":{"ha":1092,"x_min":15,"x_max":1076,"o":"m 358 1 l 219 1 l 15 746 l 142 746 l 244 349 q 274 228 260 289 q 293 126 288 167 l 293 126 l 299 126 q 312 185 304 150 q 329 258 319 219 q 349 326 339 296 l 349 326 l 481 746 l 614 746 l 742 326 q 772 224 757 279 q 792 128 786 168 l 792 128 l 797 128 q 816 224 801 163 q 847 349 831 285 l 847 349 l 951 746 l 1076 746 l 869 1 l 726 1 l 599 421 q 567 533 581 478 q 547 618 554 588 l 547 618 l 542 618 q 524 533 536 588 q 492 419 511 478 l 492 419 l 358 1 z "},"x":{"ha":735,"x_min":25,"x_max":710,"o":"m 163 0 l 25 0 l 294 381 l 38 744 l 176 744 l 368 464 l 558 744 l 696 744 l 439 381 l 710 0 l 571 0 l 368 297 l 163 0 z "},"y":{"ha":708,"x_min":1,"x_max":708,"o":"m 117 -333 l 117 -333 q 58 -330 83 -333 q 15 -322 33 -326 l 15 -322 l 15 -225 q 52 -231 31 -228 q 97 -233 74 -233 l 97 -233 q 200 -197 161 -233 q 263 -101 239 -161 l 263 -101 l 301 -3 l 1 744 l 132 744 l 293 321 q 331 215 314 265 q 356 118 347 164 l 356 118 l 361 118 q 387 209 369 153 q 425 322 404 265 l 425 322 l 576 744 l 708 744 l 388 -103 q 287 -271 349 -208 q 117 -333 225 -333 z "},"z":{"ha":653,"x_min":54,"x_max":599,"o":"m 599 0 l 54 0 l 54 81 l 454 650 l 78 650 l 78 744 l 589 744 l 589 653 l 194 94 l 599 94 l 599 0 z "},"Α":{"ha":888,"x_min":0,"x_max":886,"o":"m 126 0 l 0 0 l 388 996 l 500 996 l 886 0 l 757 0 l 638 307 l 244 307 l 126 0 z m 399 718 l 286 418 l 600 418 l 489 718 q 475 758 485 729 q 456 819 465 788 q 442 867 447 850 l 442 867 q 419 783 432 824 q 399 718 407 742 l 399 718 z "},"Β":{"ha":903,"x_min":135,"x_max":828,"o":"m 483 0 l 135 0 l 135 992 l 418 992 q 699 937 604 992 q 794 746 794 882 l 794 746 q 746 601 794 658 q 606 526 697 543 l 606 526 l 606 519 q 719 483 668 510 q 799 408 769 457 q 828 282 828 360 l 828 282 q 735 74 828 147 q 483 0 643 0 l 483 0 z m 260 885 l 260 569 l 443 569 q 618 610 571 569 q 665 732 665 651 l 665 732 q 608 849 665 814 q 424 885 550 885 l 424 885 l 260 885 z m 260 465 l 260 106 l 460 106 q 643 157 592 106 q 694 292 694 208 l 694 292 q 641 417 694 369 q 450 465 588 465 l 450 465 l 260 465 z "},"Γ":{"ha":728,"x_min":135,"x_max":694,"o":"m 260 0 l 135 0 l 135 992 l 694 992 l 694 881 l 260 881 l 260 0 z "},"Δ":{"ha":807,"x_min":28,"x_max":779,"o":"m 779 0 l 28 0 l 28 76 l 340 992 l 465 992 l 779 75 l 779 0 z m 338 632 l 161 110 l 642 110 l 468 626 q 430 747 447 689 q 401 856 413 806 l 401 856 q 373 748 389 806 q 338 632 357 690 l 338 632 z "},"Ε":{"ha":772,"x_min":135,"x_max":689,"o":"m 689 0 l 135 0 l 135 992 l 689 992 l 689 882 l 260 882 l 260 572 l 664 572 l 664 464 l 260 464 l 260 110 l 689 110 l 689 0 z "},"Ζ":{"ha":794,"x_min":53,"x_max":740,"o":"m 740 0 l 53 0 l 53 94 l 575 881 l 69 881 l 69 992 l 726 992 l 726 897 l 204 111 l 740 111 l 740 0 z "},"Η":{"ha":1029,"x_min":135,"x_max":893,"o":"m 260 0 l 135 0 l 135 992 l 260 992 l 260 572 l 768 572 l 768 992 l 893 992 l 893 0 l 768 0 l 768 463 l 260 463 l 260 0 z "},"Θ":{"ha":1085,"x_min":85,"x_max":1000,"o":"m 543 -14 l 543 -14 q 287 50 389 -14 q 135 229 185 114 q 85 499 85 344 l 85 499 q 135 765 85 651 q 287 943 185 879 q 544 1007 389 1007 l 544 1007 q 794 944 693 1007 q 948 766 896 881 q 1000 497 1000 651 l 1000 497 q 948 228 1000 343 q 794 50 896 114 q 543 -14 693 -14 z m 543 94 l 543 94 q 790 202 713 94 q 868 497 868 310 l 868 497 q 790 791 868 685 q 544 897 713 897 l 544 897 q 297 791 376 897 q 217 497 217 685 l 217 497 q 296 202 217 310 q 543 94 375 94 z m 751 450 l 332 450 l 332 558 l 751 558 l 751 450 z "},"Ι":{"ha":471,"x_min":56,"x_max":414,"o":"m 414 0 l 56 0 l 56 72 l 172 99 l 172 892 l 56 919 l 56 992 l 414 992 l 414 919 l 297 892 l 297 99 l 414 72 l 414 0 z "},"Κ":{"ha":860,"x_min":135,"x_max":860,"o":"m 260 0 l 135 0 l 135 992 l 260 992 l 260 503 q 345 597 303 550 q 431 692 388 644 l 431 692 l 699 992 l 844 992 l 451 560 l 860 0 l 713 0 l 361 474 l 260 385 l 260 0 z "},"Λ":{"ha":844,"x_min":0,"x_max":843,"o":"m 132 0 l 0 0 l 356 992 l 486 992 l 843 0 l 711 0 l 492 625 q 451 748 469 690 q 419 856 432 806 l 419 856 q 391 747 410 806 q 350 626 372 689 l 350 626 l 132 0 z "},"Μ":{"ha":1260,"x_min":135,"x_max":1125,"o":"m 250 0 l 135 0 l 135 992 l 319 992 l 625 179 l 631 179 l 942 992 l 1125 992 l 1125 0 l 1001 0 l 1001 610 q 1005 753 1001 682 q 1011 868 1008 824 l 1011 868 l 1006 868 l 675 0 l 572 0 l 246 869 l 240 869 q 247 753 244 826 q 250 601 250 681 l 250 601 l 250 0 z "},"Ν":{"ha":1056,"x_min":135,"x_max":921,"o":"m 250 0 l 135 0 l 135 992 l 279 992 l 808 171 l 814 171 q 810 238 813 193 q 806 335 808 282 q 804 432 804 388 l 804 432 l 804 992 l 921 992 l 921 0 l 775 0 l 244 824 l 239 824 q 247 703 243 775 q 250 554 250 631 l 250 554 l 250 0 z "},"Ξ":{"ha":771,"x_min":49,"x_max":721,"o":"m 693 882 l 76 882 l 76 992 l 693 992 l 693 882 z m 638 464 l 132 464 l 132 572 l 638 572 l 638 464 z m 721 0 l 49 0 l 49 110 l 721 110 l 721 0 z "},"Ο":{"ha":1085,"x_min":85,"x_max":1000,"o":"m 543 -14 l 543 -14 q 287 50 389 -14 q 135 229 185 114 q 85 499 85 344 l 85 499 q 135 765 85 651 q 287 943 185 879 q 544 1007 389 1007 l 544 1007 q 794 944 693 1007 q 948 766 896 881 q 1000 497 1000 651 l 1000 497 q 948 228 1000 343 q 794 50 896 114 q 543 -14 693 -14 z m 543 94 l 543 94 q 790 202 713 94 q 868 497 868 310 l 868 497 q 790 791 868 685 q 544 897 713 897 l 544 897 q 297 791 376 897 q 217 497 217 685 l 217 497 q 296 202 217 310 q 543 94 375 94 z "},"Π":{"ha":1015,"x_min":135,"x_max":879,"o":"m 260 0 l 135 0 l 135 992 l 879 992 l 879 0 l 756 0 l 756 882 l 260 882 l 260 0 z "},"Ρ":{"ha":840,"x_min":135,"x_max":769,"o":"m 260 0 l 135 0 l 135 992 l 397 992 q 681 915 592 992 q 769 700 769 839 l 769 700 q 733 547 769 618 q 609 431 696 475 q 374 386 522 386 l 374 386 l 260 386 l 260 0 z m 260 885 l 260 493 l 360 493 q 571 539 501 493 q 640 694 640 585 l 640 694 q 579 838 640 790 q 386 885 518 885 l 386 885 l 260 885 z "},"Σ":{"ha":792,"x_min":50,"x_max":758,"o":"m 758 0 l 50 0 l 50 103 l 375 518 l 58 888 l 58 992 l 718 992 l 718 881 l 364 881 q 311 881 344 881 q 247 881 278 881 q 201 882 217 882 l 201 882 l 514 519 l 188 108 q 292 110 240 110 q 400 110 344 110 l 400 110 l 758 110 l 758 0 z "},"Τ":{"ha":772,"x_min":14,"x_max":757,"o":"m 449 0 l 324 0 l 324 882 l 14 882 l 14 992 l 757 992 l 757 882 l 449 882 l 449 0 z "},"Υ":{"ha":786,"x_min":0,"x_max":786,"o":"m 456 0 l 331 0 l 331 379 l 0 992 l 136 992 l 393 504 l 651 992 l 786 992 l 456 385 l 456 0 z "},"Φ":{"ha":1117,"x_min":71,"x_max":1044,"o":"m 619 -14 l 496 -14 l 496 139 q 287 176 369 142 q 157 265 204 210 q 90 385 110 319 q 71 514 71 450 l 71 514 q 110 695 71 613 q 243 829 150 778 q 496 883 336 881 l 496 883 l 496 1006 l 619 1006 l 619 883 q 874 831 781 881 q 1006 698 967 781 q 1044 514 1044 615 l 1044 514 q 1024 381 1044 447 q 956 262 1004 315 q 825 175 907 208 q 619 139 743 142 l 619 139 l 619 -14 z m 496 242 l 496 242 l 496 778 q 319 742 385 775 q 225 651 253 708 q 197 515 197 593 l 197 515 q 269 320 197 393 q 496 242 340 247 z m 619 778 l 619 242 q 849 322 781 247 q 918 515 918 396 l 918 515 q 890 652 918 594 q 797 742 863 710 q 619 778 732 775 l 619 778 z "},"Χ":{"ha":814,"x_min":6,"x_max":808,"o":"m 138 0 l 6 0 l 335 517 l 26 992 l 165 992 l 408 603 l 653 992 l 785 992 l 478 519 l 808 0 l 667 0 l 404 431 l 138 0 z "},"Ψ":{"ha":1117,"x_min":74,"x_max":1043,"o":"m 618 0 l 496 0 l 496 301 q 288 332 371 301 q 159 414 206 363 q 93 531 113 465 q 74 664 74 596 l 74 664 l 74 992 l 199 992 l 199 667 q 269 473 199 538 q 496 408 340 408 l 496 408 l 496 992 l 618 992 l 618 408 q 846 473 776 408 q 915 664 915 538 l 915 664 l 915 992 l 1043 992 l 1043 665 q 1023 529 1043 594 q 956 413 1003 464 q 826 331 908 361 q 618 301 743 301 l 618 301 l 618 0 z "},"Ω":{"ha":1086,"x_min":53,"x_max":1035,"o":"m 453 0 l 53 0 l 53 110 l 300 110 q 150 292 211 178 q 89 561 89 406 l 89 561 q 142 797 89 697 q 297 952 194 897 q 543 1007 399 1007 l 543 1007 q 792 953 690 1007 q 946 799 893 899 q 999 563 999 699 l 999 563 q 938 292 999 407 q 789 110 878 178 l 789 110 l 1035 110 l 1035 0 l 635 0 l 635 100 q 816 306 764 192 q 868 557 868 419 l 868 557 q 790 806 868 715 q 543 897 711 897 l 543 897 q 299 806 376 897 q 221 557 221 715 l 221 557 q 272 306 221 418 q 453 100 324 193 l 453 100 l 453 0 z "},"Ϝ":{"ha":742,"x_min":135,"x_max":675,"o":"m 135 0 l 135 992 l 675 992 l 675 882 l 260 882 l 260 531 l 642 531 l 642 243 l 522 243 l 522 421 l 260 421 l 260 0 l 135 0 z "},"ϴ":{"ha":1086,"x_min":85,"x_max":1000,"o":"m 543 -14 l 543 -14 q 287 50 389 -14 q 135 229 185 114 q 85 499 85 344 l 85 499 q 135 765 85 651 q 287 943 185 879 q 544 1007 389 1007 l 544 1007 q 794 944 693 1007 q 948 766 896 881 q 1000 497 1000 651 l 1000 497 q 948 228 1000 343 q 794 50 896 114 q 543 -14 693 -14 z m 218 560 l 218 560 l 865 560 q 776 808 853 718 q 544 897 699 897 l 544 897 q 310 808 389 897 q 218 560 231 718 z m 543 94 l 543 94 q 780 189 701 94 q 867 451 858 283 l 867 451 l 218 451 q 305 189 226 283 q 543 94 383 94 z "},"∇":{"ha":807,"x_min":28,"x_max":779,"o":"m 467 0 l 342 0 l 28 917 l 28 992 l 779 992 l 779 915 l 467 0 z m 406 136 l 406 136 q 440 264 425 208 q 469 360 456 319 l 469 360 l 646 882 l 165 882 l 340 360 q 379 240 363 296 q 406 136 396 185 z "},"α":{"ha":854,"x_min":76,"x_max":833,"o":"m 382 -14 l 382 -14 q 161 83 246 -14 q 76 369 76 179 l 76 369 q 160 658 76 558 q 393 758 243 758 l 393 758 q 530 730 475 758 q 621 644 585 701 l 621 644 l 629 644 q 647 696 636 668 q 674 744 658 724 l 674 744 l 769 744 q 751 664 760 714 q 739 558 743 614 q 735 453 735 503 l 735 453 l 735 164 q 751 103 735 121 q 792 86 768 86 l 792 86 q 815 89 803 86 q 833 93 828 92 l 833 93 l 833 4 q 801 -8 824 -1 q 756 -14 779 -14 l 756 -14 q 672 11 704 -14 q 624 100 639 36 l 624 100 l 614 100 q 529 19 582 53 q 382 -14 476 -14 z m 403 88 l 403 88 q 566 153 518 88 q 614 363 614 219 l 614 363 l 614 371 q 569 583 614 510 q 401 656 524 656 l 401 656 q 251 582 300 656 q 203 368 203 508 l 203 368 q 251 158 203 229 q 403 88 299 88 z "},"β":{"ha":876,"x_min":118,"x_max":814,"o":"m 240 -333 l 118 -333 l 118 743 q 161 926 118 856 q 279 1029 204 996 q 450 1063 354 1063 l 450 1063 q 615 1033 543 1063 q 728 944 688 1003 q 769 797 769 886 l 769 797 q 715 639 769 697 q 558 564 661 581 l 558 564 l 558 558 q 749 476 685 544 q 814 282 814 408 l 814 282 q 724 63 814 139 q 475 -14 635 -14 l 475 -14 q 340 -1 394 -14 q 240 33 285 11 l 240 33 l 240 -333 z m 464 86 l 464 86 q 638 140 583 86 q 692 290 692 193 l 692 290 q 625 451 692 400 q 450 501 558 501 l 450 501 l 376 501 l 376 604 l 436 604 q 594 656 544 604 q 644 792 644 707 l 644 792 q 591 919 644 878 q 447 961 538 961 l 447 961 q 344 942 392 961 q 269 874 297 922 q 240 738 240 825 l 240 738 l 240 143 q 341 102 289 118 q 464 86 393 86 z "},"γ":{"ha":719,"x_min":7,"x_max":713,"o":"m 369 -333 l 238 -333 q 247 -236 238 -294 q 272 -113 256 -178 q 308 8 288 -49 l 308 8 l 7 744 l 133 744 l 290 354 q 321 274 306 318 q 349 189 336 229 q 365 124 361 149 l 365 124 l 371 124 q 387 188 375 146 q 413 274 399 229 q 439 349 428 318 l 439 349 l 586 744 l 713 744 l 438 18 q 401 -101 417 -37 q 378 -226 386 -165 q 369 -333 369 -286 l 369 -333 z "},"δ":{"ha":839,"x_min":75,"x_max":764,"o":"m 417 -14 l 417 -14 q 240 22 318 -14 q 119 128 163 58 q 75 297 75 199 l 75 297 q 113 453 75 386 q 217 565 151 519 q 365 633 283 610 l 365 633 q 240 731 288 678 q 193 861 193 785 l 193 861 q 265 1006 193 957 q 443 1056 336 1056 l 443 1056 q 607 1032 539 1056 q 729 981 675 1008 l 729 981 l 676 885 q 567 935 625 914 q 438 956 508 956 l 438 956 q 346 927 375 956 q 317 860 317 899 l 317 860 q 335 800 317 826 q 394 745 353 774 q 503 679 435 717 l 503 679 q 697 530 629 611 q 764 328 764 449 l 764 328 q 669 74 764 161 q 417 -14 574 -14 z m 417 88 l 417 88 q 581 149 524 88 q 638 326 638 211 l 638 326 q 591 479 638 421 q 463 581 544 538 l 463 581 q 374 551 419 571 q 290 498 329 531 q 227 416 251 465 q 203 296 203 367 l 203 296 q 259 146 203 204 q 417 88 315 88 z "},"ε":{"ha":671,"x_min":60,"x_max":624,"o":"m 372 -14 l 372 -14 q 136 48 213 -14 q 60 203 60 110 l 60 203 q 83 294 60 258 q 143 351 106 329 q 225 385 181 372 l 225 385 l 225 392 q 124 452 163 411 q 86 561 86 493 l 86 561 q 166 707 86 656 q 372 758 246 758 l 372 758 q 510 744 453 758 q 624 706 568 731 l 624 706 l 578 608 q 484 643 532 629 q 371 657 436 657 l 371 657 q 203 551 203 657 l 203 551 q 260 464 203 490 q 415 438 318 438 l 415 438 l 493 438 l 493 338 l 392 338 q 182 210 182 338 l 182 210 q 239 114 182 142 q 379 86 296 86 l 379 86 q 516 104 457 86 q 621 144 575 122 l 621 144 l 621 38 q 518 1 578 15 q 372 -14 458 -14 z "},"ζ":{"ha":672,"x_min":76,"x_max":635,"o":"m 547 -271 l 426 -271 q 486 -176 460 -226 q 513 -87 513 -125 l 513 -87 q 501 -51 513 -68 q 455 -20 490 -35 q 344 7 419 -6 l 344 7 q 144 102 213 31 q 76 311 76 174 l 76 311 q 110 502 76 415 q 201 665 143 589 q 333 814 258 742 q 490 960 408 886 l 490 960 q 453 958 485 960 q 377 956 422 957 q 285 954 332 954 l 285 954 l 118 954 l 118 1056 l 635 1056 l 635 964 q 405 748 492 843 q 275 576 318 653 q 217 438 232 500 q 203 319 203 375 l 203 319 q 231 199 203 240 q 311 138 258 158 q 439 103 364 118 l 439 103 q 590 42 546 81 q 635 -56 635 4 l 635 -56 q 608 -172 635 -117 q 547 -271 581 -226 l 547 -271 z "},"η":{"ha":858,"x_min":118,"x_max":746,"o":"m 746 -333 l 625 -333 l 625 476 q 585 610 625 565 q 458 656 544 656 l 458 656 q 288 586 336 656 q 240 386 240 517 l 240 386 l 240 0 l 118 0 l 118 744 l 217 744 l 235 643 l 242 643 q 342 730 278 701 q 476 758 406 758 l 476 758 q 678 694 610 758 q 746 485 746 629 l 746 485 l 746 -333 z "},"θ":{"ha":826,"x_min":76,"x_max":750,"o":"m 411 -14 l 411 -14 q 158 129 239 -14 q 76 524 76 272 l 76 524 q 110 814 76 693 q 217 999 143 935 q 411 1063 292 1063 l 411 1063 q 667 922 585 1063 q 750 524 750 781 l 750 524 q 716 235 750 356 q 608 51 682 115 q 411 -14 533 -14 z m 200 589 l 200 589 l 625 589 q 568 869 618 775 q 411 963 518 963 l 411 963 q 256 869 306 963 q 200 589 207 775 z m 411 86 l 411 86 q 571 186 519 86 q 626 488 622 286 l 626 488 l 200 488 q 252 188 203 289 q 411 86 301 86 z "},"ι":{"ha":481,"x_min":114,"x_max":456,"o":"m 325 -14 l 325 -14 q 216 6 264 -14 q 141 77 168 26 q 114 218 114 128 l 114 218 l 114 744 l 235 744 l 235 219 q 260 119 235 153 q 342 86 286 86 l 342 86 q 405 91 372 86 q 456 101 438 96 l 456 101 l 456 8 q 399 -8 436 -1 q 325 -14 361 -14 z "},"κ":{"ha":742,"x_min":118,"x_max":735,"o":"m 692 763 l 735 664 q 547 556 631 608 q 394 444 463 503 l 394 444 l 607 153 q 649 104 631 122 q 693 86 667 86 l 693 86 q 716 89 704 86 q 735 93 728 92 l 735 93 l 735 3 q 699 -9 719 -4 q 656 -14 679 -14 l 656 -14 q 543 43 583 -14 l 543 43 l 311 363 q 247 276 276 322 l 247 276 l 247 0 l 118 0 l 118 744 l 247 744 l 247 551 q 246 481 247 517 q 243 418 244 446 l 243 418 q 438 610 328 529 q 692 763 549 692 l 692 763 z "},"λ":{"ha":761,"x_min":0,"x_max":761,"o":"m 682 -14 l 682 -14 q 601 12 631 -14 q 549 99 571 38 l 549 99 l 447 383 q 422 458 436 417 q 395 538 407 499 q 378 604 383 578 l 378 604 l 372 604 q 340 500 360 556 q 296 390 319 444 l 296 390 l 126 0 l 0 0 l 321 731 l 283 835 q 235 928 261 894 q 149 963 208 963 l 149 963 q 105 960 124 963 q 71 954 86 957 l 71 954 l 71 1053 q 114 1060 90 1057 q 163 1064 138 1064 l 163 1064 q 278 1039 235 1064 q 352 963 322 1014 q 410 831 382 911 l 410 831 l 650 161 q 719 86 676 86 l 719 86 q 742 89 731 86 q 761 93 754 92 l 761 93 l 761 3 q 726 -9 746 -4 q 682 -14 706 -14 z "},"μ":{"ha":865,"x_min":118,"x_max":747,"o":"m 240 -333 l 118 -333 l 118 744 l 240 744 l 240 264 q 407 88 240 88 l 407 88 q 578 157 531 88 q 625 357 625 226 l 625 357 l 625 744 l 747 744 l 747 0 l 649 0 l 629 100 l 622 100 q 532 15 588 44 q 399 -14 476 -14 l 399 -14 q 306 3 344 -14 q 239 49 267 21 l 239 49 l 233 49 q 238 -18 236 24 q 240 -117 240 -60 l 240 -117 l 240 -333 z "},"ν":{"ha":760,"x_min":0,"x_max":703,"o":"m 410 0 l 278 0 l 0 744 l 126 744 l 275 343 q 303 264 288 310 q 334 174 319 218 q 356 103 349 131 l 356 103 l 361 103 q 495 287 447 190 q 563 497 543 383 q 582 744 582 610 l 582 744 l 703 744 q 677 473 703 599 q 588 231 651 347 q 410 0 525 115 l 410 0 z "},"ξ":{"ha":663,"x_min":75,"x_max":635,"o":"m 551 -271 l 436 -271 q 493 -176 468 -226 q 518 -86 518 -125 l 518 -86 q 507 -51 518 -67 q 460 -20 496 -35 q 349 7 424 -6 l 349 7 q 144 99 214 31 q 75 286 75 167 l 75 286 q 102 409 75 356 q 174 498 129 463 q 269 549 218 533 l 269 549 l 269 557 q 162 622 201 576 q 122 746 122 667 l 122 746 q 151 853 122 811 q 226 922 179 896 q 328 963 272 947 l 328 963 q 254 957 301 960 q 160 954 207 954 l 160 954 l 118 954 l 118 1056 l 599 1056 l 599 961 l 563 961 q 409 938 483 961 q 288 867 335 914 q 240 749 240 819 l 240 749 q 292 640 240 678 q 467 601 343 601 l 467 601 l 582 601 l 582 508 l 463 508 q 269 447 336 508 q 203 296 203 386 l 203 296 q 232 189 203 225 q 316 135 261 153 q 444 101 371 117 l 444 101 q 593 40 551 79 q 635 -56 635 1 l 635 -56 q 608 -172 635 -117 q 551 -271 582 -226 l 551 -271 z "},"ο":{"ha":840,"x_min":76,"x_max":765,"o":"m 418 -14 l 418 -14 q 242 31 319 -14 q 121 163 165 76 q 76 374 76 250 l 76 374 q 169 658 76 558 q 422 758 263 758 l 422 758 q 601 713 524 758 q 722 583 678 668 q 765 374 765 497 l 765 374 q 672 88 765 189 q 418 -14 578 -14 z m 421 88 l 421 88 q 586 165 533 88 q 639 374 639 242 l 639 374 q 586 581 639 506 q 419 656 533 656 l 419 656 q 254 581 306 656 q 203 374 203 506 l 203 374 q 255 165 203 242 q 421 88 307 88 z "},"π":{"ha":915,"x_min":17,"x_max":871,"o":"m 758 -14 l 758 -14 q 604 164 604 -14 l 604 164 l 604 643 l 289 643 l 289 0 l 168 0 l 168 643 l 17 643 l 17 696 l 117 744 l 871 744 l 871 643 l 725 643 l 725 172 q 743 105 725 124 q 789 86 761 86 l 789 86 q 824 90 808 86 q 850 100 840 94 l 850 100 l 850 4 q 815 -8 839 -1 q 758 -14 790 -14 z "},"ρ":{"ha":840,"x_min":110,"x_max":764,"o":"m 233 -333 l 110 -333 l 110 382 q 200 665 110 572 q 442 758 290 758 l 442 758 q 609 714 536 758 q 723 583 682 669 q 764 372 764 497 l 764 372 q 676 85 764 183 q 435 -14 588 -14 l 435 -14 q 326 2 379 -14 q 233 49 274 18 l 233 49 l 226 49 q 231 -24 229 26 q 233 -136 233 -74 l 233 -136 l 233 -333 z m 433 88 l 433 88 q 591 160 543 88 q 639 372 639 232 l 639 372 q 591 585 639 515 q 436 656 543 656 l 436 656 q 233 381 233 656 l 233 381 l 233 156 q 326 104 274 121 q 433 88 378 88 z "},"ς":{"ha":672,"x_min":76,"x_max":636,"o":"m 551 -271 l 436 -271 q 494 -176 468 -226 q 519 -86 519 -125 l 519 -86 q 508 -51 519 -67 q 461 -20 497 -35 q 350 8 425 -6 l 350 8 q 212 60 274 24 q 113 166 150 96 q 76 351 76 236 l 76 351 q 122 582 76 492 q 249 715 168 672 q 435 758 329 758 l 435 758 q 544 747 490 758 q 636 718 597 735 l 636 718 l 597 617 q 518 641 561 631 q 429 651 475 651 l 429 651 q 256 575 308 651 q 203 353 203 499 l 203 353 q 222 224 203 271 q 294 150 242 176 q 443 103 346 124 l 443 103 q 592 41 550 81 q 635 -56 635 1 l 635 -56 q 608 -173 635 -117 q 551 -271 582 -229 l 551 -271 z "},"σ":{"ha":857,"x_min":76,"x_max":824,"o":"m 418 -14 l 418 -14 q 170 81 264 -14 q 76 356 76 175 l 76 356 q 126 581 76 496 q 266 706 175 667 q 481 744 357 744 l 481 744 l 824 744 l 824 643 l 643 643 q 731 517 697 592 q 764 342 764 442 l 764 342 q 725 161 764 242 q 609 33 686 81 q 418 -14 532 -14 z m 421 88 l 421 88 q 588 158 536 88 q 639 339 639 229 l 639 339 q 609 506 639 429 q 524 643 579 583 l 524 643 l 481 643 q 272 578 342 643 q 203 356 203 513 l 203 356 q 254 163 203 238 q 421 88 306 88 z "},"τ":{"ha":665,"x_min":14,"x_max":628,"o":"m 453 -15 l 453 -15 q 335 3 389 -15 q 247 72 281 22 q 214 215 214 122 l 214 215 l 214 642 l 14 642 l 14 696 l 115 744 l 628 744 l 628 642 l 338 642 l 338 228 q 374 115 338 147 q 471 83 411 83 l 471 83 q 534 88 501 83 q 589 99 567 93 l 589 99 l 589 7 q 531 -8 569 -1 q 453 -15 493 -15 z "},"υ":{"ha":851,"x_min":110,"x_max":776,"o":"m 426 -14 l 426 -14 q 234 33 303 -14 q 138 159 165 79 q 110 338 110 239 l 110 338 l 110 744 l 232 744 l 232 342 q 281 155 232 224 q 436 86 329 86 l 436 86 q 600 165 547 86 q 653 411 653 244 l 653 411 q 642 585 653 508 q 610 744 631 661 l 610 744 l 732 744 q 765 585 754 663 q 776 406 776 508 l 776 406 q 688 88 776 190 q 426 -14 600 -14 z "},"φ":{"ha":1007,"x_min":76,"x_max":931,"o":"m 556 -333 l 436 -333 l 436 -12 q 252 33 333 -7 q 124 157 171 74 q 76 376 76 240 l 76 376 q 117 583 76 489 q 218 751 157 676 l 218 751 l 313 686 q 230 544 261 618 q 199 372 199 469 l 199 372 q 231 210 199 271 q 318 122 264 150 q 436 88 372 94 l 436 88 l 436 501 q 495 693 436 628 q 656 758 554 758 l 656 758 q 803 712 742 758 q 897 583 864 665 q 931 390 931 500 l 931 390 q 878 169 931 256 q 741 38 826 82 q 556 -12 656 -7 l 556 -12 l 556 -333 z m 556 503 l 556 88 q 683 128 626 94 q 774 227 740 163 q 807 389 807 292 l 807 389 q 765 588 807 519 q 657 657 722 657 l 657 657 q 586 624 617 657 q 556 503 556 590 l 556 503 z "},"χ":{"ha":808,"x_min":28,"x_max":800,"o":"m 158 -333 l 28 -333 l 344 236 l 231 532 q 187 619 210 588 q 128 650 164 650 l 128 650 q 82 642 101 650 l 82 642 l 82 738 q 118 745 97 742 q 168 749 139 749 l 168 749 q 270 705 238 749 q 335 579 303 661 l 335 579 l 429 340 l 642 744 l 772 744 l 481 222 l 610 -106 q 660 -201 635 -169 q 738 -233 686 -233 l 738 -233 q 772 -231 756 -233 q 800 -228 788 -229 l 800 -228 l 800 -322 q 764 -330 785 -326 q 714 -333 743 -333 l 714 -333 q 612 -310 651 -333 q 547 -245 572 -287 q 499 -144 521 -203 l 499 -144 l 400 114 l 158 -333 z "},"ψ":{"ha":1057,"x_min":110,"x_max":972,"o":"m 592 -333 l 472 -333 l 472 -12 q 285 31 367 -8 q 156 153 203 69 q 110 375 110 238 l 110 375 l 110 744 l 231 744 l 231 371 q 264 207 231 267 q 353 121 297 147 q 472 89 408 94 l 472 89 l 472 1054 l 592 1054 l 592 90 q 781 172 710 101 q 853 389 853 242 l 853 389 q 842 566 853 485 q 808 744 831 647 l 808 744 l 929 744 q 962 568 951 651 q 972 393 972 485 l 972 393 q 921 163 972 250 q 783 35 869 76 q 592 -12 697 -6 l 592 -12 l 592 -333 z "},"ω":{"ha":1086,"x_min":78,"x_max":1008,"o":"m 343 -14 l 343 -14 q 198 33 257 -14 q 108 165 139 81 q 78 361 78 250 l 78 361 q 97 558 78 469 q 160 744 117 647 l 160 744 l 285 744 q 221 559 242 647 q 200 360 200 471 l 200 360 q 242 156 200 225 q 351 88 283 88 l 351 88 q 453 139 421 88 q 485 268 485 190 l 485 268 l 485 478 l 601 478 l 601 268 q 636 135 601 182 q 733 88 671 88 l 733 88 q 844 156 803 88 q 886 360 886 225 l 886 360 q 866 559 886 471 q 801 744 846 647 l 801 744 l 926 744 q 989 558 969 647 q 1008 361 1008 469 l 1008 361 q 978 165 1008 250 q 888 33 947 81 q 743 -14 829 -14 l 743 -14 q 546 111 593 -14 l 546 111 l 539 111 q 343 -14 494 -14 z "},"∂":{"ha":740,"x_min":64,"x_max":676,"o":"m 339 -14 l 339 -14 q 194 32 256 -14 q 98 154 132 78 q 64 319 64 231 l 64 319 q 106 508 64 429 q 214 633 147 588 q 353 682 281 678 l 353 682 q 451 670 403 686 q 539 615 499 654 l 539 615 q 457 823 514 744 q 318 901 400 901 l 318 901 q 233 881 279 901 q 136 814 188 860 l 136 814 l 89 896 q 200 976 135 946 q 335 1007 265 1007 l 335 1007 q 459 976 399 1007 q 569 878 519 946 q 647 698 618 810 q 676 424 676 586 l 676 424 q 631 178 676 275 q 510 33 586 81 q 339 -14 433 -14 z m 185 319 l 185 319 q 225 156 185 222 q 353 89 265 89 l 353 89 q 451 124 410 89 q 517 216 492 158 q 553 344 543 274 q 556 485 563 414 l 556 485 q 472 569 525 540 q 365 592 419 597 l 365 592 q 278 554 319 586 q 210 464 236 522 q 185 319 185 406 z "},"ϝ":{"ha":638,"x_min":119,"x_max":593,"o":"m 242 -333 l 119 -333 l 119 744 l 593 744 l 593 643 l 242 643 l 242 351 l 544 351 l 544 50 l 425 50 l 425 251 l 242 251 l 242 -333 z "},"ϑ":{"ha":865,"x_min":8,"x_max":844,"o":"m 379 -14 l 379 -14 q 224 22 281 -14 q 146 113 168 57 q 124 232 124 169 l 124 232 q 135 354 124 294 l 135 354 q 143 431 143 400 l 143 431 q 131 474 143 463 q 97 486 119 486 l 97 486 q 63 481 81 486 q 35 468 46 475 l 35 468 l 8 554 q 67 574 33 565 q 138 583 101 583 l 138 583 q 234 547 207 583 q 261 457 261 511 l 261 457 q 258 406 261 433 q 251 350 256 379 l 251 350 q 244 294 247 324 q 242 235 242 265 l 242 235 q 274 131 242 176 q 383 85 307 85 l 383 85 q 571 187 507 85 q 635 494 635 289 l 635 494 q 634 530 635 510 q 632 564 633 550 l 632 564 q 356 606 460 567 q 205 710 251 644 q 158 856 158 775 l 158 856 q 216 1003 158 943 q 400 1063 274 1063 l 400 1063 q 638 956 553 1063 q 747 665 722 849 l 747 665 l 844 665 l 844 564 l 756 564 q 758 530 757 549 q 758 490 758 511 l 758 490 q 717 231 758 344 q 592 51 676 117 q 379 -14 508 -14 z m 624 665 l 624 665 q 544 885 606 808 q 396 963 483 963 l 396 963 q 306 932 336 963 q 276 849 276 901 l 276 849 q 310 756 276 797 q 419 691 343 715 q 624 665 496 667 z "},"ϕ":{"ha":1007,"x_min":75,"x_max":931,"o":"m 563 -333 l 443 -333 l 443 -11 q 250 47 333 -1 q 121 177 167 94 q 75 372 75 260 l 75 372 q 173 642 75 542 q 447 756 271 742 l 447 756 l 447 1056 l 563 1056 l 563 756 q 756 697 674 746 q 885 567 839 649 q 931 372 931 485 l 931 372 q 833 104 931 204 q 563 -11 735 4 l 563 -11 l 563 -333 z m 447 89 l 447 89 l 447 654 q 261 570 319 642 q 203 372 203 499 l 203 372 q 262 174 203 246 q 447 89 321 101 z m 563 653 l 563 89 q 746 175 688 103 q 804 372 804 247 l 804 372 q 745 568 804 497 q 563 653 686 639 l 563 653 z "},"ϖ":{"ha":1189,"x_min":15,"x_max":1146,"o":"m 385 -14 l 385 -14 q 188 66 257 -14 q 119 308 119 146 l 119 308 q 143 476 119 390 q 206 643 167 563 l 206 643 l 15 643 l 15 696 l 113 744 l 1146 744 l 1146 643 l 975 643 q 1031 476 1011 563 q 1051 308 1051 390 l 1051 308 q 983 66 1051 146 q 785 -14 914 -14 l 785 -14 q 588 111 635 -14 l 588 111 l 582 111 q 385 -14 533 -14 z m 393 88 l 393 88 q 493 139 460 88 q 526 268 526 190 l 526 268 l 526 392 l 644 392 l 644 268 q 681 135 644 182 q 778 88 717 88 l 778 88 q 888 138 847 88 q 928 315 928 188 l 928 315 q 909 482 928 397 q 856 643 890 567 l 856 643 l 325 643 q 267 484 292 571 q 242 315 242 397 l 242 315 q 283 137 242 186 q 393 88 324 88 z "},"ϰ":{"ha":910,"x_min":0,"x_max":896,"o":"m 807 -14 l 807 -14 q 646 64 703 -14 q 589 306 589 142 l 589 306 q 594 396 589 349 q 614 486 600 443 l 614 486 l 233 0 l 108 0 q 157 122 133 51 q 195 274 181 192 q 210 444 210 357 l 210 444 q 173 609 210 561 q 88 657 136 657 l 88 657 q 56 653 69 657 q 33 646 43 650 l 33 646 l 0 742 q 45 753 19 749 q 106 758 71 758 l 106 758 q 273 681 214 758 q 332 439 332 604 l 332 439 q 326 349 332 396 q 307 258 321 303 l 307 258 l 692 744 l 814 744 q 765 623 789 693 q 726 470 742 553 q 711 300 711 388 l 711 300 q 745 133 711 178 q 835 88 779 88 l 835 88 q 869 91 851 88 q 896 99 886 94 l 896 99 l 896 3 q 856 -9 878 -4 q 807 -14 835 -14 z "},"ϱ":{"ha":840,"x_min":76,"x_max":764,"o":"m 621 -333 l 514 -333 q 519 -301 519 -317 l 519 -301 q 512 -280 519 -287 q 477 -269 504 -272 q 393 -265 450 -265 l 393 -265 q 213 -219 283 -265 q 110 -62 143 -174 q 76 247 76 50 l 76 247 q 167 623 76 488 q 442 758 257 758 l 442 758 q 609 714 536 758 q 723 583 682 669 q 764 372 764 497 l 764 372 q 676 85 764 183 q 435 -14 588 -14 l 435 -14 q 344 -5 381 -14 q 277 23 307 4 q 214 72 247 42 l 214 72 l 207 72 q 241 -76 218 -25 q 306 -146 264 -128 q 411 -164 347 -164 l 411 -164 q 552 -174 504 -164 q 617 -205 600 -183 q 635 -265 635 -226 l 635 -265 q 631 -299 635 -285 q 621 -333 628 -314 l 621 -333 z m 433 88 l 433 88 q 591 160 543 88 q 639 372 639 232 l 639 372 q 591 586 639 515 q 436 657 543 657 l 436 657 q 267 562 331 657 q 200 249 203 467 l 200 249 q 201 212 200 226 q 203 174 201 197 l 203 174 q 310 107 260 126 q 433 88 361 88 z "},"ϵ":{"ha":688,"x_min":76,"x_max":640,"o":"m 431 -14 l 431 -14 q 248 26 328 -14 q 122 150 168 65 q 76 368 76 235 l 76 368 q 124 593 76 507 q 252 719 171 679 q 435 758 333 758 l 435 758 q 547 747 492 758 q 640 718 601 736 l 640 718 l 604 618 q 519 643 565 633 q 432 653 472 653 l 432 653 q 269 599 325 653 q 203 433 214 544 l 203 433 l 568 433 l 568 333 l 201 333 q 264 150 208 210 q 428 90 319 90 l 428 90 q 539 103 490 90 q 629 132 588 115 l 629 132 l 629 26 q 543 -3 590 7 q 431 -14 496 -14 z "},"프":{"ha":958,"x_min":42,"x_max":917,"o":"m 307 -37 l 307 -37 l 286 -17 q 306 7 306 3 l 306 7 q 289 31 306 13 q 246 71 272 49 q 191 115 219 93 q 138 151 163 138 q 101 165 114 165 l 101 165 q 54 156 83 165 l 54 156 l 44 186 q 376 351 272 251 q 479 615 479 451 l 479 615 q 423 813 479 740 q 268 885 367 885 l 268 885 q 174 857 217 885 q 106 781 131 829 q 81 668 81 732 l 81 668 q 135 516 81 575 q 293 438 189 457 l 293 438 l 283 408 q 105 500 168 425 q 42 693 42 575 l 42 693 q 76 856 42 785 q 171 967 111 926 q 306 1007 231 1007 l 306 1007 q 447 965 386 1007 q 544 846 508 922 q 579 668 579 769 l 579 668 q 498 422 579 529 q 249 228 417 314 l 249 228 l 379 117 q 439 89 411 89 l 439 89 q 528 122 464 89 l 528 122 q 600 165 560 139 q 688 226 640 190 l 688 226 l 688 799 q 674 925 688 868 l 674 925 l 699 933 l 722 860 q 753 934 729 900 q 814 989 778 968 q 892 1010 850 1010 l 892 1010 l 892 983 q 797 783 797 939 l 797 783 l 797 225 q 805 165 797 186 q 835 143 813 143 l 835 143 q 897 175 857 143 l 897 175 l 917 156 q 826 51 865 99 q 758 -37 786 3 l 758 -37 l 733 -29 q 739 -3 739 -12 l 739 -3 q 731 17 739 7 l 731 17 q 699 80 708 42 q 689 186 689 118 l 689 186 q 590 121 644 153 q 472 57 536 89 l 472 57 q 367 1 408 25 q 307 -37 325 -24 z "},"픅":{"ha":1132,"x_min":49,"x_max":1083,"o":"m 558 -32 l 558 -32 q 489 -8 521 -32 l 489 -8 q 445 22 475 1 q 377 68 415 43 q 299 116 339 93 q 224 154 258 139 q 168 169 189 169 l 168 169 q 112 150 135 169 q 89 101 89 131 l 89 101 q 100 57 89 88 l 100 57 l 75 42 q 58 101 58 71 l 58 101 q 101 198 58 158 q 215 247 144 238 l 215 247 q 313 274 263 254 q 407 328 364 294 q 474 406 450 361 l 474 406 q 510 572 510 474 l 510 572 q 443 815 510 729 q 267 901 376 901 l 267 901 q 175 876 217 901 q 108 808 133 851 q 82 707 82 764 l 82 707 q 113 590 82 643 q 194 502 143 536 q 308 464 246 468 l 308 464 l 299 432 q 167 481 224 442 q 80 581 111 519 q 49 717 49 642 l 49 717 q 84 867 49 801 q 180 969 119 932 q 315 1007 240 1007 l 315 1007 q 569 850 476 1007 l 569 850 q 643 889 606 869 q 718 926 681 908 l 718 926 q 864 1010 792 964 l 864 1010 l 883 988 q 864 958 864 972 l 864 958 q 870 938 864 953 q 886 904 876 924 l 886 904 q 919 848 900 878 q 956 796 938 818 l 956 796 q 999 760 983 760 l 999 760 q 1029 769 1011 760 l 1029 769 l 1043 746 l 826 614 q 1016 513 949 589 q 1083 328 1083 436 l 1083 328 q 1023 144 1083 226 q 828 15 963 61 l 828 15 q 693 -19 760 -7 q 558 -32 626 -32 z m 625 539 l 625 539 q 738 600 690 574 q 818 646 785 626 l 818 646 q 886 693 886 686 l 886 693 q 873 721 886 699 q 840 772 860 743 q 799 828 821 800 q 762 874 778 856 q 740 893 746 893 l 740 893 q 583 819 711 893 l 583 819 q 629 608 629 711 l 629 608 q 625 539 629 576 z m 733 32 l 733 32 q 858 63 803 32 q 944 149 913 94 q 976 271 976 203 l 976 271 q 940 402 976 346 q 841 490 904 458 q 697 522 778 522 l 697 522 q 619 508 657 522 l 619 508 q 581 394 607 436 q 508 322 554 351 l 508 322 q 433 288 485 308 q 303 240 382 267 l 303 240 q 450 158 376 211 l 450 158 q 592 69 524 106 q 733 32 661 32 z "},"ℭ":{"ha":885,"x_min":49,"x_max":843,"o":"m 532 -33 l 532 -33 q 276 37 385 -33 q 108 237 167 107 q 49 544 49 367 l 49 544 q 84 790 49 686 q 184 951 119 894 q 338 1008 249 1008 l 338 1008 q 428 981 386 1008 q 483 910 469 954 l 483 910 q 513 944 500 928 q 536 969 526 960 l 536 969 q 565 1000 556 992 q 585 1008 575 1008 l 585 1008 q 619 998 596 1008 q 685 967 643 988 l 685 967 q 738 942 717 951 q 771 933 760 933 l 771 933 q 817 958 792 933 l 817 958 l 839 942 l 768 850 q 747 828 754 833 q 733 824 740 824 l 733 824 q 694 838 724 824 q 628 872 665 853 l 628 872 q 579 895 596 889 q 550 901 563 901 l 550 901 q 476 849 522 901 l 476 849 q 415 751 415 779 l 415 751 q 422 722 415 740 q 450 664 428 704 q 518 540 472 624 l 518 540 q 580 426 560 467 q 606 366 600 386 q 613 332 613 346 l 613 332 q 603 296 613 317 q 556 229 594 275 l 556 229 q 508 177 536 207 q 442 107 481 147 l 442 107 q 557 93 496 93 l 557 93 q 698 111 631 93 q 825 167 765 129 l 825 167 l 843 143 l 638 -26 q 591 -31 618 -29 q 532 -33 564 -33 z m 149 606 l 149 606 q 214 292 149 415 q 400 121 279 168 l 400 121 q 467 206 446 172 q 496 259 489 239 q 503 292 503 279 l 503 292 q 494 339 503 313 q 458 414 486 365 l 458 414 l 347 611 q 320 664 325 650 q 315 688 315 678 l 315 688 q 351 751 315 706 l 351 751 q 397 807 367 769 q 461 883 428 844 l 461 883 q 415 952 447 928 q 340 976 382 976 l 340 976 q 203 881 258 976 q 149 606 149 786 z "},"픇":{"ha":1115,"x_min":49,"x_max":1067,"o":"m 651 -32 l 651 -32 q 483 36 585 -32 l 483 36 l 335 138 q 232 176 278 176 l 232 176 q 119 128 183 176 l 119 128 l 103 147 q 311 261 217 261 l 311 261 q 356 257 335 261 l 356 257 q 483 357 483 310 l 483 357 q 467 408 483 372 q 415 496 451 444 l 415 496 l 378 550 q 332 624 347 594 q 317 672 317 653 l 317 672 q 358 752 317 714 q 475 818 400 790 q 649 856 550 846 l 649 856 q 333 942 486 942 l 333 942 q 201 911 258 942 q 113 827 144 881 q 81 704 81 774 l 81 704 q 207 526 81 574 l 207 526 l 196 497 q 49 713 49 553 l 49 713 q 95 883 49 808 q 223 1002 142 958 q 408 1046 304 1046 l 408 1046 q 626 1007 521 1046 q 819 895 731 968 q 971 719 908 822 l 971 719 q 1067 406 1067 565 l 1067 406 q 1008 180 1067 275 q 839 26 949 85 l 839 26 q 651 -32 731 -32 z m 747 56 l 747 56 q 876 92 818 56 q 970 188 935 128 q 1006 318 1006 247 l 1006 318 q 926 588 1006 453 q 690 829 847 722 l 690 829 q 615 820 660 828 q 529 798 571 813 q 459 762 488 783 q 431 713 431 740 l 431 713 q 457 647 431 686 l 457 647 l 525 544 q 601 386 601 431 l 601 386 q 485 283 601 343 l 485 283 l 396 238 q 445 208 421 224 q 494 175 469 193 l 494 175 q 544 140 522 156 q 585 113 567 125 l 585 113 q 667 69 631 83 q 747 56 703 56 z "},"픈":{"ha":885,"x_min":49,"x_max":843,"o":"m 468 192 l 468 192 q 299 332 346 192 l 299 332 l 331 343 q 383 256 350 288 q 468 224 417 224 l 468 224 q 552 258 525 224 q 579 338 579 292 l 579 338 q 562 426 579 378 q 511 517 544 474 l 511 517 l 413 649 q 370 709 382 690 q 358 738 358 728 l 358 738 q 367 764 358 749 q 394 804 375 779 l 394 804 q 424 840 406 818 q 461 883 442 861 l 461 883 q 415 952 447 928 q 340 976 382 976 l 340 976 q 203 881 258 976 q 149 606 149 786 l 149 606 q 256 226 149 360 q 557 93 364 93 l 557 93 q 698 111 631 93 q 825 167 765 129 l 825 167 l 843 143 l 638 -26 q 591 -31 618 -29 q 532 -33 564 -33 l 532 -33 q 276 37 385 -33 q 108 237 167 107 q 49 544 49 367 l 49 544 q 84 790 49 686 q 184 951 119 894 q 338 1008 249 1008 l 338 1008 q 428 981 386 1008 q 483 910 469 954 l 483 910 q 513 944 499 928 q 535 969 526 960 l 535 969 q 565 1000 554 992 q 585 1008 575 1008 l 585 1008 q 658 985 601 1008 l 658 985 q 705 968 685 975 q 746 961 725 961 l 746 961 q 792 992 769 961 l 792 992 l 815 978 l 760 878 q 742 855 750 861 q 724 849 733 849 l 724 849 q 683 858 713 849 q 614 886 654 868 l 614 886 q 544 907 567 907 l 544 907 q 489 869 518 907 l 489 869 q 464 831 469 844 q 458 804 458 818 l 458 804 q 468 774 458 794 q 513 706 478 753 l 513 706 l 586 604 l 621 632 q 671 680 654 660 q 697 722 688 700 l 697 722 l 724 722 q 760 676 742 694 q 818 643 779 657 l 818 643 l 818 617 q 753 543 774 586 l 753 543 l 726 543 q 697 581 713 567 q 646 613 681 596 l 646 613 l 604 579 q 657 499 642 526 q 672 461 672 471 l 672 461 q 668 447 672 456 q 651 422 664 438 l 651 422 q 628 383 635 401 q 618 338 621 365 l 618 338 q 567 226 608 261 q 468 192 526 192 z "},"픉":{"ha":888,"x_min":35,"x_max":846,"o":"m 425 -267 l 425 -267 q 281 -235 344 -267 q 179 -151 217 -204 q 142 -32 142 -99 l 142 -32 q 167 65 142 17 q 233 153 193 114 l 233 153 q 274 231 274 192 l 274 231 q 256 276 274 258 q 208 294 238 294 l 208 294 q 136 240 161 294 l 136 240 l 107 253 q 208 326 144 326 l 208 326 q 288 292 256 326 q 319 204 319 257 l 319 204 q 292 108 319 156 q 232 15 264 60 l 232 15 q 209 -28 217 -6 q 201 -72 201 -51 l 201 -72 q 230 -152 201 -115 q 308 -211 258 -189 q 422 -233 358 -233 l 422 -233 q 566 -181 510 -233 q 622 -36 622 -129 l 622 -36 q 591 90 622 26 q 510 221 560 153 l 510 221 q 403 357 463 283 l 403 357 q 335 461 357 414 q 314 547 314 508 l 314 547 q 367 696 314 610 q 528 874 419 782 l 528 874 q 290 931 393 931 l 290 931 q 131 874 193 931 q 68 729 68 817 l 68 729 q 183 578 68 624 l 183 578 l 172 547 q 35 735 35 604 l 35 735 q 78 878 35 814 q 198 981 122 943 q 367 1018 274 1018 l 367 1018 q 731 910 531 1018 l 731 910 q 762 894 749 900 q 783 889 775 889 l 783 889 q 826 919 800 889 l 826 919 l 846 899 l 733 786 q 721 777 726 779 q 711 775 715 775 l 711 775 q 685 785 703 775 q 646 807 667 794 l 646 807 q 603 834 626 819 q 558 860 579 849 l 558 860 q 404 619 404 731 l 404 619 q 482 450 404 549 l 482 450 q 604 565 575 514 l 604 565 l 631 565 q 724 514 656 522 l 724 514 l 724 482 q 656 413 683 468 l 656 413 l 626 413 q 558 456 593 456 l 558 456 q 503 425 542 456 l 503 425 q 639 247 604 299 l 639 247 q 697 143 675 194 q 718 35 718 92 l 718 35 q 681 -122 718 -54 q 578 -228 644 -190 q 425 -267 513 -267 z "},"픊":{"ha":1018,"x_min":49,"x_max":969,"o":"m 561 -32 l 561 -32 q 290 36 406 -32 q 112 228 175 104 q 49 518 49 351 l 49 518 q 94 773 49 663 q 220 945 140 883 q 403 1007 300 1007 l 403 1007 q 500 989 456 1007 l 500 989 l 549 1029 l 567 1011 q 549 994 557 1004 q 533 974 540 985 l 533 974 q 611 924 579 950 l 611 924 l 592 897 q 514 947 561 928 l 514 947 q 492 889 492 914 l 492 889 q 535 774 492 856 l 535 774 q 578 647 578 693 l 578 647 q 524 517 578 611 l 524 517 q 608 564 564 549 l 608 564 q 713 608 657 581 q 799 675 768 636 l 799 675 q 832 753 832 717 l 832 753 q 803 811 832 785 l 803 811 l 725 885 q 704 913 704 904 l 704 913 q 726 947 704 924 l 726 947 l 788 1013 l 807 997 q 801 988 804 992 q 799 981 799 983 l 799 981 q 869 893 799 964 l 869 893 q 915 851 904 858 q 931 843 926 843 l 931 843 q 949 847 939 843 l 949 847 l 961 832 q 917 788 940 815 q 869 721 894 761 l 869 721 q 821 655 844 682 q 778 610 797 628 l 778 610 q 919 495 869 568 q 969 332 969 422 l 969 332 q 919 142 969 224 q 776 14 868 60 q 561 -32 685 -32 z m 358 460 l 358 460 q 438 488 407 460 q 469 569 469 517 l 469 569 q 428 710 469 621 l 428 710 q 385 819 385 803 l 385 819 q 403 874 385 844 q 464 951 422 904 l 464 951 l 475 964 q 414 972 444 972 l 414 972 q 230 875 293 972 q 167 592 167 778 l 167 592 l 167 586 q 358 460 276 460 z m 576 -1 l 576 -1 q 724 33 660 -1 q 824 126 788 67 q 861 260 861 185 l 861 260 q 830 397 861 338 q 748 492 799 457 q 636 526 697 526 l 636 526 q 593 522 614 526 q 550 501 572 517 l 550 501 q 466 450 511 475 q 369 425 421 425 l 369 425 q 168 538 272 425 l 168 538 q 302 135 196 272 q 576 -1 408 -1 z "},"ℌ":{"ha":975,"x_min":42,"x_max":926,"o":"m 253 176 l 253 176 q 185 192 222 176 q 114 233 149 207 l 114 233 q 85 244 99 244 l 85 244 q 61 238 74 244 l 61 238 l 42 260 l 147 358 q 185 294 158 324 q 245 246 213 264 q 306 228 278 228 l 306 228 q 359 253 338 228 q 381 307 381 278 l 381 307 q 366 383 381 331 q 311 521 351 435 l 311 521 q 241 676 263 628 q 219 738 219 725 l 219 738 q 256 804 219 756 l 256 804 q 297 859 272 826 q 347 922 322 892 q 385 969 371 953 l 385 969 q 419 1000 404 992 q 440 1008 433 1008 l 440 1008 q 467 1000 447 1008 q 514 978 488 992 l 514 978 q 554 960 542 964 q 582 956 567 956 l 582 956 q 644 996 610 956 l 644 996 l 665 976 q 620 920 642 946 q 578 874 599 894 l 578 874 q 553 854 563 858 q 533 850 544 850 l 533 850 q 504 859 524 850 q 457 882 485 868 l 457 882 q 393 907 407 907 l 393 907 q 374 901 385 907 q 349 872 364 894 l 349 872 q 319 804 319 832 l 319 804 q 328 764 319 788 q 358 690 336 740 l 358 690 l 386 632 q 464 683 424 661 q 536 719 504 706 l 536 719 q 605 759 579 739 q 633 793 631 779 l 633 793 l 667 793 q 693 765 668 779 l 693 765 l 719 751 q 874 607 821 699 q 926 401 926 515 l 926 401 q 891 220 926 308 q 791 70 856 132 q 639 -8 726 8 l 639 -8 l 546 -26 q 468 -44 488 -37 q 439 -57 449 -50 l 439 -57 l 407 -50 q 411 -28 411 -37 l 411 -28 q 392 8 411 -4 q 343 21 374 21 l 343 21 q 266 -12 293 21 q 239 -93 239 -46 l 239 -93 q 273 -182 239 -149 q 358 -215 307 -215 l 358 -215 q 429 -195 397 -215 q 476 -135 461 -175 l 476 -135 l 508 -146 q 451 -220 490 -193 q 358 -247 411 -247 l 358 -247 q 247 -204 290 -247 q 204 -93 204 -161 l 204 -93 q 249 17 204 -24 q 354 72 293 57 l 354 72 q 410 93 381 79 q 449 122 439 107 l 449 122 l 481 110 q 475 90 475 100 l 475 90 q 490 67 476 78 q 526 40 503 56 l 526 40 l 569 13 q 699 65 643 22 q 785 178 754 108 q 817 338 817 249 l 817 338 q 780 514 817 440 q 687 627 743 588 q 571 667 631 667 l 571 667 q 492 651 536 667 q 401 600 447 636 l 401 600 l 431 538 q 473 423 465 461 q 481 371 481 385 l 481 371 q 457 300 481 335 q 397 238 433 265 q 322 193 361 210 q 253 176 283 176 z "},"ℑ":{"ha":806,"x_min":42,"x_max":764,"o":"m 260 599 l 251 567 q 110 636 160 582 q 60 765 60 690 l 60 765 q 100 885 60 838 q 201 958 140 932 q 319 994 261 985 l 319 994 q 344 1015 344 999 l 344 1015 l 375 1015 q 415 979 375 1003 l 415 979 l 532 913 q 601 876 574 889 q 644 863 629 863 l 644 863 q 674 871 658 863 q 701 889 689 879 q 713 903 713 899 l 713 903 q 693 913 701 903 q 685 933 685 922 l 685 933 q 697 961 685 951 q 724 971 708 971 l 724 971 q 753 959 743 971 q 764 928 764 947 l 764 928 q 737 878 764 904 q 672 831 710 853 q 600 796 635 810 q 550 782 565 782 l 550 782 q 511 793 533 782 q 461 821 489 804 l 461 821 l 383 867 q 317 898 350 886 q 250 910 285 910 l 250 910 q 171 890 207 910 q 113 838 135 871 q 92 765 92 806 l 92 765 q 136 656 92 703 q 260 599 181 610 l 260 599 z m 304 -29 l 304 -29 l 276 -17 q 242 92 276 54 q 167 129 208 129 l 167 129 q 113 111 139 129 q 71 50 86 93 l 71 50 l 42 58 q 99 149 58 124 q 192 175 140 175 l 192 175 q 221 173 207 175 q 247 168 235 171 l 247 168 q 271 164 260 165 q 292 163 282 163 l 292 163 q 329 175 311 163 l 329 175 l 353 163 q 351 150 351 158 l 351 150 q 388 71 351 104 q 493 38 425 38 l 493 38 q 606 74 564 38 q 647 164 647 111 l 647 164 q 642 201 647 181 q 619 256 636 221 q 568 353 601 292 l 568 353 q 499 498 518 446 q 479 574 479 550 l 479 574 q 498 635 479 603 q 547 699 517 668 q 610 749 576 729 l 610 749 q 690 775 654 775 l 690 775 q 738 762 718 775 q 757 724 757 749 l 757 724 q 748 699 757 708 q 726 689 739 689 l 726 689 q 692 711 700 689 l 692 711 q 668 735 682 735 l 668 735 q 613 712 642 735 q 583 642 583 689 l 583 642 q 590 602 583 625 q 614 539 596 579 q 667 431 632 499 l 667 431 q 720 324 703 363 q 744 265 738 286 q 750 229 750 244 l 750 229 q 726 156 750 197 q 669 79 703 114 q 607 28 636 44 l 607 28 q 508 -1 564 4 q 363 -7 453 -7 l 363 -7 q 304 -29 326 -7 z "},"픍":{"ha":804,"x_min":42,"x_max":756,"o":"m 251 596 l 243 564 q 101 633 151 579 q 51 763 51 688 l 51 763 q 92 882 51 835 q 192 956 132 929 q 311 992 253 982 l 311 992 q 336 1013 336 996 l 336 1013 l 367 1013 q 407 976 367 1000 l 407 976 l 524 910 q 593 873 565 886 q 636 860 621 860 l 636 860 q 665 868 650 860 q 692 886 681 876 q 704 900 704 896 l 704 900 q 685 910 693 900 q 676 931 676 919 l 676 931 q 688 958 676 949 q 715 968 700 968 l 715 968 q 745 956 735 968 q 756 925 756 944 l 756 925 q 728 876 756 901 q 664 828 701 850 q 592 793 626 807 q 542 779 557 779 l 542 779 q 503 790 525 779 q 453 818 481 801 l 453 818 l 375 864 q 309 895 342 883 q 242 907 276 907 l 242 907 q 163 888 199 907 q 105 835 126 868 q 83 763 83 803 l 83 763 q 128 653 83 700 q 251 596 172 607 l 251 596 z m 313 -228 l 313 -228 l 285 -215 q 246 -108 285 -150 q 158 -65 207 -65 l 158 -65 q 71 -135 97 -65 l 71 -135 l 42 -126 q 182 -18 79 -18 l 182 -18 q 238 -25 207 -18 l 238 -25 q 282 -31 261 -31 l 282 -31 q 319 -18 301 -31 l 319 -18 l 343 -31 q 342 -43 342 -35 l 342 -43 q 363 -102 342 -74 q 418 -149 383 -131 q 494 -167 453 -167 l 494 -167 q 608 -130 565 -167 q 650 -32 650 -93 l 650 -32 q 642 28 650 -6 q 617 104 635 63 l 617 104 q 583 185 603 138 q 542 288 564 233 q 503 392 521 342 q 473 483 485 443 q 461 542 461 524 l 461 542 q 481 622 461 582 q 533 694 501 661 q 599 747 565 728 l 599 747 q 679 774 643 774 l 679 774 q 726 760 707 774 q 746 722 746 747 l 746 722 q 737 697 746 707 q 715 688 728 688 l 715 688 q 681 710 689 688 l 681 710 q 657 733 671 733 l 657 733 q 600 708 631 733 q 569 621 569 682 l 569 621 q 578 547 569 585 q 604 469 588 510 l 604 469 l 686 271 q 756 42 756 103 l 756 42 q 726 -51 756 -3 q 655 -137 697 -100 q 571 -187 613 -175 l 571 -187 q 371 -206 511 -206 l 371 -206 q 313 -228 335 -206 z "},"픎":{"ha":1003,"x_min":42,"x_max":954,"o":"m 86 -32 l 86 -32 l 63 -12 q 71 29 71 8 l 71 29 q 42 126 71 93 l 42 126 l 63 153 q 114 142 83 142 l 114 142 q 183 165 160 142 l 183 165 l 208 149 q 193 88 193 114 l 193 88 q 217 24 193 47 q 286 0 242 0 l 286 0 q 394 128 394 0 l 394 128 q 369 272 394 193 q 286 442 343 351 l 286 442 l 225 538 q 172 631 190 594 q 153 686 153 668 l 153 686 q 188 788 153 732 q 284 894 224 843 q 422 977 344 944 q 583 1010 499 1010 l 583 1010 q 728 985 661 1010 q 847 920 796 961 q 926 827 897 879 q 954 721 954 775 l 954 721 q 908 674 954 674 l 908 674 q 882 685 893 674 l 882 685 q 886 708 885 696 q 888 732 888 721 l 888 732 q 847 851 888 796 q 737 942 806 907 q 585 976 668 976 l 585 976 q 429 942 501 976 q 313 854 357 908 q 268 736 268 800 l 268 736 q 307 632 268 703 l 307 632 q 357 543 326 596 q 431 419 388 490 l 431 419 l 389 574 q 379 632 379 607 l 379 632 q 402 701 379 674 q 463 749 425 729 q 547 788 501 769 l 547 788 q 588 808 568 796 q 618 836 607 819 l 618 836 l 646 836 q 697 753 672 789 q 743 693 721 717 l 743 693 q 800 644 788 646 l 800 644 l 800 615 q 733 573 775 601 q 629 504 690 544 l 629 504 q 679 451 661 494 l 679 451 q 742 289 700 404 l 742 289 q 778 190 763 231 q 807 124 794 149 l 807 124 q 865 74 832 74 l 865 74 q 915 90 886 74 l 915 90 l 933 68 l 822 -28 q 808 -29 817 -29 l 808 -29 q 762 -10 782 -29 q 727 36 742 10 q 703 81 713 63 l 703 81 q 674 144 689 110 q 647 214 660 179 l 647 214 l 606 331 q 533 438 569 438 l 533 438 q 449 388 511 438 l 449 388 q 485 203 485 294 l 485 203 q 433 28 485 88 q 289 -32 381 -32 l 289 -32 q 244 -30 265 -32 q 203 -22 222 -28 l 203 -22 q 135 -11 163 -11 l 135 -11 q 86 -32 111 -11 z m 415 589 l 458 436 l 650 558 q 674 589 674 574 l 674 589 q 659 620 674 597 q 623 669 644 643 q 579 715 601 696 q 540 735 557 735 l 540 735 q 485 719 515 735 q 432 678 454 703 q 410 626 410 654 l 410 626 q 412 607 410 617 q 415 589 414 597 l 415 589 z "},"픏":{"ha":760,"x_min":42,"x_max":711,"o":"m 511 -32 l 511 -32 q 299 35 435 -32 l 299 35 q 132 101 164 101 l 132 101 q 104 83 118 101 l 104 83 l 65 29 l 42 43 q 88 127 69 92 q 115 186 106 163 l 115 186 q 134 221 126 210 q 156 232 142 232 l 156 232 q 183 226 167 232 q 215 214 200 221 l 215 214 q 304 325 304 257 l 304 325 q 272 413 304 361 q 199 517 239 464 l 199 517 q 128 622 158 569 q 97 714 97 675 l 97 714 q 121 817 97 764 q 188 917 144 871 q 292 990 232 963 q 428 1018 353 1018 l 428 1018 q 571 985 510 1018 q 667 894 632 951 q 701 764 701 838 l 701 764 q 690 688 701 718 l 690 688 q 679 640 679 654 l 679 640 q 688 621 679 629 l 688 621 l 669 599 q 651 603 661 601 q 624 606 642 606 l 624 606 q 554 581 581 606 q 528 526 528 557 l 528 526 q 547 486 528 503 q 599 469 567 469 l 599 469 q 664 486 631 469 l 664 486 l 674 456 q 600 439 635 439 l 600 439 q 518 467 547 439 q 489 542 489 494 l 489 542 q 496 596 489 567 q 521 656 503 625 l 521 656 l 514 674 l 536 688 q 569 683 551 683 l 569 683 q 631 712 604 683 q 658 788 658 740 l 658 788 q 594 931 658 875 q 428 986 529 986 l 428 986 q 264 933 328 986 q 200 796 200 879 l 200 796 q 211 740 200 769 q 242 678 222 710 l 242 678 q 295 597 267 639 q 353 515 324 556 l 353 515 q 406 383 406 440 l 406 383 q 246 200 406 285 l 246 200 q 438 113 357 146 q 558 81 518 81 l 558 81 q 585 83 572 81 q 608 94 597 86 l 608 94 q 640 124 621 103 q 685 181 658 146 l 685 181 l 711 163 q 646 81 686 128 q 550 -26 606 35 l 550 -26 q 533 -30 543 -28 q 511 -32 522 -32 z "},"픐":{"ha":1382,"x_min":49,"x_max":1333,"o":"m 343 -32 l 317 -32 l 317 -26 q 299 1 317 -14 q 258 28 281 17 q 225 40 236 40 l 225 40 q 172 -4 213 40 l 172 -4 l 150 11 q 225 115 200 85 l 225 115 q 268 147 249 147 l 268 147 q 296 140 276 147 q 365 101 315 132 l 365 101 l 400 81 q 481 221 457 135 q 506 433 506 307 l 506 433 q 440 784 506 664 q 267 904 374 904 l 267 904 q 134 852 183 904 q 85 714 85 800 l 85 714 q 132 563 85 625 q 263 478 179 500 l 263 478 l 249 449 q 101 548 153 476 q 49 719 49 619 l 49 719 q 83 866 49 801 q 177 969 118 931 q 308 1007 236 1007 l 308 1007 q 436 973 383 1007 q 522 882 489 939 l 522 882 q 587 990 544 953 q 682 1026 629 1026 l 682 1026 q 808 978 758 1026 q 883 856 857 929 l 883 856 q 963 972 913 936 q 1096 1008 1013 1008 l 1096 1008 q 1260 941 1206 1008 q 1314 726 1314 874 l 1314 726 l 1314 706 l 1328 706 l 1328 674 q 1228 645 1264 664 q 1178 591 1192 626 q 1164 493 1164 556 l 1164 493 l 1164 165 q 1171 134 1164 146 q 1193 108 1178 122 l 1193 108 q 1222 87 1208 96 q 1242 78 1235 78 l 1242 78 q 1317 122 1254 78 l 1317 122 l 1333 101 l 1193 -31 l 1165 -31 q 1155 -10 1164 -19 q 1133 7 1146 -1 l 1133 7 l 1089 38 q 1054 117 1054 61 l 1054 117 l 1054 458 q 1065 540 1054 508 q 1106 599 1076 572 l 1106 599 q 1206 667 1142 631 l 1206 667 l 1206 696 q 1169 876 1206 825 q 1047 926 1132 926 l 1047 926 q 897 815 936 926 l 897 815 q 922 688 915 754 q 929 564 929 622 l 929 564 q 902 352 929 451 q 811 150 875 253 l 811 150 q 675 -32 757 61 l 675 -32 l 649 -32 l 649 -26 q 630 1 649 -14 q 589 28 611 17 q 556 40 567 40 l 556 40 q 504 -4 546 40 l 504 -4 l 482 11 q 558 117 532 85 l 558 117 q 597 147 583 147 l 597 147 q 625 140 606 147 q 696 101 644 132 l 696 101 l 729 82 q 825 454 825 236 l 825 454 q 769 804 825 664 l 769 804 q 636 944 713 944 l 636 944 q 543 842 558 944 l 543 842 q 588 687 575 772 q 601 517 601 601 l 601 517 q 572 310 601 401 q 496 150 542 219 l 496 150 q 448 86 478 122 q 390 18 418 50 q 343 -32 361 -14 l 343 -32 z "},"픑":{"ha":1058,"x_min":42,"x_max":1010,"o":"m 83 -32 l 83 -32 l 63 -14 q 69 10 65 -6 q 72 46 72 25 l 72 46 q 64 89 72 68 q 42 125 56 110 l 42 125 l 61 151 q 118 139 85 139 l 118 139 q 183 164 158 139 l 183 164 l 207 147 q 192 85 192 113 l 192 85 q 219 22 192 44 q 294 0 246 0 l 294 0 q 442 111 388 0 l 442 111 q 482 250 469 167 q 494 443 494 333 l 494 443 q 429 785 494 671 q 253 899 364 899 l 253 899 q 130 847 179 899 q 81 710 81 796 l 81 710 q 128 562 81 625 q 258 478 175 499 l 258 478 l 244 449 q 97 548 149 476 q 46 719 46 619 l 46 719 q 80 864 46 799 q 171 968 114 929 q 296 1007 228 1007 l 296 1007 q 549 817 479 1007 l 549 817 q 626 963 572 917 q 772 1008 679 1008 l 772 1008 q 935 941 881 1008 q 989 726 989 874 l 989 726 l 989 706 l 1004 706 l 1004 674 q 904 645 940 664 q 854 591 868 626 q 840 493 840 556 l 840 493 l 840 161 q 849 131 840 143 q 879 101 858 119 l 879 101 q 905 83 894 88 q 921 79 915 79 l 921 79 q 993 122 932 79 l 993 122 l 1010 101 l 869 -31 l 842 -31 q 830 -10 840 -19 q 801 11 819 0 l 801 11 l 775 29 q 740 67 749 47 q 731 117 731 86 l 731 117 l 731 458 q 747 552 731 517 q 804 618 763 588 l 804 618 q 839 641 819 629 q 882 667 858 653 l 882 667 l 882 697 q 849 869 882 813 q 724 926 817 926 l 724 926 q 561 778 601 926 l 561 778 q 597 493 597 644 l 597 493 q 557 221 597 339 q 447 35 517 103 q 288 -32 378 -32 l 288 -32 q 247 -31 265 -32 q 206 -24 229 -29 l 206 -24 q 169 -17 186 -19 q 136 -14 153 -14 l 136 -14 q 83 -32 106 -14 z "},"픒":{"ha":1078,"x_min":42,"x_max":1029,"o":"m 506 -32 l 506 -32 q 449 -20 483 -32 q 376 10 414 -8 l 376 10 q 285 57 329 32 q 213 97 240 82 l 213 97 q 170 119 188 113 q 143 125 153 125 l 143 125 q 63 82 118 125 l 63 82 l 42 106 q 96 146 72 128 q 138 178 119 164 l 138 178 q 221 224 199 224 l 221 224 q 317 183 244 224 l 317 183 q 392 142 354 163 q 468 103 431 122 l 468 103 q 544 72 507 85 q 617 58 582 58 l 617 58 q 733 89 674 58 q 843 176 793 119 q 924 309 893 232 q 956 479 956 386 l 956 479 q 898 683 956 604 q 729 796 840 761 l 729 796 q 617 823 674 814 q 504 838 561 832 l 504 838 q 411 863 446 843 q 360 925 376 883 l 360 925 l 313 896 q 219 819 249 857 q 189 742 189 782 l 189 742 q 204 672 189 707 q 254 596 219 636 l 254 596 l 307 532 q 360 461 338 494 q 382 399 382 428 l 382 399 q 330 311 382 347 q 190 275 278 275 l 190 275 q 153 278 171 275 q 122 285 136 281 l 122 285 l 122 317 q 153 310 138 313 q 185 307 169 307 l 185 307 q 269 365 269 307 l 269 365 q 258 400 269 381 q 228 443 247 419 l 228 443 l 136 558 q 101 615 114 586 q 89 679 89 644 l 89 679 q 128 787 89 735 q 225 878 167 839 l 225 878 l 325 943 q 374 987 356 963 q 393 1035 393 1011 l 393 1035 l 419 1035 q 449 989 428 1007 q 513 960 469 971 q 632 940 556 950 l 632 940 q 858 870 775 924 q 985 726 942 817 l 985 726 q 1029 524 1029 633 l 1029 524 q 950 253 1029 376 q 729 49 871 129 l 729 49 q 506 -32 589 -32 z "},"픓":{"ha":949,"x_min":42,"x_max":900,"o":"m 417 -271 l 383 -271 q 360 -112 368 -189 q 351 33 351 -36 l 351 33 l 351 67 q 253 100 281 100 l 253 100 q 188 46 221 100 l 188 46 l 165 60 l 253 235 l 278 229 q 276 217 276 222 l 276 217 q 293 196 276 203 l 293 196 l 350 175 l 350 676 q 204 906 350 906 l 204 906 q 112 867 149 906 q 75 761 75 828 l 75 761 q 113 646 75 694 q 219 581 151 597 l 219 581 l 214 549 q 88 628 135 568 q 42 768 42 688 l 42 768 q 70 888 42 833 q 147 974 99 942 q 253 1007 196 1007 l 253 1007 q 456 779 431 1007 l 456 779 q 743 1010 576 929 l 743 1010 l 760 988 q 731 940 731 961 l 731 940 q 754 868 731 918 l 754 868 q 785 799 767 843 q 824 706 804 756 q 860 610 843 656 q 885 536 876 565 l 885 536 q 897 481 893 506 q 900 436 900 456 l 900 436 q 837 233 900 335 q 682 33 774 131 l 682 33 q 631 -32 636 -17 l 631 -32 l 607 -32 q 569 -7 607 -21 l 569 -7 l 457 32 q 443 -110 453 -35 q 417 -271 433 -186 l 417 -271 z m 661 74 l 661 74 q 680 83 668 74 q 715 118 692 92 l 715 118 q 780 220 751 157 q 808 350 808 283 l 808 350 q 798 422 808 381 q 769 511 788 464 l 769 511 q 726 622 751 564 q 675 731 700 679 l 675 731 q 638 825 650 782 q 624 899 625 868 l 624 899 q 460 733 528 826 l 460 733 l 460 142 l 617 85 q 661 74 647 74 z "},"픔":{"ha":1126,"x_min":42,"x_max":1085,"o":"m 506 -32 l 506 -32 q 449 -20 483 -32 q 376 10 414 -8 l 376 10 q 285 57 329 32 q 213 97 240 82 l 213 97 q 170 119 188 113 q 143 125 153 125 l 143 125 q 63 82 118 125 l 63 82 l 42 106 q 96 146 72 128 q 138 178 119 164 l 138 178 q 221 224 199 224 l 221 224 q 317 183 244 224 l 317 183 q 392 142 354 163 q 468 103 431 122 l 468 103 q 544 72 507 85 q 617 58 582 58 l 617 58 q 733 89 674 58 q 843 176 793 119 q 924 309 893 232 q 956 479 956 386 l 956 479 q 898 683 956 604 q 729 796 840 761 l 729 796 q 617 823 674 814 q 504 838 561 832 l 504 838 q 411 863 446 843 q 360 925 376 883 l 360 925 l 313 896 q 219 819 249 857 q 189 742 189 782 l 189 742 q 204 672 189 707 q 254 596 219 636 l 254 596 l 307 532 q 360 461 338 494 q 382 399 382 428 l 382 399 q 330 311 382 347 q 190 275 278 275 l 190 275 q 153 278 171 275 q 122 285 136 281 l 122 285 l 122 317 q 153 310 138 313 q 185 307 169 307 l 185 307 q 269 365 269 307 l 269 365 q 258 400 269 381 q 228 443 247 419 l 228 443 l 136 558 q 101 615 114 586 q 89 679 89 644 l 89 679 q 128 787 89 735 q 225 878 167 839 l 225 878 l 325 943 q 374 987 356 963 q 393 1035 393 1011 l 393 1035 l 419 1035 q 449 989 428 1007 q 513 960 469 971 q 632 940 556 950 l 632 940 q 858 870 775 924 q 985 726 942 817 l 985 726 q 1029 524 1029 633 l 1029 524 q 950 253 1029 376 q 729 49 871 129 l 729 49 q 506 -32 589 -32 z m 940 -32 l 940 -32 q 919 -28 932 -32 q 881 -12 907 -24 l 881 -12 q 818 10 832 10 l 818 10 q 788 -1 808 10 q 739 -31 767 -11 l 739 -31 l 719 -8 l 836 82 q 870 106 856 97 q 896 114 885 114 l 896 114 q 961 88 910 114 l 961 88 q 983 77 972 82 q 1004 72 994 72 l 1004 72 q 1064 111 1024 72 l 1064 111 l 1085 92 l 981 -7 q 958 -26 967 -21 q 940 -32 949 -32 z "},"ℜ":{"ha":1085,"x_min":42,"x_max":1043,"o":"m 86 -32 l 86 -32 l 63 -11 q 69 12 65 -3 q 72 49 72 26 l 72 49 q 42 128 72 93 l 42 128 l 61 154 q 121 143 82 143 l 121 143 q 183 167 160 143 l 183 167 l 207 150 q 192 88 192 115 l 192 88 q 218 24 192 47 q 289 0 244 0 l 289 0 q 366 31 333 0 q 421 110 399 61 q 456 219 443 160 q 475 335 469 278 q 481 438 481 393 l 481 438 q 419 784 481 669 q 253 899 358 899 l 253 899 q 130 847 179 899 q 81 710 81 796 l 81 710 q 128 562 81 625 q 258 478 175 499 l 258 478 l 244 449 q 97 548 149 476 q 46 719 46 619 l 46 719 q 77 864 46 799 q 167 968 108 929 q 303 1007 225 1007 l 303 1007 q 443 961 388 1007 q 531 838 499 915 l 531 838 q 616 901 576 875 q 688 944 656 926 l 688 944 q 753 983 726 967 q 807 1018 781 1000 l 807 1018 l 824 999 q 807 968 807 986 l 807 968 q 831 923 807 953 q 889 860 856 893 l 889 860 q 938 814 922 826 q 961 801 954 801 l 961 801 q 992 811 974 801 l 992 811 l 1007 788 q 894 706 951 750 q 778 614 836 661 l 778 614 q 813 582 799 606 q 841 507 828 558 q 869 360 854 456 l 869 360 q 897 208 886 258 q 918 136 908 158 l 918 136 q 940 106 929 114 q 963 97 950 97 l 963 97 q 986 104 971 97 q 1022 133 1001 111 l 1022 133 l 1043 115 q 1003 64 1026 88 q 960 21 981 40 l 960 21 q 914 -31 921 -14 l 914 -31 l 886 -31 q 864 1 883 -19 l 864 1 q 826 56 840 28 q 801 129 813 83 q 775 256 790 175 l 775 256 l 749 401 q 722 520 732 492 q 692 549 711 549 l 692 549 q 674 544 685 549 q 642 524 664 539 l 642 524 l 583 485 q 543 210 582 326 q 436 31 504 94 q 281 -32 368 -32 l 281 -32 q 201 -21 242 -32 l 201 -21 q 167 -12 183 -15 q 138 -10 151 -10 l 138 -10 q 86 -32 111 -10 z m 685 897 l 685 897 q 633 877 668 897 q 542 807 599 857 l 542 807 q 572 675 563 747 q 583 524 582 603 l 583 524 q 727 619 657 569 q 858 721 797 668 l 858 721 l 769 824 q 715 883 732 868 q 685 897 699 897 z "},"픖":{"ha":1047,"x_min":49,"x_max":999,"o":"m 569 -32 l 569 -32 q 360 6 456 -32 q 195 112 265 43 q 87 274 125 181 q 49 481 49 368 l 49 481 q 119 741 49 621 q 326 938 189 861 l 326 938 q 560 1013 464 1013 l 560 1013 q 601 1007 581 1013 q 642 988 622 1001 l 642 988 q 684 960 658 976 q 736 929 710 944 l 736 929 q 818 885 778 904 q 881 867 858 867 l 881 867 q 934 885 913 867 q 956 926 956 904 l 956 926 q 944 953 956 946 l 944 953 q 933 976 933 961 l 933 976 q 957 1004 933 1004 l 957 1004 q 989 946 989 1004 l 989 946 q 963 870 989 899 q 868 808 938 842 l 868 808 q 781 775 800 775 l 781 775 q 718 807 761 775 l 718 807 q 631 864 675 839 q 538 910 588 889 l 538 910 q 451 928 496 928 l 451 928 q 327 899 386 928 q 222 817 268 869 q 150 696 176 765 q 124 546 124 626 l 124 546 q 169 352 124 440 q 289 199 214 264 l 289 199 q 435 108 347 149 q 628 68 522 68 l 628 68 q 801 106 725 68 q 922 208 878 143 q 967 356 967 274 l 967 356 q 941 471 967 419 q 874 552 915 522 q 782 582 832 582 l 782 582 q 725 572 758 582 q 632 531 692 561 l 632 531 q 506 467 556 492 q 447 443 456 443 l 447 443 q 432 449 440 443 q 414 464 424 456 l 414 464 l 331 546 q 288 605 303 574 q 272 674 272 636 l 272 674 q 295 757 272 719 q 357 817 318 794 q 442 839 396 839 l 442 839 q 538 812 493 839 q 610 732 582 785 l 610 732 l 583 714 q 524 783 563 758 q 443 807 486 807 l 443 807 q 346 769 386 807 q 306 674 306 732 l 306 674 q 337 595 306 626 q 418 564 368 564 l 418 564 q 478 576 444 564 q 546 607 511 589 q 608 642 581 625 l 608 642 q 678 676 651 667 q 722 685 704 685 l 722 685 q 807 660 760 685 q 898 591 854 635 q 970 488 942 547 q 999 361 999 429 l 999 361 q 943 158 999 247 q 790 19 888 69 q 569 -32 693 -32 z "},"픗":{"ha":906,"x_min":42,"x_max":864,"o":"m 582 -32 l 582 -32 q 501 -3 557 -32 q 386 63 446 26 l 386 63 q 219 165 285 126 q 129 203 153 203 l 129 203 q 64 160 103 203 l 64 160 l 42 175 q 91 243 69 215 q 126 288 113 271 l 126 288 q 175 318 153 318 l 175 318 q 199 311 185 318 q 235 293 214 304 l 235 293 q 369 269 278 269 l 369 269 q 477 294 440 269 q 514 347 514 318 l 514 347 q 460 419 514 382 l 460 419 q 378 482 417 450 l 378 482 q 326 536 347 508 q 306 593 306 564 l 306 593 q 507 818 306 693 l 507 818 l 429 861 q 258 928 311 928 l 258 928 q 147 882 190 928 q 103 769 103 836 l 103 769 q 168 629 103 690 l 168 629 l 146 607 q 71 772 71 676 l 71 772 q 101 869 71 825 q 175 945 131 913 q 267 996 219 978 q 350 1014 315 1014 l 350 1014 q 424 994 376 1014 q 526 940 471 974 l 526 940 q 617 888 575 913 q 690 846 660 864 l 690 846 q 749 815 726 826 q 783 804 771 804 l 783 804 q 842 832 806 804 l 842 832 l 864 814 q 812 770 833 790 q 776 735 790 750 l 776 735 q 733 706 750 706 l 733 706 q 538 803 711 706 l 538 803 q 410 644 410 721 l 410 644 q 425 601 410 622 q 465 557 440 579 l 465 557 q 513 519 488 539 q 561 483 538 500 l 561 483 q 611 394 611 450 l 611 394 q 549 285 611 329 q 368 240 488 240 l 368 240 q 340 242 354 240 q 314 246 325 244 l 314 246 l 390 199 q 528 118 461 154 q 642 82 594 82 l 642 82 q 806 163 713 82 l 806 163 l 824 142 q 742 63 781 96 q 671 10 703 31 l 671 10 q 582 -32 607 -32 z "},"픘":{"ha":872,"x_min":42,"x_max":831,"o":"m 304 -32 l 275 -32 q 270 -15 275 -24 q 242 8 265 -6 l 242 8 l 167 54 q 108 79 128 79 l 108 79 l 108 110 q 139 145 132 119 q 146 218 146 171 l 146 218 l 146 817 q 104 869 146 869 l 104 869 q 57 858 78 869 l 57 858 l 42 882 q 154 1007 149 965 l 154 1007 l 181 1007 q 204 981 182 992 l 204 981 q 241 954 228 969 q 254 915 254 939 l 254 915 l 254 174 q 256 162 254 168 q 264 151 258 156 l 264 151 l 364 74 q 389 63 378 63 l 389 63 q 601 188 413 63 l 601 188 l 601 799 q 588 857 601 838 q 538 882 574 876 l 538 882 l 538 914 q 643 1007 621 926 l 643 1007 l 669 1007 q 776 914 692 926 l 776 914 l 776 882 q 726 857 740 876 q 711 799 711 838 l 711 799 l 711 169 q 749 101 711 101 l 749 101 q 811 135 774 101 l 811 135 l 831 113 q 759 49 794 85 q 689 -32 724 13 l 689 -32 l 660 -32 q 658 -16 660 -25 q 643 1 656 -7 l 643 1 q 611 40 621 17 q 601 93 601 63 l 601 93 l 601 151 q 481 74 550 115 q 325 -14 413 33 l 325 -14 q 304 -32 304 -26 l 304 -32 z "},"픙":{"ha":1118,"x_min":49,"x_max":1069,"o":"m 640 -32 l 640 -32 q 557 8 604 -32 l 557 8 q 467 83 511 49 q 378 149 424 118 l 378 149 q 290 179 333 179 l 290 179 q 179 153 253 179 l 179 153 l 167 179 q 257 211 218 197 q 324 236 296 225 l 324 236 q 369 251 351 247 q 396 256 386 256 l 396 256 q 411 254 403 256 q 426 250 419 253 l 426 250 q 515 379 483 294 q 547 576 547 464 l 547 576 q 482 812 547 725 q 306 899 417 899 l 306 899 q 190 868 240 899 q 110 785 139 838 q 82 665 82 732 l 82 665 q 142 510 82 574 q 314 424 201 446 l 314 424 l 306 392 q 49 692 49 450 l 49 692 q 86 853 49 782 q 189 966 124 925 q 336 1007 254 1007 l 336 1007 q 581 871 493 1007 l 581 871 q 810 1007 656 1007 l 810 1007 q 974 951 919 1007 q 1044 758 1029 894 l 1044 758 l 1047 735 q 1067 715 1049 717 l 1067 715 l 1069 688 q 869 585 869 653 l 869 585 q 884 542 869 567 q 921 490 899 518 l 921 490 q 962 447 939 469 q 1008 400 985 424 l 1008 400 q 1049 344 1036 374 q 1061 290 1061 314 l 1061 290 q 1004 135 1061 211 q 850 14 947 60 l 850 14 q 640 -32 753 -32 z m 764 31 l 764 31 q 863 56 815 31 q 943 121 911 81 q 975 206 975 161 l 975 206 q 942 297 975 254 q 864 382 910 339 l 864 382 q 789 465 819 424 q 758 553 758 507 l 758 553 q 793 628 758 601 q 871 669 828 656 l 871 669 q 914 683 893 676 q 949 692 935 689 l 949 692 q 938 721 942 704 q 932 757 935 738 l 932 757 l 929 789 q 882 923 922 879 q 778 967 842 967 l 778 967 q 599 836 663 967 l 599 836 q 647 619 647 726 l 647 619 q 461 236 647 394 l 461 236 q 535 183 494 214 q 624 113 576 153 l 624 113 q 764 31 721 31 z "},"픚":{"ha":1438,"x_min":49,"x_max":1389,"o":"m 567 -29 l 567 -29 q 522 -9 547 -29 q 465 40 497 11 l 465 40 q 403 95 431 72 q 358 129 376 118 l 358 129 q 294 151 324 151 l 294 151 q 217 119 269 151 l 217 119 l 199 146 l 278 196 q 344 234 318 222 q 379 246 369 246 l 379 246 q 396 244 388 246 q 410 240 404 243 l 410 240 q 532 574 532 350 l 532 574 q 502 742 532 669 q 420 855 472 814 q 301 896 368 896 l 301 896 q 140 830 199 896 q 82 657 82 764 l 82 657 q 142 499 82 563 q 308 422 203 435 l 308 422 l 301 390 q 116 478 183 406 q 49 667 49 551 l 49 667 q 86 837 49 761 q 188 957 124 913 q 333 1001 253 1001 l 333 1001 q 522 919 454 1001 l 522 919 q 577 1007 539 976 q 668 1038 615 1038 l 668 1038 q 774 993 733 1038 q 819 871 814 949 l 819 871 q 1067 1004 903 1004 l 1067 1004 q 1244 945 1183 1004 q 1315 790 1306 886 l 1315 790 l 1319 753 q 1328 718 1322 728 q 1346 708 1335 708 l 1346 708 l 1346 683 q 1221 646 1261 672 q 1181 571 1181 619 l 1181 571 q 1197 521 1181 549 q 1256 458 1214 493 l 1256 458 q 1318 403 1288 433 q 1369 338 1349 372 q 1389 267 1389 304 l 1389 267 q 1358 176 1389 221 q 1278 91 1326 131 q 1182 22 1231 51 l 1182 22 q 1103 -17 1138 -4 q 1053 -29 1069 -29 l 1053 -29 q 961 4 1025 -29 q 785 107 897 38 l 785 107 q 706 44 747 76 q 628 -8 664 13 q 567 -29 592 -29 z m 643 61 l 643 61 q 697 85 660 61 q 776 147 733 108 q 849 229 818 186 l 849 229 q 879 283 868 256 q 890 338 890 311 l 890 338 q 880 400 890 369 q 850 469 869 431 l 850 469 q 826 517 840 492 q 796 572 813 542 l 796 572 q 763 652 774 614 q 753 708 753 690 l 753 708 q 788 835 753 765 l 788 835 q 663 1004 782 1004 l 663 1004 q 591 976 622 1004 q 549 894 560 947 l 549 894 q 626 618 626 778 l 626 618 q 579 393 626 488 q 436 226 532 299 l 436 226 l 507 165 q 583 101 556 124 q 623 69 610 78 q 643 61 636 61 z m 1140 57 l 1140 57 q 1213 81 1175 57 q 1279 139 1251 104 q 1307 207 1307 174 l 1307 207 q 1296 256 1307 231 q 1250 310 1285 281 l 1250 310 q 1194 360 1224 333 q 1140 411 1165 386 l 1140 411 q 1097 469 1114 439 q 1081 532 1081 500 l 1081 532 q 1229 685 1081 639 l 1229 685 q 1213 722 1219 696 q 1204 786 1207 747 l 1204 786 q 1153 913 1199 864 q 1022 961 1107 961 l 1022 961 q 933 938 975 961 q 865 876 890 915 q 839 789 839 838 l 839 789 q 851 723 839 758 q 882 651 864 688 l 882 651 q 913 594 897 622 q 943 538 928 565 l 943 538 q 978 426 978 474 l 978 426 q 949 315 978 368 q 867 196 919 261 l 867 196 l 1042 96 q 1140 57 1111 57 z "},"픛":{"ha":869,"x_min":42,"x_max":828,"o":"m 258 -32 l 232 -32 q 208 -5 229 -19 q 160 20 186 10 q 118 31 135 31 l 118 31 q 61 -1 93 31 l 61 -1 l 42 14 l 147 147 l 175 147 q 206 116 181 133 q 259 85 232 99 q 296 72 286 72 l 296 72 q 358 154 325 72 l 358 154 q 383 242 375 194 q 390 342 390 290 l 390 342 l 390 468 l 339 468 q 250 444 279 468 q 197 360 221 419 l 197 360 l 165 360 q 198 456 183 407 q 225 554 213 504 l 225 554 q 290 549 243 549 l 290 549 l 390 549 l 390 665 q 351 845 390 786 q 240 904 311 904 l 240 904 q 179 882 208 904 q 108 819 150 860 l 108 819 l 85 836 l 217 993 q 263 1007 229 1007 l 263 1007 q 406 952 344 1007 q 481 811 467 897 l 481 811 q 533 906 500 872 q 599 963 565 939 l 599 963 q 634 988 622 979 q 649 1007 646 997 l 649 1007 l 675 1007 q 709 976 686 993 q 754 946 732 958 q 783 933 776 933 l 783 933 q 808 946 792 933 l 808 946 l 828 931 l 807 903 q 769 854 785 872 q 742 836 753 836 l 742 836 q 706 852 732 836 q 649 888 679 868 l 649 888 l 606 917 q 493 633 493 874 l 493 633 l 493 549 l 540 549 q 636 567 608 549 q 682 633 664 586 l 682 633 l 711 633 q 673 556 693 599 q 633 461 653 513 l 633 461 q 592 466 614 464 q 550 468 571 468 l 550 468 l 493 468 l 493 294 q 533 135 493 190 q 636 81 574 81 l 636 81 q 712 106 676 81 q 790 181 747 132 l 790 181 l 814 160 l 644 -7 q 626 -32 631 -21 l 626 -32 l 597 -32 q 564 -12 588 -18 l 564 -12 l 538 -6 q 453 46 496 6 q 396 169 411 86 l 396 169 q 348 67 378 113 q 258 -32 318 22 l 258 -32 z "},"픜":{"ha":1017,"x_min":49,"x_max":968,"o":"m 444 -274 l 444 -274 q 358 -256 397 -274 q 297 -211 319 -239 q 274 -150 274 -183 l 274 -150 q 292 -105 274 -122 q 338 -87 310 -87 l 338 -87 q 376 -100 361 -87 q 392 -129 392 -112 l 392 -129 q 386 -156 392 -149 l 386 -156 q 382 -172 382 -165 l 382 -172 q 407 -206 382 -190 q 467 -222 432 -222 l 467 -222 q 580 -195 526 -222 q 676 -124 633 -168 l 676 -124 q 779 26 739 -58 q 839 203 819 111 q 858 383 858 296 l 858 383 q 844 535 858 460 q 792 694 829 610 q 689 885 756 779 l 689 885 q 619 813 649 846 q 572 754 590 779 l 572 754 q 583 681 579 715 q 586 617 586 647 l 586 617 q 399 242 586 382 l 399 242 q 442 206 417 228 q 492 164 468 185 q 529 131 517 143 l 529 131 q 574 104 557 104 l 574 104 q 650 133 599 104 l 650 133 l 669 106 q 567 43 618 76 q 464 -29 515 10 l 464 -29 l 439 -11 q 458 18 458 11 l 458 18 q 425 58 458 26 l 425 58 q 374 106 403 81 q 317 149 344 131 q 269 168 289 168 l 269 168 q 235 165 253 168 q 203 160 217 163 l 203 160 l 197 193 q 422 305 351 225 q 493 536 493 385 l 493 536 q 462 726 493 644 q 376 854 431 808 q 251 900 321 900 l 251 900 q 166 874 204 900 q 105 802 128 847 q 82 703 82 757 l 82 703 q 133 553 82 613 q 274 482 185 494 l 274 482 l 269 451 q 110 533 172 463 q 49 707 49 603 l 49 707 q 85 858 49 790 q 180 967 121 926 q 307 1007 239 1007 l 307 1007 q 453 951 386 1007 q 560 790 519 896 l 560 790 q 672 915 617 860 q 783 1011 728 969 l 783 1011 l 801 994 q 793 969 793 978 l 793 969 q 798 949 793 963 q 819 904 803 935 q 872 813 836 874 l 872 813 q 944 644 921 731 q 968 468 968 558 l 968 468 q 936 245 968 357 q 843 32 904 133 q 694 -151 782 -69 l 694 -151 q 444 -274 561 -274 z "},"ℨ":{"ha":739,"x_min":49,"x_max":690,"o":"m 121 -253 l 100 -279 q 63 -235 78 -261 q 49 -178 49 -208 l 49 -178 q 90 -94 49 -125 q 197 -40 132 -64 l 197 -40 q 233 -24 221 -32 q 246 -6 246 -15 l 246 -6 l 278 -6 q 296 -48 278 -21 q 332 -94 314 -75 l 332 -94 q 371 -124 350 -112 q 418 -136 392 -136 l 418 -136 q 500 -108 460 -136 q 567 -30 540 -79 q 593 81 593 19 l 593 81 q 565 201 593 143 q 488 304 536 258 q 381 376 440 350 q 257 403 321 403 l 257 403 q 174 385 201 403 q 147 342 147 367 l 147 342 q 157 314 147 328 l 157 314 l 126 296 l 88 322 q 134 400 97 367 q 239 449 171 433 l 239 449 q 166 481 194 460 q 121 521 138 501 l 121 521 l 150 547 q 232 493 188 508 q 321 478 276 478 l 321 478 q 431 505 381 478 q 513 584 482 532 q 543 708 543 636 l 543 708 q 512 834 543 782 q 428 914 481 886 q 308 942 375 942 l 308 942 q 153 886 211 942 q 85 749 96 831 l 85 749 l 53 749 q 108 897 60 840 q 226 981 156 954 q 368 1008 296 1008 l 368 1008 q 520 975 453 1008 q 627 881 588 942 q 667 738 667 821 l 667 738 q 607 560 667 636 q 446 456 547 485 l 446 456 q 626 349 561 433 q 690 149 690 265 l 690 149 q 620 -54 690 26 q 431 -167 550 -135 l 431 -167 l 399 -175 q 336 -193 357 -185 q 315 -214 315 -201 l 315 -214 l 282 -214 q 226 -138 257 -169 q 157 -107 196 -107 l 157 -107 q 106 -126 128 -107 q 83 -178 83 -146 l 83 -178 q 97 -224 83 -204 q 121 -253 110 -244 l 121 -253 z "},"핬":{"ha":1121,"x_min":42,"x_max":1079,"o":"m 331 -44 l 331 -44 l 292 -4 q 329 26 329 17 l 329 26 q 311 60 329 36 q 267 110 293 83 q 217 155 242 136 q 181 174 193 174 l 181 174 q 113 157 153 174 l 113 157 l 93 210 q 377 365 283 265 q 471 626 471 464 l 471 626 q 419 806 471 739 q 278 872 368 872 l 278 872 q 153 824 204 872 q 103 697 103 775 l 103 697 q 333 479 103 518 l 333 479 l 322 424 q 113 522 183 443 q 42 725 42 600 l 42 725 q 78 888 42 818 q 181 998 115 958 q 333 1038 247 1038 l 333 1038 q 485 995 418 1038 q 591 878 551 953 q 631 704 631 803 l 631 704 q 598 543 631 624 q 503 391 565 463 q 356 264 442 319 l 356 264 l 444 167 q 496 129 478 129 l 496 129 q 524 136 507 129 q 560 153 540 143 l 560 153 q 645 198 599 172 q 733 253 692 224 l 733 253 l 733 792 q 706 944 733 876 l 706 944 l 756 975 l 801 886 q 885 989 836 951 q 1021 1038 935 1026 l 1021 1038 l 1021 982 q 947 914 968 958 q 925 796 925 869 l 925 796 l 925 303 q 929 260 925 285 q 944 217 933 235 q 972 199 954 199 l 972 199 q 1044 238 997 199 l 1044 238 l 1079 196 q 969 84 1024 140 q 861 -32 914 28 l 861 -32 l 808 -11 q 821 35 821 26 l 821 35 q 806 54 821 43 l 806 54 q 758 108 776 76 q 738 182 740 139 l 738 182 q 633 122 686 151 q 529 67 579 93 l 529 67 q 427 12 478 40 q 331 -44 376 -17 z "},"항":{"ha":1175,"x_min":49,"x_max":1126,"o":"m 563 -31 l 563 -31 q 503 -24 532 -31 q 438 6 474 -17 l 438 6 q 284 94 350 61 q 178 128 218 128 l 178 128 q 135 82 135 128 l 135 82 q 151 28 135 61 l 151 28 l 101 4 q 49 139 49 78 l 49 139 q 94 233 49 194 q 213 282 140 272 l 213 282 q 358 331 285 293 q 475 442 432 369 l 475 442 q 517 619 517 513 l 517 619 q 489 749 517 692 q 413 842 461 807 q 300 876 364 876 l 300 876 q 208 853 250 876 q 140 790 165 831 q 114 697 114 750 l 114 697 q 349 479 114 518 l 349 479 l 338 424 q 126 522 199 443 q 53 725 53 600 l 53 725 q 90 885 53 815 q 192 996 126 956 q 343 1036 257 1036 l 343 1036 q 492 997 422 1036 q 610 888 563 958 l 610 888 l 761 963 q 839 1001 801 982 q 910 1043 876 1021 l 910 1043 l 938 994 q 918 965 918 979 l 918 965 q 931 928 918 960 l 931 928 q 958 879 939 907 q 995 827 976 851 q 1024 794 1014 803 l 1024 794 q 1038 786 1031 789 q 1049 783 1044 783 l 1049 783 q 1079 794 1058 783 l 1079 794 l 1110 747 l 921 635 q 1071 528 1015 604 q 1126 354 1126 453 l 1126 354 q 1048 159 1126 243 q 822 22 969 75 l 822 22 q 563 -31 672 -31 z m 668 572 l 668 572 q 773 627 735 607 q 835 661 811 647 l 835 661 q 883 696 883 690 l 883 696 q 867 740 883 708 q 828 807 851 772 q 784 867 806 842 q 753 893 763 893 l 753 893 q 639 836 738 893 l 639 836 q 676 661 676 753 l 676 661 q 668 572 676 614 z m 778 85 l 778 85 q 857 112 822 85 q 912 185 892 139 q 932 288 932 232 l 932 288 q 903 406 932 354 q 826 486 874 457 q 718 515 778 515 l 718 515 q 647 500 675 515 l 647 500 q 605 406 629 440 q 544 349 581 372 l 544 349 q 479 316 525 336 q 360 268 433 296 l 360 268 q 440 234 390 258 q 557 168 489 210 l 557 168 q 778 85 694 85 z "},"핮":{"ha":1038,"x_min":49,"x_max":996,"o":"m 642 -32 l 642 -32 q 415 13 522 -32 q 226 140 308 58 q 96 328 143 221 q 49 561 49 436 l 49 561 q 91 807 49 701 q 208 972 133 913 q 376 1031 282 1031 l 376 1031 q 486 1003 439 1031 q 547 922 533 975 l 547 922 q 585 950 567 938 q 615 972 603 963 l 615 972 q 678 1015 656 1001 q 717 1029 700 1029 l 717 1029 q 745 1024 729 1029 q 788 1007 761 1018 l 788 1007 q 848 982 819 993 q 886 971 876 971 l 886 971 q 917 985 901 971 q 956 1021 933 999 l 956 1021 l 996 983 l 868 847 q 834 817 850 828 q 803 806 818 806 l 803 806 q 704 839 771 806 l 704 839 q 646 865 671 856 q 606 875 621 875 l 606 875 q 558 857 585 875 l 558 857 q 526 830 535 842 q 517 803 517 818 l 517 803 q 624 593 517 769 l 624 593 q 731 379 731 415 l 731 379 q 719 347 731 363 q 689 310 708 331 l 689 310 q 636 255 669 289 q 554 174 603 221 l 554 174 q 689 157 619 157 l 689 157 q 791 167 738 157 q 890 195 844 178 q 961 231 936 213 l 961 231 l 993 185 l 743 -22 q 642 -32 700 -32 z m 211 621 l 211 621 q 247 435 211 521 q 349 287 283 350 q 503 190 415 224 l 503 190 q 546 286 546 242 l 546 286 q 475 442 546 328 l 475 442 l 349 647 q 322 717 322 692 l 322 717 q 369 785 322 743 l 369 785 q 428 832 390 803 q 506 892 465 861 l 506 892 q 460 949 494 928 q 390 971 426 971 l 390 971 q 296 926 336 971 q 233 803 256 882 q 211 621 211 725 z "},"핯":{"ha":1122,"x_min":49,"x_max":1074,"o":"m 635 -32 l 635 -32 q 535 -16 579 -32 q 442 32 490 0 l 442 32 l 331 106 q 281 135 304 124 q 242 147 258 147 l 242 147 q 136 92 210 147 l 136 92 l 99 133 q 338 303 219 303 l 338 303 q 364 301 353 303 q 383 297 375 300 l 383 297 q 443 358 443 321 l 443 358 q 388 460 443 389 l 388 460 l 350 508 q 306 575 324 543 q 289 640 289 607 l 289 640 q 322 713 289 678 q 410 778 354 749 q 535 824 467 807 l 535 824 q 321 864 439 864 l 321 864 q 167 826 224 864 q 111 722 111 789 l 111 722 q 147 628 111 674 q 242 560 182 582 l 242 560 l 225 503 q 49 729 49 569 l 49 729 q 95 892 49 824 q 223 999 142 961 q 408 1038 304 1038 l 408 1038 q 633 997 524 1038 q 832 881 742 956 q 983 707 922 807 l 983 707 q 1051 557 1029 633 q 1074 403 1074 481 l 1074 403 q 1006 188 1074 282 q 826 31 938 93 l 826 31 q 635 -32 718 -32 z m 761 113 l 761 113 q 868 140 819 113 q 946 216 917 168 q 975 321 975 264 l 975 321 q 933 482 975 400 q 812 641 890 564 q 622 782 733 718 l 622 782 q 515 751 554 776 q 475 689 475 725 l 475 689 q 503 624 475 665 l 503 624 l 578 511 q 621 438 610 464 q 632 396 632 411 l 632 396 q 513 292 632 346 l 513 292 l 451 264 q 515 224 483 246 l 515 224 q 561 193 532 213 q 614 158 590 174 l 614 158 q 692 124 653 136 q 761 113 731 113 z "},"핰":{"ha":1042,"x_min":49,"x_max":1000,"o":"m 561 238 l 561 238 q 378 389 424 238 l 378 389 l 432 413 q 483 328 450 360 q 560 297 517 297 l 560 297 q 623 315 597 297 q 649 363 649 332 l 649 363 q 625 435 649 400 q 569 507 601 471 l 569 507 l 460 632 q 404 740 404 696 l 404 740 q 433 803 404 772 l 433 803 q 470 841 446 817 q 522 893 494 865 l 522 893 q 476 955 508 932 q 394 978 443 978 l 394 978 q 261 884 311 978 q 211 621 211 790 l 211 621 q 248 435 211 519 q 349 288 285 350 q 497 191 413 225 q 675 157 581 157 l 675 157 q 822 176 742 157 q 960 229 901 196 l 960 229 l 993 185 l 743 -22 q 642 -32 700 -32 l 642 -32 q 417 13 524 -32 q 228 137 311 57 q 97 325 144 217 q 49 561 49 433 l 49 561 q 91 810 49 703 q 208 978 133 918 q 376 1038 282 1038 l 376 1038 q 564 932 515 1038 l 564 932 q 608 975 588 956 q 640 1006 628 994 l 640 1006 q 671 1029 657 1021 q 699 1038 685 1038 l 699 1038 q 725 1033 710 1038 q 775 1014 740 1029 l 775 1014 q 885 979 856 979 l 885 979 q 917 993 900 979 q 956 1029 933 1007 l 956 1029 l 1000 996 l 878 856 q 851 828 863 838 q 828 818 839 818 l 828 818 q 796 826 818 818 q 736 849 774 835 l 736 849 q 668 874 699 864 q 622 885 638 885 l 622 885 q 603 880 611 885 q 586 865 596 875 l 586 865 q 573 850 579 858 q 567 831 567 842 l 567 831 q 584 798 567 821 q 633 736 601 775 l 633 736 l 708 647 l 781 710 q 806 736 796 722 q 822 764 817 750 l 822 764 l 864 764 q 913 713 888 733 q 986 676 938 692 l 986 676 l 986 635 q 904 542 932 596 l 904 542 l 864 542 q 826 587 846 569 q 761 624 806 604 l 761 624 l 742 607 q 793 510 793 543 l 793 510 q 767 449 793 488 l 767 449 q 743 409 753 429 q 731 369 733 389 l 731 369 q 669 269 718 301 q 561 238 621 238 z "},"핱":{"ha":1032,"x_min":35,"x_max":990,"o":"m 446 -256 l 446 -256 q 280 -225 354 -256 q 163 -140 206 -194 q 119 -17 119 -86 l 119 -17 q 151 92 119 36 q 218 189 183 149 l 218 189 q 253 258 253 229 l 253 258 q 213 300 253 300 l 213 300 q 161 274 181 300 q 128 219 142 247 l 128 219 l 76 247 q 218 358 129 358 l 218 358 q 308 324 274 358 q 342 238 342 289 l 342 238 q 314 136 342 185 q 253 42 286 88 l 253 42 q 221 -47 221 -3 l 221 -47 q 278 -151 221 -111 q 431 -192 335 -192 l 431 -192 q 574 -142 526 -192 q 622 -12 622 -93 l 622 -12 q 508 196 622 63 l 508 196 q 413 312 453 263 q 349 394 372 361 l 349 394 q 303 533 303 460 l 303 533 q 518 818 303 624 l 518 818 q 420 849 469 836 q 307 863 371 863 l 307 863 q 202 844 250 863 q 125 792 154 825 q 96 715 96 760 l 96 715 q 124 631 96 675 q 219 558 151 586 l 219 558 l 197 504 q 83 591 132 532 q 35 738 35 650 l 35 738 q 64 853 35 799 q 143 949 93 907 q 256 1014 193 990 q 386 1038 319 1038 l 386 1038 q 817 926 532 1038 l 817 926 q 888 906 869 906 l 888 906 q 953 939 919 906 l 953 939 l 990 899 l 831 746 q 788 721 806 721 l 788 721 q 749 728 775 721 q 690 750 722 736 l 690 750 q 633 776 660 765 q 583 794 607 786 l 583 794 q 501 624 501 724 l 501 624 q 536 533 501 581 q 610 440 571 486 l 610 440 q 688 510 657 481 q 733 571 719 540 l 733 571 l 775 571 q 824 524 799 539 q 897 501 850 508 l 897 501 l 897 460 q 819 367 847 424 l 819 367 l 778 367 q 697 428 738 428 l 697 428 q 643 401 674 428 l 643 401 q 699 334 674 367 q 747 267 725 301 l 747 267 q 799 165 779 215 q 818 63 818 115 l 818 63 q 769 -104 818 -32 q 635 -216 719 -176 q 446 -256 551 -256 z "},"핲":{"ha":1086,"x_min":49,"x_max":1038,"o":"m 594 -32 l 594 -32 q 306 40 429 -32 q 116 238 183 111 q 49 529 49 364 l 49 529 q 74 718 49 628 q 150 878 100 808 q 271 990 200 949 q 433 1031 342 1031 l 433 1031 q 539 1011 481 1031 l 539 1011 l 585 1060 l 629 1026 q 611 1007 619 1017 q 596 986 603 997 l 596 986 q 657 946 625 972 l 657 946 l 628 899 q 568 936 607 918 l 568 936 q 551 885 551 903 l 551 885 q 600 778 551 856 l 600 778 q 649 675 649 697 l 649 675 q 633 624 649 657 q 597 565 618 592 l 597 565 q 627 586 611 576 q 665 603 643 596 l 665 603 q 745 634 706 617 q 801 664 785 651 l 801 664 q 849 729 849 699 l 849 729 q 813 781 849 749 l 813 781 l 728 856 q 693 907 693 886 l 693 907 q 729 965 693 926 l 729 965 l 813 1053 l 854 1018 q 832 979 832 988 l 832 979 q 850 953 832 974 q 892 910 868 932 l 892 910 q 938 872 915 889 q 969 856 960 856 l 969 856 q 1000 872 978 856 l 1000 872 l 1038 833 q 988 788 1013 815 q 940 728 964 761 l 940 728 q 846 631 892 660 l 846 631 q 1025 340 1025 526 l 1025 340 q 970 144 1025 228 q 819 15 915 61 q 594 -32 722 -32 z m 388 486 l 388 486 q 446 509 418 486 q 474 563 474 532 l 474 563 q 459 620 474 593 q 425 678 444 647 l 425 678 q 392 735 410 701 q 374 794 374 768 l 374 794 q 395 844 374 815 q 460 922 417 874 l 460 922 l 493 961 q 472 966 483 964 q 444 968 460 968 l 444 968 q 348 917 392 968 q 278 774 304 867 q 253 556 253 681 l 253 556 l 253 547 q 313 501 275 517 q 388 486 350 486 z m 601 29 l 601 29 q 769 97 708 29 q 831 281 831 165 l 831 281 q 805 403 831 349 q 736 488 779 457 q 638 519 693 519 l 638 519 q 519 472 585 519 l 519 472 q 400 425 454 425 l 400 425 q 263 467 328 425 l 263 467 q 397 139 308 249 q 601 29 486 29 z "},"핳":{"ha":1099,"x_min":42,"x_max":1050,"o":"m 342 174 l 342 174 q 139 239 225 174 l 139 239 q 110 250 126 250 l 110 250 q 92 244 103 250 q 75 235 82 239 l 75 235 l 42 278 l 215 400 q 247 323 222 361 q 302 260 271 285 q 361 235 333 235 l 361 235 q 408 256 389 235 q 426 299 426 276 l 426 299 q 335 481 426 354 l 335 481 q 243 658 243 608 l 243 658 q 266 723 243 686 q 333 811 289 760 l 333 811 q 390 875 361 843 q 440 929 418 907 l 440 929 q 576 1036 543 1036 l 576 1036 q 657 1011 594 1036 l 657 1011 q 744 986 719 986 l 744 986 q 800 1028 765 986 l 800 1028 l 840 996 q 784 928 813 961 q 725 864 756 896 l 725 864 q 663 828 692 828 l 663 828 q 635 835 653 828 q 586 854 617 842 l 586 854 q 533 875 554 868 q 499 882 511 882 l 499 882 q 471 873 483 882 q 443 847 458 864 l 443 847 q 415 788 415 817 l 415 788 q 424 755 415 772 q 444 719 432 738 l 444 719 q 473 678 460 697 q 497 644 486 660 l 497 644 q 560 680 524 663 q 644 714 596 697 l 644 714 q 757 782 749 750 l 757 782 l 799 782 q 803 770 800 776 q 817 758 807 764 l 817 758 l 843 744 q 997 600 943 692 q 1050 382 1050 508 l 1050 382 q 1027 245 1050 313 q 963 120 1004 178 q 867 22 922 63 q 749 -33 813 -18 l 749 -33 l 625 -62 q 529 -97 547 -82 l 529 -97 l 496 -71 q 501 -50 501 -61 l 501 -50 q 474 -8 500 -22 q 419 7 449 7 l 419 7 q 342 -24 372 7 q 311 -104 311 -54 l 311 -104 q 351 -193 311 -157 q 449 -229 392 -229 l 449 -229 q 581 -137 543 -229 l 581 -137 l 633 -164 q 563 -258 614 -226 q 449 -289 511 -289 l 449 -289 q 347 -264 392 -289 q 276 -197 301 -239 q 251 -104 251 -156 l 251 -104 q 291 17 251 -35 q 422 97 331 69 l 422 97 q 533 157 514 124 l 533 157 l 572 140 q 565 121 565 131 l 565 121 q 583 94 565 111 q 636 50 601 78 l 636 50 l 683 13 q 797 103 753 25 q 840 317 840 182 l 840 317 q 822 438 840 381 q 772 540 803 496 q 703 610 740 585 q 631 636 667 636 l 631 636 q 528 596 588 636 l 528 596 q 560 542 544 569 l 560 542 q 622 367 622 429 l 622 367 q 596 299 622 333 q 527 237 569 265 q 436 191 485 208 q 342 174 388 174 z "},"해":{"ha":854,"x_min":42,"x_max":813,"o":"m 300 594 l 285 538 q 121 614 179 556 q 63 751 63 672 l 63 751 q 127 910 63 854 q 300 996 192 967 l 300 996 q 337 1013 326 1003 q 349 1038 347 1024 l 349 1038 l 390 1038 q 413 1004 390 1021 q 468 969 435 988 l 468 969 l 613 893 q 671 871 654 871 l 671 871 q 694 879 679 871 q 720 897 708 888 q 732 910 732 907 l 732 910 q 691 928 703 910 q 679 958 679 946 l 679 958 q 697 997 679 981 q 739 1013 714 1013 l 739 1013 q 786 991 767 1013 q 806 938 806 969 l 806 938 q 784 885 806 913 q 728 833 763 858 q 657 787 694 807 q 588 754 619 767 q 540 742 557 742 l 540 742 q 497 758 529 742 q 415 800 464 774 l 415 800 l 339 840 q 244 861 300 861 l 244 861 q 159 831 196 861 q 122 751 122 801 l 122 751 q 174 649 122 693 q 300 594 225 606 l 300 594 z m 307 -32 l 307 -32 l 271 -12 q 247 87 271 56 q 188 118 224 118 l 188 118 q 97 49 125 118 l 97 49 l 42 69 q 206 211 94 211 l 206 211 q 261 203 239 211 l 261 203 q 303 194 286 194 l 303 194 q 353 222 314 194 l 353 222 l 389 200 q 379 158 379 169 l 379 158 q 400 115 379 139 q 453 73 421 90 q 515 56 485 56 l 515 56 q 589 81 556 56 q 622 150 622 106 l 622 150 q 574 265 622 185 l 574 265 q 491 412 526 344 q 456 513 456 479 l 456 513 q 483 585 456 544 q 553 663 511 625 q 633 719 594 700 l 633 719 q 740 749 692 749 l 740 749 q 790 732 768 749 q 813 686 813 715 l 813 686 q 798 647 813 663 q 760 631 783 631 l 760 631 q 715 653 733 631 l 715 653 q 689 674 697 674 l 689 674 q 653 659 668 674 q 639 617 639 644 l 639 617 q 660 559 639 599 q 732 428 681 519 l 732 428 q 777 341 763 374 q 797 290 792 308 q 801 256 801 271 l 801 256 q 778 192 801 229 q 717 117 754 154 q 642 50 681 79 q 571 10 603 21 l 571 10 q 497 -6 540 0 q 374 -12 454 -12 l 374 -12 q 337 -17 356 -12 q 307 -32 318 -22 z "},"핵":{"ha":918,"x_min":42,"x_max":869,"o":"m 349 594 l 333 538 q 169 614 228 556 q 111 751 111 672 l 111 751 q 176 910 111 854 q 349 996 240 967 l 349 996 q 385 1013 375 1003 q 397 1038 396 1024 l 397 1038 l 439 1038 q 461 1004 439 1021 q 517 969 483 988 l 517 969 l 661 893 q 719 871 703 871 l 719 871 q 742 879 728 871 q 769 897 757 888 q 781 910 781 907 l 781 910 q 740 928 751 910 q 728 958 728 946 l 728 958 q 745 997 728 981 q 788 1013 763 1013 l 788 1013 q 835 991 815 1013 q 854 938 854 969 l 854 938 q 833 885 854 913 q 777 833 811 858 q 706 787 743 807 q 637 754 668 767 q 589 742 606 742 l 589 742 q 545 758 578 742 q 464 800 513 774 l 464 800 l 388 840 q 293 861 349 861 l 293 861 q 208 831 244 861 q 171 751 171 801 l 171 751 q 222 649 171 693 q 349 594 274 606 l 349 594 z m 329 -228 l 329 -228 l 292 -206 q 265 -94 292 -142 q 186 -46 239 -46 l 186 -46 q 96 -124 121 -46 l 96 -124 l 42 -101 q 218 49 82 49 l 218 49 q 245 47 229 49 q 275 40 261 44 l 275 40 q 301 33 290 36 q 322 31 313 31 l 322 31 q 374 64 344 31 l 374 64 l 410 40 q 399 -10 399 11 l 399 -10 q 442 -96 399 -60 q 546 -132 485 -132 l 546 -132 q 608 -114 581 -132 q 653 -69 636 -96 q 669 -18 669 -43 l 669 -18 q 651 56 669 11 q 606 160 633 101 l 606 160 q 524 353 547 285 q 500 453 500 421 l 500 453 q 516 514 500 478 q 558 588 532 550 q 615 658 583 626 q 676 706 646 689 l 676 706 q 792 739 738 739 l 792 739 q 844 719 819 739 q 869 663 869 699 l 869 663 q 851 617 869 633 q 808 601 832 601 l 808 601 q 764 628 782 601 l 764 628 q 736 654 746 654 l 736 654 q 701 636 715 654 q 686 583 686 618 l 686 583 q 697 533 686 565 q 725 465 707 501 l 725 465 l 808 290 q 839 208 828 251 q 850 125 850 165 l 850 125 q 827 51 850 94 q 768 -38 804 7 q 693 -120 732 -83 q 622 -172 654 -157 l 622 -172 q 545 -195 590 -187 q 414 -203 500 -203 l 414 -203 q 329 -228 353 -203 z "},"핶":{"ha":1151,"x_min":42,"x_max":1103,"o":"m 104 -32 l 104 -32 l 72 -4 q 88 69 88 38 l 88 69 q 42 160 88 108 l 42 160 l 68 196 q 153 178 100 178 l 153 178 q 200 188 174 178 q 240 214 226 197 l 240 214 l 275 188 q 253 108 253 138 l 253 108 q 280 49 253 69 q 347 29 307 29 l 347 29 q 433 150 433 29 l 433 150 q 405 270 433 203 q 322 418 376 338 l 322 418 l 250 526 q 175 693 175 638 l 175 693 q 199 769 175 725 q 268 860 224 814 q 375 947 313 907 q 513 1013 438 988 q 675 1038 589 1038 l 675 1038 q 834 1014 757 1038 q 972 948 911 990 q 1067 847 1032 906 q 1103 719 1103 789 l 1103 719 q 1084 653 1103 679 q 1033 626 1065 626 l 1033 626 q 999 635 1015 626 q 975 653 982 643 l 975 653 q 983 693 979 669 q 988 743 988 717 l 988 743 q 947 863 988 810 q 836 946 906 915 q 681 976 767 976 l 681 976 q 451 917 538 976 q 364 756 364 858 l 364 756 q 377 704 364 733 q 408 643 390 675 l 408 643 q 459 561 431 606 q 524 460 488 517 l 524 460 l 481 632 q 473 671 475 656 q 471 693 471 686 l 471 693 q 505 755 471 725 q 590 807 539 785 l 590 807 q 659 839 635 828 q 696 859 683 850 q 717 878 708 868 l 717 878 l 758 878 q 797 804 769 847 q 851 725 824 761 l 851 725 q 891 681 872 699 q 919 661 910 664 l 919 661 l 921 619 q 844 574 882 597 q 769 528 806 551 l 769 528 q 839 443 800 524 l 839 443 q 868 381 854 413 q 893 321 882 350 l 893 321 q 918 257 906 290 q 940 199 931 224 l 940 199 q 976 133 957 154 q 1013 111 994 111 l 1013 111 q 1068 136 1033 111 l 1068 136 l 1099 90 l 929 -29 q 915 -31 922 -31 q 900 -32 907 -32 l 900 -32 q 819 17 854 -31 l 819 17 q 733 203 783 65 l 733 203 q 688 317 708 271 q 653 386 668 363 l 653 386 q 603 435 624 435 l 603 435 q 551 410 585 435 l 551 410 q 603 211 603 317 l 603 211 q 541 29 603 90 q 371 -32 479 -32 l 371 -32 q 271 -19 340 -32 l 271 -19 q 212 -10 236 -12 q 172 -8 188 -8 l 172 -8 q 104 -32 140 -8 z m 536 650 l 576 488 l 725 575 q 744 600 744 586 l 744 600 q 729 638 744 613 q 692 690 714 664 q 651 735 671 717 q 619 754 631 754 l 619 754 q 580 744 601 754 q 544 719 558 735 q 529 689 529 704 l 529 689 q 532 672 529 685 q 536 650 535 660 l 536 650 z "},"핷":{"ha":867,"x_min":42,"x_max":818,"o":"m 575 -32 l 575 -32 q 442 -7 518 -32 q 289 56 367 18 l 289 56 q 215 88 250 75 q 161 101 181 101 l 161 101 q 129 88 142 101 q 104 56 117 75 l 104 56 l 79 19 l 42 40 q 110 170 82 117 q 151 250 138 224 l 151 250 q 172 279 161 269 q 199 289 182 289 l 199 289 q 231 284 211 289 q 279 269 250 279 l 279 269 q 313 343 313 290 l 313 343 q 210 524 313 396 l 210 524 q 107 726 107 651 l 107 726 q 139 855 107 797 q 225 954 171 913 q 347 1018 279 996 q 485 1040 414 1040 l 485 1040 q 649 1005 575 1040 q 765 908 722 969 q 808 772 808 847 l 808 772 q 805 733 808 753 q 796 696 801 713 l 796 696 q 788 656 788 669 l 788 656 q 801 632 788 644 l 801 632 l 768 596 q 707 611 740 611 l 707 611 q 630 590 656 611 q 604 540 604 569 l 604 540 q 626 498 604 511 q 679 485 649 485 l 679 485 q 763 510 724 485 l 763 510 l 786 458 q 681 425 736 425 l 681 425 q 568 460 607 425 q 529 553 529 494 l 529 553 q 538 615 529 583 q 558 665 547 646 l 558 665 l 544 690 l 582 715 q 607 710 594 713 q 633 708 619 708 l 633 708 q 692 733 669 708 q 715 789 715 757 l 715 789 q 686 887 715 844 q 606 954 657 929 q 490 979 556 979 l 490 979 q 344 933 397 979 q 292 804 292 888 l 292 804 q 306 742 292 774 q 344 675 319 711 l 344 675 q 381 622 364 647 q 421 568 399 597 l 421 568 q 466 496 449 533 q 483 422 483 458 l 483 422 q 474 368 483 394 q 435 312 464 342 q 351 240 407 282 l 351 240 q 431 206 386 224 q 520 174 475 189 q 602 149 565 158 q 657 140 639 140 l 657 140 q 679 143 668 140 q 701 150 690 146 l 701 150 q 785 221 725 158 l 785 221 l 818 194 q 631 -22 726 85 l 631 -22 q 575 -32 610 -32 z "},"핸":{"ha":1603,"x_min":49,"x_max":1554,"o":"m 379 -32 l 336 -32 l 336 -26 q 317 5 336 -12 q 274 35 297 22 q 243 49 251 49 l 243 49 q 219 35 233 49 q 179 -6 204 22 l 179 -6 l 139 26 q 236 149 200 107 l 236 149 q 304 193 274 193 l 304 193 q 408 143 332 193 l 408 143 l 444 119 q 524 428 524 207 l 524 428 q 463 773 524 651 q 296 894 403 894 l 296 894 q 206 869 246 894 q 142 801 165 843 q 119 710 119 760 l 119 710 q 148 615 119 661 q 225 532 176 568 q 336 479 274 496 l 336 479 l 317 424 q 113 543 178 463 q 49 724 49 624 l 49 724 q 89 876 49 808 q 197 983 129 943 q 349 1024 264 1024 l 349 1024 q 488 994 428 1024 q 592 914 549 964 l 592 914 q 666 1006 618 975 q 772 1038 714 1038 l 772 1038 q 906 998 850 1038 q 999 896 961 958 l 999 896 q 1239 1024 1071 1024 l 1239 1024 q 1438 950 1369 1024 q 1507 739 1507 876 l 1507 739 l 1507 719 l 1540 719 l 1540 674 q 1403 623 1443 660 q 1364 507 1364 586 l 1364 507 l 1364 221 q 1373 188 1364 199 q 1394 165 1382 176 l 1394 165 q 1417 147 1406 156 q 1436 139 1428 139 l 1436 139 q 1470 154 1447 139 q 1528 196 1493 169 l 1528 196 l 1554 160 l 1369 -32 l 1329 -32 q 1314 8 1328 -8 q 1276 39 1300 25 l 1276 39 l 1229 67 q 1192 101 1208 79 q 1176 149 1176 122 l 1176 149 l 1176 465 q 1188 551 1176 522 q 1228 608 1199 581 l 1228 608 q 1264 638 1242 622 q 1317 671 1286 653 l 1317 671 l 1317 715 q 1278 858 1317 806 q 1167 911 1240 911 l 1167 911 q 1028 835 1072 911 l 1028 835 q 1064 702 1053 772 q 1075 564 1075 632 l 1075 564 q 958 176 1075 363 l 958 176 q 788 -32 892 71 l 788 -32 l 746 -32 l 746 -26 q 726 5 746 -12 q 685 35 707 22 q 654 49 663 49 l 654 49 q 588 -6 638 49 l 588 -6 l 547 26 q 603 97 578 67 q 646 149 628 126 l 646 149 q 717 193 683 193 l 717 193 q 757 180 732 193 q 817 143 782 167 l 817 143 l 849 122 q 901 435 901 211 l 901 435 q 853 799 901 657 l 853 799 q 726 936 806 936 l 726 936 q 665 914 692 936 q 631 854 639 892 l 631 854 q 680 720 664 794 q 696 565 696 646 l 696 565 q 665 359 696 453 q 572 176 635 265 l 572 176 q 379 -32 511 89 l 379 -32 z "},"핹":{"ha":1258,"x_min":42,"x_max":1210,"o":"m 104 -33 l 104 -33 l 72 -6 q 88 68 88 36 l 88 68 q 42 158 88 104 l 42 158 l 69 196 q 153 176 106 176 l 153 176 q 200 186 174 176 q 240 213 226 196 l 240 213 l 275 186 q 253 107 253 136 l 253 107 q 280 48 253 68 q 347 28 307 28 l 347 28 q 494 117 443 28 l 494 117 q 547 431 547 207 l 547 431 q 483 772 547 654 q 307 889 419 889 l 307 889 q 179 835 229 889 q 129 703 129 781 l 129 703 q 158 608 129 656 q 235 525 186 561 q 346 472 283 489 l 346 472 l 326 417 q 123 536 188 456 q 58 718 58 617 l 58 718 q 98 869 58 801 q 206 978 138 938 q 358 1018 274 1018 l 358 1018 q 508 983 436 1018 q 629 882 581 949 l 629 882 q 892 1022 724 1022 l 892 1022 q 1090 949 1022 1022 q 1158 738 1158 875 l 1158 738 l 1158 718 l 1192 718 l 1192 672 q 1055 622 1094 658 q 1015 506 1015 585 l 1015 506 l 1015 217 q 1022 189 1015 199 q 1049 161 1029 179 l 1049 161 q 1070 146 1060 151 q 1090 140 1081 140 l 1090 140 q 1126 156 1103 140 q 1175 194 1149 172 l 1175 194 l 1210 153 l 1022 -33 l 981 -33 q 940 31 979 7 l 940 31 l 885 64 q 844 99 861 79 q 828 144 828 118 l 828 144 l 828 464 q 839 550 828 521 q 879 607 850 579 l 879 607 q 915 636 893 621 q 968 669 938 651 l 968 669 l 968 714 q 929 859 968 808 q 819 910 890 910 l 819 910 q 747 894 781 910 q 690 860 713 879 q 660 825 667 840 l 660 825 q 719 489 719 688 l 719 489 q 693 288 719 382 q 619 121 667 193 q 509 8 572 49 q 371 -33 446 -33 l 371 -33 q 271 -21 340 -33 l 271 -21 q 212 -12 236 -14 q 172 -10 188 -10 l 172 -10 q 104 -33 140 -10 z "},"핺":{"ha":1072,"x_min":42,"x_max":1024,"o":"m 531 -32 l 531 -32 q 458 -19 497 -32 q 381 11 419 -7 l 381 11 q 325 41 353 25 q 272 72 297 57 l 272 72 q 221 101 242 92 q 183 110 200 110 l 183 110 q 132 93 157 110 q 81 53 107 76 l 81 53 l 42 92 q 85 135 63 113 q 132 183 107 157 l 132 183 q 215 258 179 232 q 281 285 251 285 l 281 285 q 337 273 307 285 q 404 240 367 261 l 404 240 q 465 208 438 222 q 529 174 492 193 l 529 174 q 611 140 569 154 q 683 126 653 126 l 683 126 q 826 174 772 126 q 906 297 881 222 q 931 456 931 372 l 931 456 q 890 596 931 539 q 764 683 850 653 l 764 683 q 569 729 675 715 l 569 729 q 460 753 499 739 q 399 795 421 767 q 353 878 376 824 l 353 878 l 332 867 q 292 796 292 846 l 292 796 q 340 688 292 749 l 340 688 l 397 614 q 454 481 454 540 l 454 481 q 428 401 454 438 q 358 342 401 364 q 263 319 314 319 l 263 319 q 136 342 199 319 l 136 342 l 149 392 q 222 376 197 376 l 222 376 q 255 388 242 376 q 268 418 268 400 l 268 418 q 219 518 268 451 l 219 518 l 165 592 q 128 660 139 628 q 117 719 117 693 l 117 719 q 154 818 117 782 q 261 894 192 854 l 261 894 l 339 940 q 376 1039 376 964 l 376 1039 l 419 1038 q 560 956 429 971 l 560 956 q 725 927 646 946 q 868 872 804 908 q 969 772 932 835 l 969 772 q 1010 667 997 726 q 1024 535 1024 607 l 1024 535 q 955 253 1024 378 q 758 49 886 128 l 758 49 q 638 -11 694 10 q 531 -32 581 -32 z "},"핻":{"ha":1042,"x_min":42,"x_max":993,"o":"m 468 -292 l 428 -292 q 405 -213 417 -262 q 383 -108 393 -164 q 366 -3 372 -53 q 360 75 360 46 l 360 75 l 360 97 q 324 110 349 103 q 274 124 299 118 q 238 131 250 131 l 238 131 q 206 115 219 131 q 178 75 193 99 l 178 75 l 126 96 l 222 354 l 272 338 q 268 314 268 324 l 268 314 q 286 293 268 299 l 286 293 q 314 283 297 289 q 360 268 331 278 l 360 268 l 360 706 q 229 892 360 892 l 229 892 q 140 853 174 892 q 106 749 106 814 l 106 749 q 235 578 106 615 l 235 578 l 218 522 q 88 611 133 544 q 42 764 42 678 l 42 764 q 76 893 42 836 q 167 983 110 950 q 294 1017 225 1017 l 294 1017 q 414 990 360 1017 q 501 918 468 964 q 536 815 533 872 l 536 815 q 628 902 575 857 q 737 986 682 947 q 833 1044 792 1025 l 833 1044 l 863 1007 q 838 960 838 986 l 838 960 q 843 931 838 949 q 863 882 849 913 l 863 882 q 896 802 878 849 q 931 710 914 756 q 958 631 947 665 l 958 631 q 993 467 993 526 l 993 467 q 967 362 993 424 q 899 234 940 300 q 813 113 858 168 l 813 113 q 743 -33 743 29 l 743 -33 l 689 -33 q 647 6 689 -7 l 647 6 l 542 36 q 528 -46 539 8 q 502 -165 518 -100 q 468 -292 486 -231 l 468 -292 z m 747 147 l 747 147 q 786 186 758 147 l 786 186 q 817 256 807 217 q 826 331 826 294 l 826 331 q 818 401 826 363 q 794 488 810 440 l 794 488 q 757 594 781 535 q 701 726 733 654 l 701 726 q 664 847 664 814 l 664 847 q 546 739 576 779 l 546 739 l 546 210 l 700 160 q 728 151 715 154 q 747 147 740 147 z "},"핼":{"ha":1300,"x_min":42,"x_max":1258,"o":"m 531 -32 l 531 -32 q 458 -19 497 -32 q 381 11 419 -7 l 381 11 q 325 41 353 25 q 272 72 297 57 l 272 72 q 221 101 242 92 q 183 110 200 110 l 183 110 q 132 93 157 110 q 81 53 107 76 l 81 53 l 42 92 q 85 135 63 113 q 132 183 107 157 l 132 183 q 215 258 179 232 q 281 285 251 285 l 281 285 q 337 273 307 285 q 404 240 367 261 l 404 240 q 465 208 438 222 q 529 174 492 193 l 529 174 q 611 140 569 154 q 683 126 653 126 l 683 126 q 826 174 772 126 q 906 297 881 222 q 931 456 931 372 l 931 456 q 890 596 931 539 q 764 683 850 653 l 764 683 q 569 729 675 715 l 569 729 q 460 753 499 739 q 399 795 421 767 q 353 878 376 824 l 353 878 l 332 867 q 292 796 292 846 l 292 796 q 340 688 292 749 l 340 688 l 397 614 q 454 481 454 540 l 454 481 q 428 401 454 438 q 358 342 401 364 q 263 319 314 319 l 263 319 q 136 342 199 319 l 136 342 l 149 392 q 222 376 197 376 l 222 376 q 255 388 242 376 q 268 418 268 400 l 268 418 q 219 518 268 451 l 219 518 l 165 592 q 128 660 139 628 q 117 719 117 693 l 117 719 q 154 818 117 782 q 261 894 192 854 l 261 894 l 339 940 q 376 1039 376 964 l 376 1039 l 419 1038 q 560 956 429 971 l 560 956 q 725 927 646 946 q 868 872 804 908 q 969 772 932 835 l 969 772 q 1010 667 997 726 q 1024 535 1024 607 l 1024 535 q 955 253 1024 378 q 758 49 886 128 l 758 49 q 638 -11 694 10 q 531 -32 581 -32 z m 1067 -32 l 1067 -32 q 1029 -21 1051 -32 q 992 -1 1007 -10 l 992 -1 q 949 22 968 13 q 922 31 931 31 l 922 31 q 890 15 908 31 q 853 -19 872 0 l 853 -19 l 814 14 l 940 154 q 1006 196 978 196 l 1006 196 q 1117 146 1036 196 l 1117 146 q 1133 138 1124 142 q 1149 133 1142 133 l 1149 133 q 1181 148 1164 135 q 1219 183 1197 161 l 1219 183 l 1258 150 l 1133 11 q 1067 -32 1094 -32 z "},"핽":{"ha":1293,"x_min":42,"x_max":1251,"o":"m 104 -33 l 104 -33 l 72 -6 q 88 68 88 36 l 88 68 q 42 158 88 104 l 42 158 l 69 196 q 153 176 106 176 l 153 176 q 200 186 174 176 q 240 213 226 196 l 240 213 l 275 186 q 253 107 253 136 l 253 107 q 280 49 253 68 q 347 29 307 29 l 347 29 q 453 66 413 29 q 513 163 493 103 q 540 293 533 222 q 547 431 547 364 l 547 431 q 519 685 547 578 q 437 850 490 792 q 307 908 383 908 l 307 908 q 179 854 229 908 q 129 722 129 800 l 129 722 q 158 627 129 674 q 235 544 186 581 q 346 492 283 508 l 346 492 l 326 436 q 123 556 188 475 q 58 738 58 636 l 58 738 q 99 890 58 822 q 207 997 139 957 q 358 1038 275 1038 l 358 1038 q 539 987 467 1038 q 653 853 611 936 l 653 853 q 733 915 694 888 q 814 964 772 942 l 814 964 q 888 1006 860 989 q 928 1033 917 1024 l 928 1033 l 956 1001 q 944 975 944 990 l 944 975 q 967 930 944 960 q 1017 871 989 900 l 1017 871 q 1075 817 1056 832 q 1104 803 1094 803 l 1104 803 q 1119 806 1111 803 q 1132 810 1126 808 l 1132 810 l 1150 772 q 1106 739 1138 764 q 1035 683 1074 714 q 964 624 997 651 l 964 624 q 1036 431 1011 581 l 1036 431 q 1063 298 1049 354 q 1093 203 1078 242 l 1093 203 q 1157 126 1124 126 l 1157 126 q 1214 167 1174 126 l 1214 167 l 1251 126 q 1201 77 1229 101 q 1139 28 1172 53 l 1139 28 q 1067 -32 1071 -22 l 1067 -32 l 1025 -32 q 1013 -12 1022 -21 q 988 11 1004 -3 l 988 11 q 926 101 954 42 q 879 261 899 161 l 879 261 l 851 404 q 828 490 839 471 q 801 508 817 508 l 801 508 q 785 503 794 508 q 765 492 776 499 l 765 492 l 725 463 q 693 273 721 363 q 617 115 665 183 q 506 7 569 46 q 371 -32 443 -32 l 371 -32 q 331 -28 360 -32 q 269 -19 301 -25 l 269 -19 q 214 -12 240 -14 q 172 -10 188 -10 l 172 -10 q 104 -33 140 -10 z m 785 869 l 785 869 q 676 801 761 869 l 676 801 q 710 674 699 742 q 724 533 721 606 l 724 533 q 837 615 781 572 q 949 703 893 657 l 949 703 l 832 838 q 785 869 804 869 z "},"핾":{"ha":1135,"x_min":49,"x_max":1086,"o":"m 596 -31 l 596 -31 q 307 33 431 -31 q 116 214 183 97 q 49 489 49 331 l 49 489 q 84 672 49 582 q 187 840 119 763 q 349 965 254 917 l 349 965 q 631 1039 492 1039 l 631 1039 q 688 1031 660 1039 q 742 1006 715 1024 l 742 1006 q 816 958 775 983 q 892 914 857 933 l 892 914 q 931 893 911 903 q 968 883 950 883 l 968 883 q 1002 894 988 883 q 1017 929 1017 906 l 1017 929 q 999 965 1017 953 l 999 965 q 981 996 981 978 l 981 996 q 993 1025 981 1013 q 1031 1038 1006 1038 l 1031 1038 q 1072 1013 1058 1038 q 1086 967 1086 989 l 1086 967 q 1058 892 1086 925 q 990 834 1031 860 q 908 789 949 808 l 908 789 q 851 765 876 774 q 808 756 826 756 l 808 756 q 768 767 793 756 q 710 801 743 778 l 710 801 q 638 850 672 829 q 571 885 604 871 l 571 885 q 458 907 519 907 l 458 907 q 307 867 372 907 q 206 755 242 826 q 169 586 169 683 l 169 586 q 206 415 169 494 q 322 263 242 336 l 322 263 q 492 157 401 190 q 667 124 583 124 l 667 124 q 788 143 729 124 q 893 197 846 163 q 967 277 940 232 q 994 374 994 322 l 994 374 q 953 497 994 453 q 844 540 913 540 l 844 540 q 767 522 814 540 q 654 467 719 504 l 654 467 q 492 393 528 393 l 492 393 q 467 399 481 393 q 435 424 453 406 l 435 424 l 342 518 q 288 590 304 556 q 272 672 272 625 l 272 672 q 297 759 272 721 q 363 819 322 797 q 451 842 404 842 l 451 842 q 553 813 514 842 q 626 728 593 783 l 626 728 l 575 696 q 450 781 525 781 l 450 781 q 367 750 401 781 q 333 678 333 719 l 333 678 q 366 609 333 635 q 451 583 399 583 l 451 583 q 608 646 507 583 l 608 646 q 769 708 708 708 l 769 708 q 862 684 813 708 q 956 615 911 660 q 1028 510 1000 571 q 1056 379 1056 450 l 1056 379 q 995 169 1056 263 q 831 23 935 76 q 596 -31 728 -31 z "},"핿":{"ha":971,"x_min":42,"x_max":929,"o":"m 603 -32 l 603 -32 q 522 -3 576 -32 q 376 81 467 25 l 376 81 q 160 192 196 192 l 160 192 q 124 185 139 192 q 82 151 110 179 l 82 151 l 42 189 q 108 268 78 235 q 158 321 138 301 l 158 321 q 244 360 199 360 l 244 360 q 329 331 283 360 l 329 331 q 421 301 375 301 l 421 301 q 473 314 446 301 q 500 350 500 326 l 500 350 q 485 383 500 367 q 443 419 471 399 l 443 419 q 397 456 417 440 q 357 489 378 471 l 357 489 q 312 540 329 513 q 294 603 294 568 l 294 603 q 339 697 294 651 q 468 803 383 743 l 468 803 l 419 828 q 250 888 304 888 l 250 888 q 166 853 203 888 q 129 772 129 819 l 129 772 q 160 672 129 713 q 225 600 190 632 l 225 600 l 183 558 q 68 774 68 665 l 68 774 q 101 890 68 840 q 184 972 135 939 q 283 1022 233 1006 q 367 1038 333 1038 l 367 1038 q 443 1020 401 1038 q 533 978 485 1003 l 533 978 q 613 938 574 958 q 688 897 653 917 l 688 897 q 782 849 749 865 q 833 832 815 832 l 833 832 q 901 858 864 832 l 901 858 l 929 817 q 843 750 882 781 q 779 697 804 719 l 779 697 q 753 679 765 686 q 726 672 742 672 l 726 672 q 647 701 701 672 q 521 774 593 731 l 521 774 q 453 681 453 719 l 453 681 q 465 644 453 661 q 497 610 476 626 l 497 610 q 557 563 525 588 q 613 521 589 539 l 613 521 q 669 463 656 490 q 683 406 683 435 l 683 406 q 653 330 683 365 q 576 273 622 294 q 483 251 531 251 l 483 251 q 470 251 478 251 q 456 253 463 251 l 456 253 l 531 211 q 630 159 585 181 q 710 138 675 138 l 710 138 q 772 150 746 138 q 840 199 799 163 l 840 199 l 876 157 q 706 13 775 56 l 706 13 q 647 -21 671 -10 q 603 -32 622 -32 z "},"햀":{"ha":972,"x_min":42,"x_max":931,"o":"m 369 -31 l 326 -31 q 319 -7 326 -17 q 289 17 313 3 l 289 17 l 228 50 q 169 74 193 69 q 118 79 144 79 l 118 79 l 118 122 q 148 153 140 133 q 156 210 156 174 l 156 210 l 156 789 q 111 850 156 850 l 111 850 q 72 842 92 850 l 72 842 l 42 889 q 183 1039 174 993 l 183 1039 l 226 1039 q 235 1019 226 1029 q 281 992 244 1010 l 281 992 q 347 899 347 961 l 347 899 l 347 211 q 365 174 347 186 l 365 174 l 442 125 q 471 115 456 115 l 471 115 q 619 196 489 115 l 619 196 l 619 828 q 557 881 619 872 l 557 881 l 557 924 q 641 963 599 929 q 699 1039 683 996 l 699 1039 l 742 1039 q 770 987 749 1013 q 820 944 792 961 q 875 924 849 928 l 875 924 l 875 881 q 825 864 839 876 q 811 828 811 851 l 811 828 l 811 186 q 819 152 811 161 q 839 143 826 143 l 839 143 q 865 149 850 143 q 900 169 879 156 l 900 169 l 931 125 q 760 -31 806 28 l 760 -31 l 711 -31 q 696 -14 711 -18 l 696 -14 q 619 88 619 7 l 619 88 l 619 122 q 520 66 571 93 q 419 13 469 39 l 419 13 q 388 -7 406 6 q 369 -31 369 -19 l 369 -31 z "},"햁":{"ha":1197,"x_min":49,"x_max":1149,"o":"m 661 -29 l 661 -29 q 543 21 600 -29 l 543 21 q 470 81 514 46 q 394 138 426 115 l 394 138 q 341 169 367 157 q 289 181 315 181 l 289 181 q 156 135 247 181 l 156 135 l 135 186 q 240 248 194 221 q 313 293 286 275 l 313 293 q 360 321 336 308 q 407 333 385 333 l 407 333 q 443 326 429 333 l 443 326 q 518 590 518 401 l 518 590 q 490 742 518 676 q 413 843 463 807 q 296 879 363 879 l 296 879 q 163 831 215 879 q 110 706 110 782 l 110 706 q 180 545 110 608 q 382 467 250 482 l 382 467 l 371 410 q 203 461 276 422 q 90 562 131 500 q 49 703 49 624 l 49 703 q 88 876 49 801 q 199 994 128 951 q 361 1038 269 1038 l 361 1038 q 592 946 508 1038 l 592 946 q 831 1038 669 1038 l 831 1038 q 1022 980 958 1038 q 1100 811 1086 922 l 1100 811 l 1104 778 q 1143 756 1106 756 l 1143 756 l 1149 703 q 985 665 1039 689 q 931 604 931 642 l 931 604 q 944 565 931 585 q 982 525 958 546 l 982 525 q 1018 493 1004 506 q 1053 463 1032 481 l 1053 463 q 1111 392 1090 431 q 1132 304 1132 354 l 1132 304 q 1098 200 1132 253 q 1005 101 1064 147 q 871 21 946 54 l 871 21 q 661 -29 761 -29 z m 828 82 l 828 82 q 890 98 858 82 q 944 141 922 114 q 967 199 967 168 l 967 199 q 936 303 967 263 q 858 388 906 344 l 858 388 q 771 488 793 449 q 749 565 749 528 l 749 565 q 771 639 749 606 q 847 694 793 672 l 847 694 q 883 708 864 701 q 925 721 903 714 l 925 721 q 904 778 907 735 l 904 778 l 901 815 q 867 924 896 881 q 772 968 838 968 l 772 968 q 688 947 729 968 q 628 889 647 925 l 628 889 q 681 681 681 764 l 681 681 q 631 477 681 578 q 499 297 582 376 l 499 297 q 557 255 522 282 q 639 188 592 228 l 639 188 q 744 110 696 139 q 828 82 793 82 z "},"햂":{"ha":1522,"x_min":49,"x_max":1474,"o":"m 579 -32 l 579 -32 q 520 -12 549 -32 q 464 29 492 7 l 464 29 q 409 72 442 49 q 361 104 376 94 l 361 104 q 276 138 311 138 l 276 138 q 194 110 253 138 l 194 110 l 169 160 l 271 225 q 350 269 318 256 q 400 283 382 283 l 400 283 q 417 282 410 283 q 432 278 425 281 l 432 278 q 494 403 471 317 q 518 590 518 489 l 518 590 q 490 742 518 676 q 413 843 463 807 q 296 879 363 879 l 296 879 q 163 831 215 879 q 110 706 110 782 l 110 706 q 181 541 110 608 q 382 458 251 474 l 382 458 l 371 396 q 202 449 275 408 q 89 555 129 490 q 49 703 49 619 l 49 703 q 88 876 49 801 q 199 994 128 951 q 361 1038 269 1038 l 361 1038 q 476 1017 417 1038 q 579 947 536 996 l 579 947 q 724 1047 625 1047 l 724 1047 q 876 919 847 1047 l 876 919 q 1149 1038 976 1038 l 1149 1038 q 1324 992 1260 1038 q 1407 836 1389 947 l 1407 836 l 1415 786 q 1430 762 1418 768 q 1460 756 1442 756 l 1460 756 l 1460 714 q 1286 593 1286 685 l 1286 593 q 1311 542 1286 571 q 1381 475 1336 513 l 1381 475 q 1474 294 1474 399 l 1474 294 q 1410 166 1474 239 q 1240 29 1346 93 l 1240 29 q 1144 -17 1189 -1 q 1072 -32 1100 -32 l 1072 -32 q 994 -12 1044 -32 q 889 36 943 8 q 793 86 835 64 l 793 86 q 665 -2 724 28 q 579 -32 607 -32 z m 710 117 l 710 117 q 749 137 722 117 q 805 190 775 157 q 857 261 835 224 l 857 261 q 890 358 890 315 l 890 358 q 876 430 890 393 q 849 489 863 467 l 849 489 q 821 535 835 513 q 796 575 807 557 l 796 575 q 767 632 781 599 q 754 700 754 665 l 754 700 q 828 867 754 781 l 828 867 q 797 953 824 918 q 726 989 769 989 l 726 989 q 624 897 651 989 l 624 897 q 667 792 653 840 q 681 681 681 743 l 681 681 q 655 530 681 611 q 585 374 629 449 q 488 247 542 299 l 488 247 l 565 194 q 660 134 631 151 q 710 117 690 117 z m 1219 99 l 1219 99 q 1270 117 1242 99 q 1321 162 1299 135 q 1343 215 1343 189 l 1343 215 q 1264 336 1343 274 l 1264 336 q 1210 381 1233 361 q 1167 422 1186 401 l 1167 422 q 1120 488 1136 456 q 1104 554 1104 519 l 1104 554 q 1142 647 1104 607 q 1260 715 1179 688 l 1260 715 q 1222 764 1233 736 q 1204 831 1211 792 l 1204 831 q 1163 938 1192 908 q 1078 967 1133 967 l 1078 967 q 999 945 1038 967 q 937 884 961 924 q 913 789 913 844 l 913 789 q 922 738 913 767 q 950 676 932 710 l 950 676 q 973 635 961 656 q 994 593 985 614 l 994 593 q 1029 511 1015 551 q 1043 433 1043 471 l 1043 433 q 1020 340 1043 396 q 940 226 997 283 l 940 226 l 1074 153 q 1155 113 1122 126 q 1219 99 1188 99 z "},"햃":{"ha":992,"x_min":42,"x_max":950,"o":"m 317 -32 l 272 -32 q 244 -7 269 -22 q 192 22 219 8 q 153 35 165 35 l 153 35 q 119 22 135 35 q 82 -12 103 8 l 82 -12 l 42 24 l 168 200 l 219 200 q 249 167 226 185 q 299 139 272 150 q 343 128 326 128 l 343 128 q 385 181 368 128 l 385 181 q 401 356 401 233 l 401 356 l 401 467 l 307 467 q 258 448 276 467 q 218 379 240 429 l 218 379 l 167 379 q 216 504 192 440 q 250 600 240 568 l 250 600 q 285 585 269 589 q 336 582 301 582 l 336 582 l 401 582 l 401 682 q 279 899 401 899 l 279 899 q 122 807 206 899 l 122 807 l 82 842 l 228 1014 q 306 1038 247 1038 l 306 1038 q 411 1013 361 1038 q 496 948 461 989 q 540 856 531 907 l 540 856 q 619 956 551 896 l 619 956 q 700 1040 690 1017 l 700 1040 l 756 1040 q 786 1013 764 1028 q 831 989 808 999 q 863 979 853 979 l 863 979 q 911 1008 876 979 l 911 1008 l 950 971 l 921 935 q 811 832 839 832 l 811 832 q 760 849 796 832 q 699 879 724 865 l 699 879 l 656 901 q 608 853 622 876 q 594 785 594 829 l 594 785 l 594 582 l 686 582 q 729 600 711 582 q 765 661 747 618 l 765 661 l 818 661 q 764 558 789 610 q 718 456 739 507 l 718 456 q 679 463 703 460 q 625 467 656 467 l 625 467 l 594 467 l 594 299 q 626 166 594 210 q 700 122 658 122 l 700 122 q 782 144 742 122 q 875 219 822 165 l 875 219 l 913 181 l 763 36 q 730 2 740 15 q 717 -32 719 -11 l 717 -32 l 664 -32 q 631 -10 658 -18 l 631 -10 l 571 7 q 519 46 543 15 q 478 121 494 76 q 457 214 461 165 l 457 214 q 428 124 446 161 q 385 51 411 86 q 317 -32 358 17 l 317 -32 z "},"햄":{"ha":1119,"x_min":49,"x_max":1071,"o":"m 475 -287 l 475 -287 q 340 -254 393 -287 q 288 -156 288 -221 l 288 -156 q 313 -94 288 -118 q 375 -69 338 -69 l 375 -69 q 438 -92 419 -69 q 456 -137 456 -114 l 456 -137 q 449 -169 456 -156 l 449 -169 q 443 -189 443 -181 l 443 -189 q 522 -215 443 -215 l 522 -215 q 624 -185 575 -215 q 717 -104 674 -156 l 717 -104 q 799 33 764 -46 q 853 203 833 111 q 872 388 872 294 l 872 388 q 861 512 872 449 q 816 656 850 575 q 715 846 782 736 l 715 846 q 680 822 697 835 q 644 793 663 808 l 644 793 q 667 629 667 722 l 667 629 q 613 430 667 526 q 464 275 558 333 l 464 275 q 519 229 486 258 q 575 179 553 200 l 575 179 q 632 150 608 150 l 632 150 q 714 179 656 150 l 714 179 l 743 138 q 600 51 668 94 q 471 -36 532 8 l 471 -36 l 436 -10 q 458 22 458 13 l 458 22 q 448 42 458 29 q 419 71 438 54 l 419 71 q 374 113 399 92 q 327 150 349 135 q 293 165 306 165 l 293 165 q 249 160 278 165 q 197 149 219 156 l 197 149 l 188 201 q 416 327 349 246 q 483 543 483 408 l 483 543 q 455 714 483 639 q 378 833 426 789 q 271 876 331 876 l 271 876 q 154 828 199 876 q 110 710 110 779 l 110 710 q 145 603 110 653 q 239 523 181 554 q 365 490 297 492 l 365 490 l 351 433 q 129 526 210 447 q 49 721 49 604 l 49 721 q 87 867 49 797 q 194 981 125 936 q 351 1025 263 1025 l 351 1025 q 505 981 433 1025 q 618 849 576 938 l 618 849 q 864 1049 742 957 l 864 1049 l 904 1011 q 888 974 888 986 l 888 974 q 899 942 888 964 q 938 879 910 921 l 938 879 q 1033 687 996 793 q 1071 460 1071 581 l 1071 460 q 1033 252 1071 361 q 924 38 994 143 q 760 -156 854 -68 l 760 -156 q 475 -287 617 -287 z "},"햅":{"ha":821,"x_min":49,"x_max":772,"o":"m 151 -239 l 113 -283 q 49 -161 49 -232 l 49 -161 q 82 -78 49 -112 q 188 -18 115 -44 l 188 -18 q 258 13 244 3 q 271 36 271 22 l 271 36 l 313 36 q 333 -6 315 18 q 374 -51 350 -31 l 374 -51 q 421 -85 397 -71 q 463 -99 444 -99 l 463 -99 q 549 -46 517 -99 q 582 92 582 7 l 582 92 q 542 254 582 182 q 434 369 503 326 q 279 413 365 413 l 279 413 q 210 398 235 413 q 185 360 185 383 l 185 360 q 193 331 185 347 l 193 331 l 147 304 l 106 338 q 283 475 125 440 l 283 475 q 197 503 236 483 q 136 554 157 524 l 136 554 l 182 594 q 263 540 218 557 q 344 522 307 522 l 344 522 q 447 550 401 522 q 517 625 492 578 q 543 729 543 672 l 543 729 q 488 892 543 829 q 343 954 432 954 l 343 954 q 243 926 289 954 q 167 851 197 897 q 132 749 138 804 l 132 749 l 71 749 q 177 963 86 885 q 428 1040 268 1040 l 428 1040 q 597 1003 522 1040 q 714 903 671 967 q 757 761 757 840 l 757 761 q 692 594 757 668 q 501 489 626 519 l 501 489 q 640 438 578 479 q 737 331 701 396 q 772 185 772 267 l 772 185 q 743 42 772 104 q 666 -63 714 -19 q 562 -133 618 -107 q 451 -169 506 -160 l 451 -169 l 419 -175 q 363 -188 382 -181 q 340 -211 343 -196 l 340 -211 l 299 -211 q 232 -127 260 -154 q 172 -100 204 -100 l 172 -100 q 126 -119 143 -100 q 110 -162 110 -139 l 110 -162 q 151 -239 110 -203 l 151 -239 z "},"픞":{"ha":631,"x_min":49,"x_max":589,"o":"m 183 -32 l 183 -32 l 165 -19 l 172 -6 q 147 28 172 3 l 147 28 q 108 82 132 43 q 67 177 85 121 q 49 300 49 233 l 49 300 q 68 419 49 368 q 124 521 88 471 l 124 521 q 183 586 142 544 q 292 685 225 628 l 292 685 l 319 685 l 321 678 q 522 578 389 626 l 522 578 l 522 551 q 488 530 496 546 q 479 474 479 514 l 479 474 l 479 186 q 531 90 479 90 l 531 90 q 568 121 543 90 l 568 121 l 589 104 l 476 -32 l 456 -21 l 465 -6 q 415 41 432 22 q 392 81 397 60 q 386 132 386 101 l 386 132 l 386 144 q 278 54 328 99 q 183 -32 228 10 z m 264 93 l 264 93 q 296 110 275 93 l 296 110 l 386 181 l 386 526 q 253 610 311 563 l 253 610 q 138 368 138 522 l 138 368 q 151 268 138 317 q 184 180 164 219 q 226 117 204 140 q 264 93 247 93 z "},"픟":{"ha":553,"x_min":42,"x_max":504,"o":"m 240 -32 l 214 -32 q 204 -15 214 -25 q 171 10 194 -4 l 171 10 q 117 37 149 24 q 42 61 85 50 l 42 61 l 42 89 q 69 108 65 92 q 74 157 74 125 l 74 157 l 74 819 q 49 903 74 861 l 49 903 l 68 917 q 108 843 100 885 l 108 843 q 294 978 150 978 l 294 978 l 294 949 q 194 903 221 944 q 167 771 167 861 l 167 771 l 167 547 l 368 685 l 383 667 q 369 644 369 657 l 369 644 q 414 569 369 635 l 414 569 q 481 456 458 506 q 504 356 504 407 l 504 356 q 460 206 504 282 q 325 46 417 129 l 325 46 l 240 -32 z m 296 67 l 296 67 q 328 87 307 67 q 370 139 349 107 q 407 207 392 171 q 422 276 422 243 l 422 276 q 399 374 422 319 q 331 501 375 429 l 331 501 l 278 588 l 167 511 l 167 149 q 182 118 167 126 l 182 118 l 274 72 q 296 67 285 67 z "},"픠":{"ha":424,"x_min":49,"x_max":382,"o":"m 374 151 l 188 -32 l 171 -22 l 181 -6 q 101 55 129 25 q 60 123 72 85 q 49 215 49 161 l 49 215 l 49 451 q 54 506 49 488 q 82 546 60 524 l 82 546 l 214 668 q 240 685 231 685 l 240 685 q 292 654 260 685 l 292 654 q 340 622 328 622 l 340 622 q 353 625 347 622 q 364 632 358 628 l 364 632 l 382 617 l 313 551 q 290 539 299 539 l 290 539 q 263 554 282 539 l 263 554 l 192 607 q 151 564 160 581 q 142 510 142 547 l 142 510 l 142 258 q 145 196 142 219 q 159 157 149 172 q 192 124 169 142 l 192 124 q 249 97 226 97 l 249 97 q 353 168 274 97 l 353 168 l 374 151 z "},"픡":{"ha":571,"x_min":42,"x_max":522,"o":"m 274 -32 l 250 -32 q 219 10 249 -12 q 144 51 190 32 q 44 82 99 71 l 44 82 l 44 110 q 85 148 79 122 q 92 218 92 174 l 92 218 l 92 431 q 91 499 92 467 q 83 558 90 532 l 83 558 q 139 592 103 571 q 218 639 175 614 l 218 639 q 165 672 201 649 q 97 725 129 694 l 97 725 q 58 776 75 749 q 42 836 42 804 l 42 836 q 84 938 42 899 q 199 978 126 978 l 199 978 l 199 949 l 188 949 q 134 931 156 949 q 113 886 113 914 l 113 886 q 174 799 113 840 l 174 799 q 246 752 206 778 q 335 694 286 726 l 335 694 q 478 569 433 632 q 522 419 522 507 l 522 419 q 495 268 522 340 q 413 122 468 196 l 413 122 q 350 47 385 85 q 274 -32 315 8 l 274 -32 z m 328 76 l 328 76 q 357 95 340 76 q 392 143 374 114 l 392 143 q 430 235 414 181 q 446 344 446 290 l 446 344 q 402 499 446 436 q 250 624 358 561 l 250 624 l 199 590 q 187 579 189 585 q 185 564 185 574 l 185 564 l 185 147 q 244 118 217 133 q 293 90 272 103 l 293 90 q 328 76 317 76 z "},"픢":{"ha":463,"x_min":49,"x_max":414,"o":"m 410 147 l 221 -32 l 203 -21 l 207 -10 q 85 76 122 26 q 49 204 49 125 l 49 204 l 49 471 q 53 505 49 494 q 76 531 58 515 l 76 531 l 258 685 l 289 685 l 407 478 q 414 458 414 467 l 414 458 q 407 442 414 449 l 407 442 l 144 229 q 188 133 151 169 q 269 97 225 97 l 269 97 q 393 164 322 97 l 393 164 l 410 147 z m 142 503 l 142 264 l 307 397 q 318 414 318 407 l 318 414 q 303 449 318 422 l 303 449 l 213 606 q 165 566 179 582 q 146 536 150 550 q 142 503 142 522 l 142 503 z "},"픣":{"ha":464,"x_min":42,"x_max":422,"o":"m 168 -269 l 139 -269 l 128 -103 q 107 425 107 214 l 107 425 l 107 550 l 42 550 l 42 582 q 108 676 96 596 l 108 676 q 122 749 115 715 q 136 814 128 783 l 136 814 q 166 890 147 851 q 214 953 185 928 q 281 978 243 978 l 281 978 q 310 976 294 978 q 338 971 325 975 l 338 971 q 376 963 363 963 l 376 963 q 397 976 389 963 l 397 976 l 422 967 l 365 850 q 243 892 307 892 l 243 892 q 190 872 210 892 q 171 814 171 851 l 171 814 q 186 729 171 775 l 186 729 q 200 683 193 707 q 213 631 207 658 l 213 631 l 344 631 l 344 550 l 211 550 l 211 408 q 208 246 211 325 q 198 76 204 167 q 181 -132 192 -14 l 181 -132 l 168 -269 z "},"픤":{"ha":589,"x_min":49,"x_max":540,"o":"m 278 -269 l 278 -269 q 120 -221 181 -269 q 49 -86 60 -172 l 49 -86 l 132 -86 q 174 -201 135 -161 q 285 -242 214 -242 l 285 -242 q 375 -217 333 -242 q 442 -151 417 -192 q 468 -65 468 -111 l 468 -65 q 436 17 468 -56 l 436 17 q 396 156 404 88 l 396 156 l 188 -14 l 161 -7 q 165 13 165 1 l 165 13 q 149 51 165 31 l 149 51 q 121 92 139 65 q 86 149 103 118 q 61 206 69 181 l 61 206 q 50 290 50 246 l 50 290 q 61 388 50 343 q 107 481 72 432 l 107 481 q 181 571 135 521 q 299 685 228 621 l 299 685 l 325 685 q 385 632 325 665 l 385 632 q 525 575 447 597 l 525 575 l 525 549 q 481 336 481 483 l 481 336 q 539 67 481 154 l 539 67 l 540 44 q 507 -119 540 -49 q 415 -230 474 -190 q 278 -269 356 -269 z m 279 107 l 279 107 q 310 122 290 107 l 310 122 l 392 188 q 390 234 390 211 q 389 279 389 257 l 389 279 q 424 503 389 417 l 424 503 q 342 536 385 513 q 251 596 300 560 l 251 596 q 140 349 140 493 l 140 349 q 154 263 140 306 q 190 184 168 219 q 236 128 213 149 q 279 107 260 107 z "},"픥":{"ha":560,"x_min":42,"x_max":511,"o":"m 233 -274 l 233 -274 l 208 -257 q 428 253 428 46 l 428 253 q 278 574 428 415 l 278 574 l 176 482 l 176 157 q 192 103 176 114 l 192 103 q 214 92 200 96 l 214 92 l 276 144 l 294 124 q 175 -32 189 18 l 175 -32 l 149 -32 q 113 13 143 -12 q 42 53 83 39 l 42 53 l 42 78 q 83 133 83 85 l 83 133 l 83 819 q 58 903 83 861 l 58 903 l 78 917 q 118 843 110 885 l 118 843 q 304 978 160 978 l 304 978 l 304 949 q 203 903 231 944 q 176 771 176 861 l 176 771 l 176 521 l 354 685 l 371 671 q 367 656 367 661 l 367 656 q 372 642 367 650 q 382 628 376 635 l 382 628 q 474 486 438 564 q 511 325 511 408 l 511 325 q 233 -274 511 90 z "},"픦":{"ha":357,"x_min":42,"x_max":315,"o":"m 167 790 l 142 790 q 149 838 143 800 q 164 908 154 875 l 164 908 q 192 966 175 942 q 235 990 208 990 l 235 990 q 281 947 281 990 l 281 947 q 251 881 281 917 q 167 790 221 844 l 167 790 z m 194 -32 l 194 -32 l 172 -21 l 178 -8 q 133 36 144 19 q 122 81 122 53 l 122 81 q 122 102 122 92 q 124 124 122 113 l 124 124 q 125 149 125 136 q 125 171 125 161 l 125 171 l 125 489 q 120 531 125 519 q 104 542 115 542 l 104 542 q 60 515 88 542 l 60 515 l 42 533 q 110 602 76 563 q 175 685 143 642 l 175 685 l 194 672 q 183 643 183 656 l 183 643 q 208 613 183 633 q 258 585 233 592 l 258 585 l 258 554 q 225 534 232 549 q 218 489 218 519 l 218 489 l 218 149 q 229 110 218 124 q 250 96 240 96 l 250 96 q 294 129 264 96 l 294 129 l 315 108 q 253 43 283 78 q 194 -32 222 8 z "},"픧":{"ha":325,"x_min":42,"x_max":283,"o":"m 169 790 l 144 790 q 151 838 146 800 q 167 908 157 875 l 167 908 q 194 966 178 942 q 238 990 211 990 l 238 990 q 283 947 283 990 l 283 947 q 253 881 283 917 q 169 790 224 844 l 169 790 z m 74 -269 l 42 -269 q 113 -63 97 -168 q 128 160 128 42 l 128 160 l 128 489 q 123 531 128 519 q 107 542 118 542 l 107 542 q 63 515 90 542 l 63 515 l 44 533 q 113 602 79 563 q 178 685 146 642 l 178 685 l 197 672 q 186 643 186 656 l 186 643 q 211 613 186 633 q 261 585 236 592 l 261 585 l 261 554 q 228 534 235 549 q 221 489 221 519 l 221 489 l 221 117 q 227 45 221 82 q 244 -32 233 8 l 244 -32 l 218 -32 q 205 6 211 -12 q 196 40 199 25 l 196 40 q 74 -269 175 -92 l 74 -269 z "},"픨":{"ha":553,"x_min":42,"x_max":511,"o":"m 175 -32 l 149 -32 q 113 13 143 -12 q 42 53 83 39 l 42 53 l 42 78 q 83 133 83 85 l 83 133 l 83 819 q 58 903 83 861 l 58 903 l 78 917 q 118 843 110 885 l 118 843 q 304 978 160 978 l 304 978 l 304 949 q 203 903 231 944 q 176 771 176 861 l 176 771 l 176 540 l 392 685 l 403 667 q 392 642 392 651 l 392 642 q 421 589 392 633 l 421 589 q 450 504 450 543 l 450 504 q 404 421 450 463 l 404 421 q 339 368 379 397 l 339 368 q 398 277 376 340 q 438 133 419 214 l 438 133 q 449 108 442 115 q 465 93 456 100 l 465 93 l 492 115 l 511 99 l 406 -32 l 386 -22 l 392 -8 q 340 96 344 32 l 340 96 q 316 217 336 161 q 258 315 296 272 l 258 315 l 176 263 l 176 157 q 193 104 176 117 l 193 104 l 218 88 l 250 117 l 268 97 q 175 -32 186 3 l 175 -32 z m 176 506 l 176 296 l 307 381 q 361 456 361 417 l 361 456 q 358 475 361 461 q 343 507 354 489 l 343 507 q 299 589 322 542 l 299 589 l 176 506 z "},"픩":{"ha":375,"x_min":42,"x_max":333,"o":"m 333 106 l 163 -32 l 144 -21 q 149 -15 147 -18 q 151 -8 151 -12 l 151 -8 q 124 18 151 0 l 124 18 q 90 35 110 28 q 42 53 69 43 l 42 53 l 42 78 q 83 133 83 85 l 83 133 l 83 819 q 58 903 83 861 l 58 903 l 78 917 q 118 843 110 885 l 118 843 q 304 978 160 978 l 304 978 l 304 949 q 203 903 231 944 q 176 771 176 861 l 176 771 l 176 151 q 181 122 176 131 q 201 101 186 113 l 201 101 q 242 82 231 82 l 242 82 q 314 126 251 82 l 314 126 l 333 106 z "},"픪":{"ha":938,"x_min":42,"x_max":896,"o":"m 186 -35 l 157 -35 q 78 39 138 26 l 78 39 l 78 67 q 125 144 125 75 l 125 144 l 125 492 q 120 533 125 519 q 96 563 115 546 l 96 563 l 64 532 l 42 550 l 160 685 l 182 669 q 175 650 175 658 l 175 650 q 185 632 175 642 l 185 632 q 218 558 218 601 l 218 558 l 218 503 l 368 647 q 386 668 379 658 q 396 685 393 678 l 396 685 l 421 685 l 421 682 q 440 653 421 668 l 440 653 l 482 617 q 508 578 503 599 q 514 522 514 558 l 514 522 l 514 503 l 694 685 l 718 685 q 769 627 732 653 q 842 599 807 601 l 842 599 l 842 571 q 810 508 810 556 l 810 508 l 810 136 q 835 90 810 90 l 835 90 q 874 121 856 90 l 874 121 l 896 106 l 789 -35 l 767 -21 l 776 -6 q 728 36 742 19 q 714 81 714 53 l 714 81 q 714 109 714 93 q 715 139 714 125 l 715 139 q 717 168 717 154 q 717 192 717 182 l 717 192 l 717 506 q 703 539 717 521 q 674 567 689 557 l 674 567 q 647 579 657 579 l 647 579 q 607 554 632 579 l 607 554 l 514 463 l 514 144 q 561 67 514 75 l 561 67 l 561 39 q 482 -35 501 26 l 482 -35 l 453 -35 q 374 39 436 26 l 374 39 l 374 67 q 421 144 421 75 l 421 144 l 421 506 q 408 538 421 521 q 379 567 394 556 l 379 567 q 354 579 361 579 l 354 579 q 314 554 339 579 l 314 554 l 218 463 l 218 144 q 265 67 218 75 l 265 67 l 265 39 q 186 -35 206 26 l 186 -35 z "},"픫":{"ha":644,"x_min":42,"x_max":603,"o":"m 186 -35 l 157 -35 q 78 39 138 26 l 78 39 l 78 67 q 125 144 125 75 l 125 144 l 125 490 q 120 531 125 518 q 96 561 115 544 l 96 561 l 64 531 l 42 549 l 160 685 l 182 669 q 172 649 172 656 l 172 649 q 181 638 172 644 l 181 638 q 218 531 218 610 l 218 531 l 218 503 l 396 685 l 425 685 q 485 623 449 646 q 549 597 521 600 l 549 597 l 549 571 q 517 508 517 556 l 517 508 l 517 136 q 542 90 517 90 l 542 90 q 581 121 563 90 l 581 121 l 603 106 l 494 -35 l 474 -21 l 482 -6 q 433 36 447 19 q 419 81 419 53 l 419 81 q 420 104 419 92 q 422 128 421 117 l 422 128 q 424 157 424 143 q 424 185 424 171 l 424 185 l 424 506 q 410 539 424 522 q 381 565 396 556 l 381 565 q 353 578 364 578 l 353 578 q 314 553 339 578 l 314 553 l 218 461 l 218 144 q 265 67 218 75 l 265 67 l 265 39 q 186 -35 206 26 l 186 -35 z "},"픬":{"ha":547,"x_min":42,"x_max":499,"o":"m 264 -32 l 236 -32 q 196 7 232 -12 l 196 7 q 42 61 149 35 l 42 61 l 42 89 q 68 122 63 96 l 68 122 q 74 204 74 149 l 74 204 l 74 443 q 72 508 74 479 q 67 561 69 538 l 67 561 l 368 685 l 382 660 l 361 649 q 440 519 382 603 l 440 519 q 499 353 499 435 l 499 353 q 463 217 499 285 q 357 71 428 150 l 357 71 l 264 -32 z m 307 69 l 307 69 q 337 88 319 69 q 372 138 354 107 q 402 204 390 168 q 414 274 414 240 l 414 274 q 347 463 414 365 l 347 463 q 290 547 314 511 q 254 607 267 583 l 254 607 l 167 571 l 167 135 q 221 109 197 121 q 261 88 244 97 l 261 88 q 307 69 293 69 z "},"픭":{"ha":600,"x_min":42,"x_max":551,"o":"m 182 -269 l 153 -269 q 128 43 136 -111 l 128 43 q 108 47 119 47 l 108 47 q 64 22 88 47 l 64 22 l 42 36 l 121 147 l 121 403 q 107 515 121 493 l 107 515 q 92 537 100 526 q 78 554 85 547 l 78 554 q 64 583 64 568 l 64 583 q 80 620 64 594 q 114 672 96 646 l 114 672 l 142 713 l 167 699 q 154 665 154 676 l 154 665 q 185 613 154 647 l 185 613 q 214 542 214 579 l 214 542 l 214 535 l 419 685 l 440 664 l 421 650 q 493 533 436 608 l 493 533 q 551 376 551 454 l 551 376 q 456 153 551 276 l 456 153 q 374 46 408 92 q 321 -32 340 0 l 321 -32 l 294 -32 q 206 24 290 -12 l 206 24 q 194 -122 200 -49 q 182 -269 189 -196 l 182 -269 z m 343 74 l 343 74 q 378 96 356 74 q 422 152 400 118 q 460 224 444 186 q 475 293 475 261 l 475 293 q 458 372 475 326 q 404 469 440 417 l 404 469 q 363 531 382 503 q 331 585 344 560 l 331 585 l 214 500 l 214 136 q 281 99 254 115 l 281 99 q 343 74 322 74 z "},"픮":{"ha":554,"x_min":49,"x_max":513,"o":"m 446 -269 l 417 -269 q 404 -130 411 -233 q 386 144 397 -26 l 386 144 q 278 54 328 99 q 183 -32 228 10 l 183 -32 l 165 -19 q 171 -4 171 -12 l 171 -4 q 147 28 171 4 l 147 28 q 108 82 132 43 q 67 177 85 121 q 49 300 49 233 l 49 300 q 68 419 49 368 q 124 521 88 471 l 124 521 q 183 586 142 544 q 292 685 225 628 l 292 685 l 319 685 q 397 631 349 657 q 513 578 446 604 l 513 578 l 513 551 q 489 503 493 544 l 489 503 q 482 406 485 468 q 475 226 479 343 l 475 226 q 464 -21 471 97 q 446 -269 457 -139 l 446 -269 z m 264 93 l 264 93 q 296 110 275 93 l 296 110 l 386 181 l 386 526 q 253 610 311 563 l 253 610 q 138 368 138 522 l 138 368 q 151 268 138 317 q 184 180 164 219 q 226 117 204 140 q 264 93 247 93 z "},"픯":{"ha":451,"x_min":42,"x_max":410,"o":"m 394 126 l 232 -32 l 210 -22 q 214 -12 214 -15 l 214 -12 q 206 -1 214 -8 q 188 11 197 6 l 188 11 q 133 45 161 29 q 75 72 104 61 l 75 72 l 75 97 q 125 165 125 104 l 125 165 l 125 488 q 120 528 125 515 q 92 558 115 542 l 92 558 l 60 531 l 42 549 l 158 685 l 181 671 q 175 650 175 657 l 175 650 q 182 633 175 640 l 182 633 q 218 561 218 597 l 218 561 l 218 521 q 256 581 238 556 q 290 625 275 607 l 290 625 q 324 685 321 660 l 324 685 l 347 685 q 410 583 357 633 l 410 583 l 410 547 q 357 463 381 514 l 357 463 l 331 463 q 275 557 317 507 l 275 557 l 246 513 q 223 467 228 485 q 218 418 218 450 l 218 418 l 218 140 q 229 114 218 121 l 229 114 q 286 79 276 79 l 286 79 q 303 86 296 79 l 303 86 l 374 147 l 394 126 z "},"픰":{"ha":554,"x_min":42,"x_max":506,"o":"m 243 -32 l 218 -32 q 168 19 214 -14 l 168 19 q 114 55 146 35 q 42 99 82 75 l 42 99 l 42 125 q 118 186 85 144 q 151 265 151 228 l 151 265 q 100 372 151 303 l 100 372 q 47 471 47 444 l 47 471 q 83 536 47 496 l 83 536 q 253 685 222 685 l 253 685 q 261 681 257 683 q 269 675 265 678 l 269 675 q 334 635 303 650 q 394 621 365 621 l 394 621 q 476 703 476 621 l 476 703 q 451 780 476 750 q 390 810 426 810 l 390 810 q 322 738 335 810 l 322 738 q 291 759 306 750 q 264 772 276 768 l 264 772 q 372 846 296 846 l 372 846 q 466 804 426 846 q 506 703 506 763 l 506 703 q 460 585 506 643 l 460 585 l 358 454 q 465 366 429 418 q 501 256 501 314 l 501 256 q 304 13 501 106 l 304 13 q 243 -32 268 -4 l 243 -32 z m 235 342 l 235 342 l 376 522 q 225 585 307 522 l 225 585 q 199 594 211 594 l 199 594 q 171 581 188 594 q 142 549 154 567 q 129 521 129 532 l 129 521 q 169 450 129 503 l 169 450 q 235 342 211 396 z m 307 58 l 307 58 q 361 77 333 58 q 409 127 389 96 q 429 193 429 158 l 429 193 q 404 272 429 233 q 348 335 379 310 q 296 360 317 360 l 296 360 q 271 340 286 360 l 271 340 l 136 168 l 244 89 q 281 67 265 75 q 307 58 296 58 z "},"픱":{"ha":369,"x_min":42,"x_max":328,"o":"m 193 -35 l 193 -35 l 169 -25 l 175 -10 q 120 24 146 10 q 72 46 94 39 l 72 46 l 72 72 q 106 94 100 79 q 111 144 111 110 l 111 144 l 111 550 l 42 550 l 42 582 q 133 682 96 618 q 206 838 171 746 l 206 838 l 235 838 q 204 631 204 721 l 204 631 l 328 631 l 328 550 l 204 550 l 204 115 q 254 83 249 83 l 254 83 q 275 93 265 83 l 275 93 l 310 121 l 326 101 q 263 41 296 75 q 193 -35 229 7 z "},"픲":{"ha":636,"x_min":42,"x_max":594,"o":"m 214 -32 l 214 -32 l 193 -22 q 196 -14 196 -17 l 196 -14 q 169 10 196 -4 l 169 10 q 137 26 156 17 q 93 44 118 35 l 93 44 l 93 74 q 117 93 110 79 q 124 140 124 107 l 124 140 l 124 494 q 119 533 124 518 q 90 565 114 547 l 90 565 l 64 542 l 42 560 l 150 685 l 171 674 q 165 660 165 664 l 165 660 q 179 642 165 650 l 179 642 q 217 560 217 619 l 217 560 l 217 156 q 229 113 217 119 l 229 113 q 285 86 276 86 l 285 86 q 301 93 290 86 q 331 111 313 100 l 331 111 q 419 190 364 133 l 419 190 l 419 508 q 372 585 419 576 l 372 585 l 372 614 q 451 685 433 626 l 451 685 l 481 685 q 560 614 500 626 l 560 614 l 560 585 q 513 508 513 576 l 513 508 l 513 140 q 532 94 513 94 l 532 94 q 572 132 547 94 l 572 132 l 594 114 l 472 -32 l 453 -21 l 461 -8 q 427 31 435 11 q 419 81 419 50 l 419 81 l 419 147 q 350 85 382 113 q 290 38 318 57 l 290 38 q 244 1 264 18 q 214 -32 225 -17 z "},"픳":{"ha":589,"x_min":42,"x_max":540,"o":"m 285 -32 l 256 -32 q 239 -15 249 -22 q 206 4 229 -7 l 206 4 q 145 31 175 19 q 81 51 115 43 l 81 51 l 81 79 q 107 95 101 83 q 113 139 113 107 l 113 139 l 113 410 q 78 500 113 457 l 78 500 q 42 565 42 544 l 42 565 q 131 715 42 604 l 131 715 l 153 706 q 136 650 136 675 l 136 650 q 169 579 136 624 l 169 579 q 206 519 201 536 l 206 519 l 400 685 l 422 685 l 422 667 q 442 622 422 650 l 442 622 q 540 372 540 481 l 540 372 q 505 221 540 290 q 388 69 469 151 l 388 69 l 285 -32 z m 333 67 l 333 67 q 365 85 344 67 q 406 137 385 104 q 442 210 428 169 q 457 294 457 251 l 457 294 q 328 585 457 429 l 328 585 l 206 482 l 206 125 l 314 72 q 333 67 325 67 z "},"픴":{"ha":840,"x_min":42,"x_max":792,"o":"m 163 -32 l 133 -32 q 54 39 115 26 l 54 39 l 54 67 q 101 144 101 75 l 101 144 l 101 410 q 72 510 101 475 l 72 510 q 42 569 42 546 l 42 569 q 119 715 42 613 l 119 715 l 142 706 q 131 660 131 672 l 131 660 q 161 594 131 638 l 161 594 q 192 518 192 550 l 192 518 l 353 685 l 375 685 l 375 674 q 388 646 375 658 l 388 646 l 415 617 q 448 575 433 599 q 468 517 463 551 l 468 517 l 658 685 l 681 685 l 681 661 q 685 636 681 649 q 699 608 690 624 l 699 608 l 736 547 q 774 469 756 514 q 792 365 792 424 l 792 365 q 777 261 792 311 q 725 156 763 211 q 618 32 688 101 l 618 32 l 554 -32 l 525 -32 q 350 42 472 13 l 350 42 l 350 69 q 375 85 369 74 q 381 129 381 97 l 381 129 l 381 417 q 356 526 381 485 q 307 568 332 568 l 307 568 q 256 540 283 568 l 256 540 l 194 481 l 194 144 q 242 67 194 75 l 242 67 l 242 39 q 163 -32 182 26 l 163 -32 z m 596 60 l 596 60 q 613 69 603 60 q 643 100 624 78 l 643 100 q 688 175 665 125 q 710 279 710 225 l 710 279 q 678 429 710 358 q 586 582 646 500 l 586 582 l 474 482 l 474 115 l 568 69 q 583 63 576 65 q 596 60 590 60 z "},"픵":{"ha":556,"x_min":42,"x_max":514,"o":"m 514 107 l 401 -39 l 381 -26 l 389 -8 q 347 57 369 0 l 347 57 l 268 260 l 132 -29 l 104 -29 q 42 75 79 29 l 42 75 l 42 104 q 94 186 71 143 l 94 186 l 119 186 q 163 108 136 142 l 163 108 l 250 294 l 167 492 q 135 548 149 532 q 110 568 122 564 l 110 568 l 72 529 l 50 550 l 172 688 l 190 669 l 185 650 q 215 620 200 642 q 249 550 231 599 l 249 550 l 297 422 l 424 678 l 451 678 q 506 581 468 618 l 506 581 l 506 551 q 457 463 476 511 l 457 463 l 432 463 q 415 498 426 478 q 389 542 404 518 l 389 542 l 313 388 l 411 156 q 457 92 438 92 l 457 92 q 494 122 468 92 l 494 122 l 514 107 z "},"픶":{"ha":578,"x_min":42,"x_max":529,"o":"m 251 -274 l 251 -274 l 226 -257 q 446 253 446 46 l 446 253 q 296 574 446 415 l 296 574 l 194 482 l 194 142 q 225 92 194 92 l 225 92 l 283 131 l 301 110 q 168 -32 189 10 l 168 -32 l 142 -32 q 60 49 114 18 l 60 49 l 60 76 q 94 95 88 82 q 101 157 101 108 l 101 157 l 101 442 q 93 496 101 478 q 71 529 85 514 l 71 529 l 57 544 q 42 575 42 560 l 42 575 q 129 719 42 606 l 129 719 l 153 707 q 142 668 142 682 l 142 668 q 168 610 142 653 l 168 610 q 188 567 182 588 q 194 521 193 546 l 194 521 l 372 685 l 389 671 q 385 656 385 663 l 385 656 q 399 629 385 643 l 399 629 q 430 591 408 621 q 474 522 451 561 q 510 446 497 483 l 510 446 q 524 388 519 418 q 529 325 529 358 l 529 325 q 251 -274 529 90 z "},"픷":{"ha":419,"x_min":49,"x_max":371,"o":"m 200 -269 l 200 -269 q 91 -217 133 -269 q 49 -78 49 -165 l 49 -78 q 183 185 49 79 l 183 185 q 151 219 171 201 q 101 253 131 236 l 101 253 l 101 278 q 247 457 247 356 l 247 457 q 223 530 247 503 q 171 557 199 557 l 171 557 q 133 548 147 557 q 99 518 118 539 l 99 518 l 78 536 l 217 708 l 240 694 q 237 686 239 690 q 235 678 235 682 l 235 678 q 253 658 235 667 l 253 658 q 346 536 346 615 l 346 536 q 214 322 346 454 l 214 322 q 265 275 246 294 q 292 244 285 256 l 292 244 q 319 258 301 250 q 361 275 336 265 l 361 275 l 369 249 q 338 235 353 243 q 308 219 324 228 l 308 219 q 371 -3 371 126 l 371 -3 q 349 -141 371 -81 q 288 -235 326 -201 q 200 -269 250 -269 z m 196 -236 l 196 -236 q 265 -197 238 -236 q 293 -82 293 -157 l 293 -82 q 200 163 293 50 l 200 163 q 78 -78 78 61 l 78 -78 q 113 -193 78 -150 q 196 -236 147 -236 z "},"햆":{"ha":708,"x_min":49,"x_max":667,"o":"m 161 -32 l 161 -32 l 133 0 l 150 17 q 136 44 150 28 l 136 44 q 49 300 49 161 l 49 300 q 75 417 49 361 q 154 531 101 474 l 154 531 q 236 608 185 563 q 335 692 288 653 l 335 692 l 376 692 l 376 678 q 495 628 440 647 q 594 601 550 608 l 594 601 l 594 560 q 561 538 569 553 q 553 486 553 522 l 553 486 l 553 196 q 581 135 553 135 l 581 135 q 636 172 603 135 l 636 172 l 667 143 l 514 -32 l 481 -7 l 494 8 q 390 119 390 53 l 390 119 l 390 142 q 276 56 333 99 q 161 -32 218 13 z m 289 131 l 289 131 q 321 149 299 131 l 321 149 l 390 203 l 390 513 q 347 533 372 521 q 299 558 321 546 q 269 575 278 569 l 269 575 q 219 491 231 539 q 208 365 208 443 l 208 365 q 214 303 208 342 q 231 224 219 264 q 256 158 242 185 q 289 131 271 131 z "},"햇":{"ha":635,"x_min":42,"x_max":586,"o":"m 304 -32 l 265 -32 q 249 -13 265 -25 q 206 11 232 -1 l 206 11 q 121 47 168 31 q 42 67 74 63 l 42 67 l 42 108 q 74 204 74 114 l 74 204 l 74 828 q 44 936 74 889 l 44 936 l 81 964 q 143 839 122 931 l 143 839 q 224 967 168 921 q 360 1013 279 1013 l 360 1013 l 360 971 q 263 928 289 967 q 236 808 236 890 l 236 808 l 236 597 l 439 707 l 461 667 q 450 649 450 658 l 450 649 q 462 623 450 643 q 492 571 474 603 l 492 571 q 552 465 532 504 q 579 402 572 426 q 586 353 586 378 l 586 353 q 576 292 586 322 q 535 223 565 263 q 447 121 506 183 l 447 121 l 304 -32 z m 358 107 l 358 107 q 393 133 376 107 q 420 201 410 160 q 431 288 431 243 l 431 288 q 408 384 431 328 q 343 514 385 440 l 343 514 l 306 581 l 236 542 l 236 175 q 251 147 236 156 l 251 147 l 311 119 q 358 107 339 107 z "},"했":{"ha":518,"x_min":49,"x_max":476,"o":"m 457 168 l 225 -32 l 192 -7 l 211 15 q 133 67 171 39 q 72 133 96 96 q 49 218 49 171 l 49 218 l 49 463 q 56 520 49 500 q 93 563 63 540 l 93 563 l 265 692 q 306 707 285 707 l 306 707 q 369 674 328 707 l 369 674 q 421 642 410 642 l 421 642 q 449 660 426 642 l 449 660 l 476 629 l 400 550 q 353 517 367 517 l 353 517 q 319 535 343 517 l 319 535 q 282 563 304 546 q 226 606 260 579 l 226 606 q 211 539 211 590 l 211 539 l 211 268 q 217 212 211 233 q 260 167 224 190 l 260 167 q 322 139 304 139 l 322 139 q 431 200 361 139 l 431 200 l 457 168 z "},"행":{"ha":678,"x_min":42,"x_max":629,"o":"m 340 -32 l 299 -32 q 263 1 299 -19 q 172 44 228 22 q 50 83 115 67 l 50 83 l 50 125 q 78 158 74 133 q 82 217 82 183 l 82 217 l 82 442 q 81 505 82 476 q 75 556 79 533 l 75 556 q 160 606 117 581 q 247 656 204 631 l 247 656 q 82 769 124 724 l 82 769 q 42 861 42 814 l 42 861 q 108 969 42 926 q 289 1013 175 1013 l 289 1013 l 289 971 l 283 971 q 219 953 242 971 q 196 911 196 936 l 196 911 q 238 842 196 874 l 238 842 q 302 799 258 826 q 410 733 346 772 l 410 733 q 544 635 496 682 q 610 542 592 589 q 629 443 629 496 l 629 443 q 594 297 629 371 q 510 161 558 224 l 510 161 q 443 81 485 129 q 340 -32 401 33 l 340 -32 z m 374 100 l 374 100 q 443 185 406 100 l 443 185 q 481 376 481 271 l 481 376 q 465 476 481 436 q 410 550 449 517 q 303 622 371 583 l 303 622 l 256 596 q 244 581 244 589 l 244 581 l 244 171 q 338 119 310 139 l 338 119 q 374 100 365 100 z "},"햊":{"ha":550,"x_min":49,"x_max":501,"o":"m 497 172 l 289 -32 l 251 -14 l 257 4 q 94 105 139 44 q 49 253 49 165 l 49 253 l 49 449 q 58 512 49 493 q 93 549 67 531 l 93 549 l 328 707 l 358 707 l 492 508 q 501 485 501 494 l 501 485 q 485 464 501 476 l 485 464 l 213 258 q 233 201 213 226 q 285 160 254 175 q 343 146 315 146 l 343 146 q 407 158 382 146 q 469 203 432 169 l 469 203 l 497 172 z m 211 489 l 211 321 l 350 424 q 358 435 358 431 l 358 435 q 353 448 358 439 q 339 469 347 457 l 339 469 l 257 599 q 226 574 236 585 q 214 544 217 563 q 211 489 211 526 l 211 489 z "},"햋":{"ha":560,"x_min":42,"x_max":518,"o":"m 211 -269 l 172 -269 l 151 -68 q 119 258 131 132 q 107 435 107 383 l 107 435 l 107 550 l 42 550 l 42 592 q 90 619 68 599 q 119 686 111 640 l 119 686 q 134 757 126 719 q 150 832 142 794 l 150 832 q 210 961 167 910 q 321 1013 254 1013 l 321 1013 q 355 1010 339 1013 q 390 1001 371 1007 l 390 1001 q 426 992 414 996 q 447 989 439 989 l 447 989 q 481 1011 465 989 l 481 1011 l 518 992 l 435 835 q 347 876 394 861 q 272 892 299 892 l 272 892 q 217 846 217 892 l 217 846 q 238 767 217 811 l 238 767 q 283 647 257 725 l 283 647 l 424 647 l 424 550 l 283 550 l 283 365 q 270 189 283 307 q 233 -107 257 71 l 233 -107 l 211 -269 z "},"햌":{"ha":676,"x_min":49,"x_max":628,"o":"m 321 -276 l 321 -276 q 132 -226 204 -276 q 49 -89 60 -176 l 49 -89 l 179 -89 q 328 -226 186 -226 l 328 -226 q 410 -203 374 -226 q 469 -141 447 -179 q 492 -58 492 -103 l 492 -58 q 457 29 492 -42 l 457 29 q 413 168 422 101 l 413 168 l 190 -17 l 153 -1 q 165 31 165 11 l 165 31 q 154 61 165 47 l 154 61 q 127 98 146 71 q 90 158 108 125 q 64 217 72 190 l 64 217 q 55 259 58 236 q 51 307 51 282 l 51 307 q 65 398 51 354 q 106 482 78 442 l 106 482 q 192 578 133 522 q 342 707 251 635 l 342 707 l 382 707 q 439 663 382 694 l 439 663 q 509 632 467 647 q 608 601 551 617 l 608 601 l 608 560 q 571 470 581 519 q 561 339 561 421 l 561 339 q 626 78 561 171 l 626 78 q 628 62 628 69 q 628 46 628 54 l 628 46 q 589 -119 628 -46 q 481 -234 550 -192 q 321 -276 413 -276 z m 310 163 l 310 163 q 347 179 326 163 l 347 179 l 403 219 q 399 297 399 260 l 399 297 q 431 497 399 399 l 431 497 q 274 581 346 524 l 274 581 q 219 495 236 544 q 201 364 201 446 l 201 364 q 220 263 201 308 q 265 190 239 217 q 310 163 290 163 z "},"햍":{"ha":647,"x_min":42,"x_max":599,"o":"m 299 -278 l 299 -278 l 265 -254 q 374 -81 333 -160 q 431 76 414 -3 q 449 246 449 154 l 449 246 q 422 399 449 326 q 326 554 394 472 l 326 554 l 250 496 l 250 169 q 274 140 250 150 l 274 140 q 293 136 285 136 l 293 136 l 340 178 l 368 147 q 249 41 289 83 q 194 -32 208 -1 l 194 -32 l 153 -32 q 107 25 142 1 q 42 54 72 49 l 42 54 l 42 96 q 77 120 67 96 q 88 167 88 144 l 88 167 l 88 832 q 58 936 88 893 l 58 936 l 94 964 q 157 839 139 931 l 157 839 q 238 967 182 921 q 374 1013 293 1013 l 374 1013 l 374 971 q 276 928 303 967 q 250 808 250 890 l 250 808 l 250 556 l 453 707 l 482 676 q 467 649 467 665 l 467 649 q 497 603 467 639 l 497 603 q 542 536 518 578 q 582 442 565 494 q 599 329 599 389 l 599 329 q 569 138 599 233 q 473 -59 539 43 q 299 -278 407 -161 z "},"햎":{"ha":483,"x_min":42,"x_max":442,"o":"m 203 768 l 160 768 q 173 833 167 800 q 188 900 179 865 l 188 900 q 227 994 203 961 q 290 1026 251 1026 l 290 1026 q 347 969 347 1026 l 347 969 q 323 907 347 943 q 265 834 299 871 q 203 768 231 797 l 203 768 z m 281 -32 l 281 -32 l 244 -10 l 253 4 q 181 51 204 28 q 157 122 157 75 l 157 122 q 158 154 157 138 q 160 186 158 171 l 160 186 q 161 211 161 199 q 161 238 161 224 l 161 238 l 161 475 q 156 517 161 506 q 132 528 151 528 l 132 528 q 69 494 107 528 l 69 494 l 42 525 q 226 707 119 582 l 226 707 l 263 685 q 246 654 246 663 l 246 654 q 267 624 246 642 q 317 592 289 606 q 361 578 344 578 l 361 578 l 361 536 q 324 476 324 532 l 324 476 l 324 193 q 328 147 324 161 q 353 132 333 132 l 353 132 q 411 176 367 132 l 411 176 l 442 149 q 351 56 393 104 q 281 -32 308 8 z "},"햏":{"ha":403,"x_min":42,"x_max":361,"o":"m 203 768 l 160 768 l 186 894 q 290 1026 214 1026 l 290 1026 q 347 969 347 1026 l 347 969 q 323 907 347 943 q 265 834 299 871 q 203 768 231 797 l 203 768 z m 118 -278 l 75 -278 q 112 -206 96 -242 q 139 -122 128 -169 q 156 -8 150 -75 q 161 160 161 60 l 161 160 l 161 479 q 132 528 161 528 l 132 528 q 69 494 107 528 l 69 494 l 42 525 q 226 707 119 582 l 226 707 l 263 685 q 246 654 246 663 l 246 654 q 267 624 246 642 q 317 592 289 606 q 361 578 344 578 l 361 578 l 361 536 q 324 481 324 532 l 324 481 l 324 117 q 330 45 324 82 q 347 -32 336 8 l 347 -32 l 306 -32 q 292 4 301 -19 q 276 52 283 28 q 268 89 269 76 l 268 89 q 118 -278 243 -86 l 118 -278 z "},"햐":{"ha":679,"x_min":42,"x_max":638,"o":"m 194 -32 l 153 -32 q 107 25 142 1 q 42 54 72 49 l 42 54 l 42 96 q 77 117 67 96 q 88 167 88 139 l 88 167 l 88 832 q 81 892 88 871 q 58 936 74 914 l 58 936 l 94 964 q 157 839 135 933 l 157 839 q 238 967 182 921 q 374 1013 293 1013 l 374 1013 l 374 971 q 276 926 303 967 q 249 803 249 885 l 249 803 l 249 560 l 496 710 l 522 682 q 513 663 513 671 l 513 663 q 540 599 513 657 l 540 599 q 568 515 568 540 l 568 515 q 540 467 568 489 l 540 467 q 506 440 526 456 q 458 404 486 424 l 458 404 q 551 190 531 344 l 551 190 q 563 158 554 168 q 583 138 572 147 l 583 138 l 607 161 l 638 135 l 479 -32 l 444 -8 l 463 13 q 410 117 418 43 l 410 117 q 394 199 404 167 q 367 258 383 232 q 324 313 350 285 l 324 313 l 249 267 l 249 176 q 269 138 249 154 l 269 138 l 283 128 l 322 161 l 347 131 q 256 49 297 92 q 194 -32 214 7 l 194 -32 z m 249 500 l 249 325 l 379 411 q 417 464 417 435 l 417 464 q 414 491 417 478 q 403 518 411 504 l 403 518 q 374 576 389 543 l 374 576 l 249 500 z "},"햑":{"ha":468,"x_min":42,"x_max":426,"o":"m 426 140 l 243 -32 l 206 -14 q 219 7 219 0 l 219 7 q 146 50 219 21 l 146 50 q 99 68 125 58 q 42 88 74 78 l 42 88 l 42 129 q 70 163 65 136 q 75 226 75 190 l 75 226 l 75 831 q 70 884 75 863 q 46 936 65 906 l 46 936 l 82 964 q 144 839 124 931 l 144 839 q 225 967 169 921 q 361 1013 281 1013 l 361 1013 l 361 971 q 264 928 290 967 q 238 808 238 890 l 238 808 l 238 222 q 254 176 238 185 l 254 176 q 344 138 328 138 l 344 138 q 396 168 365 138 l 396 168 l 426 140 z "},"햒":{"ha":1096,"x_min":42,"x_max":1054,"o":"m 229 -32 l 188 -32 q 144 25 178 1 q 81 54 111 49 l 81 54 l 81 96 q 126 167 126 104 l 126 167 l 126 450 q 99 550 126 535 l 99 550 l 72 522 l 42 550 l 183 707 l 217 681 q 208 667 208 672 l 208 667 q 214 659 208 663 q 225 653 219 656 l 225 653 q 275 608 261 633 q 289 542 289 582 l 289 542 l 289 524 l 432 650 q 479 707 479 693 l 479 707 l 521 707 l 521 703 q 540 675 521 690 l 540 675 l 574 649 q 613 572 613 618 l 613 572 l 613 526 l 804 707 l 846 707 q 906 647 869 669 q 974 621 943 624 l 974 621 l 974 579 q 936 519 936 565 l 936 519 l 936 186 q 942 144 936 156 q 963 132 949 132 l 963 132 q 988 143 974 132 q 1024 176 1001 154 l 1024 176 l 1054 149 l 893 -32 l 857 -10 l 865 4 q 795 49 821 24 q 769 117 769 74 l 769 117 q 769 140 769 128 q 771 167 769 153 l 771 167 q 773 197 772 182 q 774 228 774 211 l 774 228 l 774 479 q 743 550 774 531 l 743 550 q 728 557 733 557 l 728 557 q 710 544 722 557 l 710 544 l 613 458 l 613 167 q 658 96 613 104 l 658 96 l 658 54 q 596 25 628 49 q 553 -32 564 1 l 553 -32 l 511 -32 q 469 25 501 1 q 404 54 436 49 l 404 54 l 404 96 q 450 167 450 104 l 450 167 l 450 479 q 419 550 450 531 l 419 550 q 404 557 410 557 l 404 557 q 386 544 399 557 l 386 544 l 289 458 l 289 167 q 335 96 289 104 l 335 96 l 335 54 q 272 25 304 49 q 229 -32 240 1 l 229 -32 z "},"햓":{"ha":769,"x_min":42,"x_max":728,"o":"m 229 -32 l 188 -32 q 144 25 178 1 q 81 54 111 49 l 81 54 l 81 96 q 126 167 126 104 l 126 167 l 126 450 q 99 550 126 535 l 99 550 l 72 522 l 42 550 l 183 707 l 217 681 q 208 668 208 672 l 208 668 q 221 657 208 664 l 221 657 q 289 538 289 624 l 289 538 l 289 524 l 475 707 l 517 707 q 578 647 539 669 q 647 621 617 624 l 647 621 l 647 579 q 610 519 610 565 l 610 519 l 610 186 q 615 144 610 157 q 639 132 621 132 l 639 132 q 697 176 653 132 l 697 176 l 728 149 l 567 -32 l 531 -10 l 539 4 q 467 51 490 28 q 443 122 443 75 l 443 122 q 444 149 443 136 q 446 176 444 163 l 446 176 q 447 203 447 190 q 447 231 447 217 l 447 231 l 447 481 q 417 551 447 532 l 417 551 q 401 558 407 558 l 401 558 q 383 546 396 558 l 383 546 l 289 456 l 289 167 q 335 96 289 104 l 335 96 l 335 54 q 272 25 304 49 q 229 -32 240 1 l 229 -32 z "},"햔":{"ha":635,"x_min":42,"x_max":586,"o":"m 318 -32 l 276 -32 q 215 8 272 -18 l 215 8 q 42 67 158 35 l 42 67 l 42 108 q 58 119 51 113 q 68 135 65 125 l 68 135 q 72 160 71 143 q 74 204 74 178 l 74 204 l 74 442 q 72 505 74 476 q 67 556 69 533 l 67 556 l 440 707 l 461 668 l 442 658 q 467 610 449 643 q 506 544 485 578 q 539 489 526 510 l 539 489 q 576 414 567 444 q 586 353 586 383 l 586 353 q 552 242 586 300 q 436 96 518 185 l 436 96 l 318 -32 z m 364 100 l 364 100 q 390 124 374 100 q 419 189 406 149 q 432 276 432 229 l 432 276 q 378 444 432 356 l 378 444 q 299 594 324 535 l 299 594 l 236 569 l 236 156 l 311 118 q 342 104 331 108 q 364 100 354 100 z "},"햕":{"ha":707,"x_min":42,"x_max":658,"o":"m 242 -278 l 200 -278 q 146 61 156 -67 l 146 61 q 126 65 136 65 l 126 65 q 74 33 101 65 l 74 33 l 42 58 l 139 165 l 139 415 q 125 526 139 503 l 125 526 q 97 565 111 551 l 97 565 q 82 596 82 581 l 82 596 q 156 697 82 611 l 156 697 l 199 749 l 232 724 q 219 690 219 701 l 219 690 q 258 636 219 672 l 258 636 q 297 564 297 601 l 297 564 l 297 553 l 526 707 l 551 674 l 532 658 q 601 547 544 625 l 601 547 q 658 382 658 469 l 658 382 q 635 279 658 335 q 561 158 611 224 l 561 158 q 478 45 511 93 q 425 -32 444 -3 l 425 -32 l 383 -32 q 289 24 379 -10 l 289 24 q 272 -103 283 -28 q 242 -278 261 -179 l 242 -278 z m 431 110 l 431 110 q 482 140 458 110 q 520 215 506 169 q 535 311 535 261 l 535 311 q 478 446 535 369 l 478 446 q 400 564 424 518 l 400 564 l 297 493 l 297 175 q 342 149 321 160 q 382 128 363 138 l 382 128 q 431 110 419 110 z "},"햖":{"ha":653,"x_min":49,"x_max":611,"o":"m 503 -278 l 464 -278 q 453 -185 460 -243 q 438 -61 446 -128 q 424 67 431 6 q 413 169 417 128 l 413 169 q 301 74 357 122 q 189 -25 246 26 l 189 -25 l 158 1 q 168 14 164 7 q 172 28 172 21 l 172 28 q 157 57 172 40 l 157 57 q 81 172 114 107 q 49 304 49 238 l 49 304 q 74 423 49 367 q 147 536 99 479 l 147 536 q 222 608 172 565 q 343 707 271 650 l 343 707 l 385 707 q 469 650 413 676 q 611 600 526 624 l 611 600 l 611 558 q 593 533 601 557 q 582 482 585 510 l 582 482 q 572 384 578 444 q 559 253 565 324 q 546 110 553 182 l 546 110 q 526 -96 536 1 q 503 -278 515 -193 l 503 -278 z m 308 161 l 308 161 q 346 178 325 161 l 346 178 l 413 232 l 413 501 q 276 585 343 532 l 276 585 q 200 367 200 508 l 200 367 q 218 260 200 307 q 262 188 236 214 q 308 161 288 161 z "},"햗":{"ha":550,"x_min":42,"x_max":508,"o":"m 482 156 l 283 -32 l 250 -10 q 260 11 260 4 l 260 11 q 222 40 260 22 l 222 40 q 169 62 201 50 q 94 88 138 74 l 94 88 l 94 129 q 126 201 126 140 l 126 201 l 126 450 q 99 550 126 535 l 99 550 l 72 522 l 42 550 l 183 707 l 217 681 q 208 668 208 672 l 208 668 q 221 657 208 664 l 221 657 q 289 538 289 624 l 289 538 l 289 524 q 368 651 351 622 l 368 651 q 381 676 375 664 q 392 707 388 689 l 392 707 l 429 707 q 508 601 453 632 l 508 601 l 508 549 q 470 509 489 539 q 442 443 451 479 l 442 443 l 400 443 q 353 543 393 510 l 353 543 l 299 460 q 289 425 289 444 l 289 425 l 289 222 q 295 188 289 196 q 329 164 301 179 l 329 164 q 369 145 356 150 q 390 140 383 140 l 390 140 q 419 154 406 140 l 419 154 l 451 183 l 482 156 z "},"햘":{"ha":642,"x_min":42,"x_max":593,"o":"m 288 -32 l 244 -32 q 232 -11 243 -25 q 199 17 221 3 l 199 17 q 140 53 176 32 q 54 104 104 75 l 54 104 l 54 146 q 158 261 158 207 l 158 261 q 100 365 158 303 l 100 365 q 42 453 42 428 l 42 453 q 86 531 42 479 l 86 531 q 160 609 119 568 q 235 678 200 650 q 282 707 269 707 l 282 707 q 311 693 293 707 l 311 693 q 449 632 392 632 l 449 632 q 518 661 490 632 q 546 733 546 690 l 546 733 q 517 808 546 778 q 449 838 488 838 l 449 838 q 386 808 415 838 q 351 743 357 779 l 351 743 q 289 789 325 771 l 289 789 q 347 858 308 831 q 435 886 385 886 l 435 886 q 513 867 476 886 q 571 813 549 847 q 593 733 593 778 l 593 733 q 579 656 593 692 q 528 575 565 619 l 528 575 l 438 465 q 548 367 511 425 q 585 254 585 308 l 585 254 q 545 138 585 190 q 432 51 506 86 l 432 51 q 344 9 374 24 q 304 -14 315 -6 q 288 -32 293 -22 l 288 -32 z m 274 363 l 274 363 l 396 501 q 236 567 318 501 l 236 567 q 211 578 224 578 l 211 578 q 184 560 200 578 q 168 528 168 542 l 168 528 q 217 450 168 510 l 217 450 q 254 399 240 421 q 274 363 268 378 z m 369 79 l 369 79 q 437 111 410 79 q 464 188 464 143 l 464 188 q 441 256 464 221 q 389 314 418 290 q 339 338 360 338 l 339 338 q 308 318 325 338 l 308 318 l 194 188 q 265 135 236 157 q 311 103 293 114 l 311 103 q 369 79 347 79 z "},"햙":{"ha":481,"x_min":42,"x_max":439,"o":"m 250 -32 l 250 -32 l 214 -10 l 232 13 q 75 72 133 64 l 75 72 l 75 114 q 107 186 107 125 l 107 186 l 107 550 l 42 550 l 42 592 q 169 713 128 651 q 235 857 211 774 l 235 857 l 283 857 q 273 761 276 814 q 269 647 269 708 l 269 647 l 431 647 l 431 550 l 269 550 l 269 171 q 360 133 351 133 l 360 133 q 385 147 367 133 l 385 147 l 411 168 l 439 138 q 344 54 392 96 q 250 -32 296 13 z "},"햚":{"ha":768,"x_min":42,"x_max":726,"o":"m 236 -32 l 236 -32 l 199 -14 q 204 -1 204 -6 l 204 -1 q 165 24 204 6 l 165 24 q 127 40 147 32 q 83 56 107 47 l 83 56 l 83 97 q 132 165 132 100 l 132 165 l 132 464 q 104 550 132 535 l 104 550 l 72 517 l 42 544 l 189 707 l 222 681 q 214 668 214 672 l 214 668 q 226 657 214 664 l 226 657 q 294 535 294 624 l 294 535 l 294 181 q 296 153 294 161 q 301 140 297 144 l 301 140 q 318 128 308 133 q 338 122 328 122 l 338 122 q 378 144 350 122 l 378 144 q 408 170 392 156 q 446 206 425 185 l 446 206 l 446 517 q 400 579 446 571 l 400 579 l 400 621 q 463 651 431 628 q 506 707 496 674 l 506 707 l 547 707 q 591 651 558 674 q 654 621 624 628 l 654 621 l 654 579 q 608 508 608 571 l 608 508 l 608 186 q 614 144 608 157 q 638 132 619 132 l 638 132 q 696 176 651 132 l 696 176 l 726 149 l 565 -32 l 529 -10 l 538 4 q 467 49 489 28 q 446 117 446 69 l 446 117 l 446 149 q 377 91 415 122 q 303 33 339 60 l 303 33 q 261 -3 279 15 q 236 -32 243 -21 z "},"햛":{"ha":664,"x_min":42,"x_max":615,"o":"m 346 -32 l 304 -32 q 257 0 303 -19 l 257 0 q 187 24 233 11 q 71 56 140 38 l 71 56 l 71 97 q 103 178 103 108 l 103 178 l 103 450 q 72 531 103 494 l 72 531 q 42 583 42 567 l 42 583 q 175 749 42 615 l 175 749 l 210 726 q 189 676 189 693 l 189 676 q 225 610 189 654 l 225 610 q 265 542 261 565 l 265 542 l 460 707 l 501 707 l 501 682 q 522 629 501 661 l 522 629 q 588 507 561 571 q 615 369 615 443 l 615 369 q 579 243 615 307 q 467 97 543 179 l 467 97 l 346 -32 z m 385 100 l 385 100 q 414 126 396 100 q 447 192 432 151 q 461 276 461 232 l 461 276 q 441 413 461 350 q 363 558 421 476 l 363 558 l 265 476 l 265 144 l 360 106 q 385 100 372 100 z "},"햜":{"ha":978,"x_min":42,"x_max":929,"o":"m 206 -32 l 164 -32 q 121 25 154 1 q 57 54 88 49 l 57 54 l 57 96 q 103 158 103 103 l 103 158 l 103 456 q 94 494 103 475 q 71 532 86 514 l 71 532 q 42 583 42 568 l 42 583 q 175 749 42 615 l 175 749 l 210 726 q 189 676 189 693 l 189 676 q 226 611 189 651 l 226 611 q 256 575 246 590 q 265 540 265 560 l 265 540 l 453 707 l 494 707 l 494 696 q 501 678 494 686 q 515 663 507 669 l 515 663 l 536 646 q 574 604 560 626 q 590 542 589 582 l 590 542 l 778 707 l 819 707 l 819 682 q 839 629 819 661 l 839 629 l 874 569 q 912 483 894 535 q 929 369 929 432 l 929 369 q 890 238 929 300 q 776 94 851 175 l 776 94 l 660 -32 l 618 -32 q 396 54 614 -6 l 396 54 l 396 96 q 428 174 428 107 l 428 174 l 428 453 q 419 531 428 501 q 381 560 411 560 l 381 560 q 336 539 361 560 l 336 539 l 265 479 l 265 158 q 311 96 265 103 l 311 96 l 311 54 q 249 25 281 49 q 206 -32 217 1 l 206 -32 z m 699 99 l 699 99 q 746 154 717 99 l 746 154 q 775 276 775 208 l 775 276 q 756 419 775 358 q 682 557 736 481 l 682 557 l 590 479 l 590 143 l 668 106 q 699 99 685 99 z "},"햝":{"ha":675,"x_min":42,"x_max":633,"o":"m 633 151 l 483 -32 l 446 -11 l 468 22 q 400 96 439 26 l 400 96 l 319 243 l 181 -17 l 139 -17 q 97 40 129 10 q 42 82 65 69 l 42 82 l 42 124 q 126 214 86 146 l 126 214 l 168 214 q 213 146 189 164 l 213 146 l 290 294 l 178 488 q 131 547 149 538 l 131 547 l 90 511 l 57 538 l 208 715 l 244 694 l 238 671 q 297 606 261 671 l 297 606 l 368 474 l 499 707 l 540 707 q 576 643 550 671 q 625 608 601 615 l 625 608 l 625 567 q 544 475 567 540 l 544 475 l 503 475 q 464 544 485 526 l 464 544 l 399 422 l 528 179 q 564 147 544 147 l 564 147 q 601 176 579 147 l 601 176 l 633 151 z "},"햞":{"ha":663,"x_min":42,"x_max":614,"o":"m 314 -278 l 314 -278 l 281 -254 q 390 -81 350 -160 q 447 76 429 -3 q 464 246 464 154 l 464 246 q 437 399 464 326 q 342 554 410 472 l 342 554 l 265 496 l 265 188 q 306 135 265 135 l 306 135 l 343 167 l 372 136 q 289 56 329 99 q 210 -32 249 14 l 210 -32 l 168 -32 q 57 53 150 17 l 57 53 l 57 94 q 92 120 82 100 q 103 165 103 140 l 103 165 l 103 457 q 92 501 103 482 q 71 533 81 521 l 71 533 l 50 560 q 42 583 42 571 l 42 583 q 175 749 42 615 l 175 749 l 210 726 q 189 676 189 693 l 189 676 q 224 615 189 651 l 224 615 q 251 581 242 596 q 264 556 261 565 l 264 556 l 468 707 l 497 676 q 482 649 482 667 l 482 649 q 508 608 482 639 l 508 608 q 560 531 535 578 q 600 436 586 483 l 600 436 q 614 329 614 393 l 614 329 q 584 138 614 233 q 488 -59 554 43 q 314 -278 422 -161 z "},"햟":{"ha":471,"x_min":49,"x_max":422,"o":"m 224 -278 l 224 -278 q 94 -221 140 -278 q 49 -64 49 -164 l 49 -64 q 181 174 49 71 l 181 174 q 149 201 171 186 q 94 235 128 217 l 94 235 l 94 276 q 210 353 168 313 q 251 447 251 393 l 251 447 q 231 506 251 482 q 176 531 211 531 l 176 531 q 100 492 139 531 l 100 492 l 69 519 l 235 713 l 271 692 q 265 676 265 682 l 265 676 q 308 638 265 660 l 308 638 q 374 586 351 615 q 397 517 397 557 l 397 517 q 358 424 397 478 q 250 319 318 371 l 250 319 q 291 288 274 303 q 319 260 308 274 l 319 260 q 360 278 340 271 q 399 292 381 286 l 399 292 l 411 251 q 347 225 376 240 l 347 225 q 422 0 422 133 l 422 0 q 398 -142 422 -79 q 329 -242 374 -206 q 224 -278 285 -278 z m 204 -225 l 204 -225 q 267 -184 243 -225 q 290 -74 290 -143 l 290 -74 q 210 140 290 43 l 210 140 q 100 -65 100 60 l 100 -65 q 130 -179 100 -133 q 204 -225 160 -225 z "},"ا":{"ha":331,"x_min":100,"x_max":240,"o":"m 240 0 l 128 0 l 100 992 l 213 992 l 240 0 z "},"ٮ":{"ha":1379,"x_min":42,"x_max":1310,"o":"m 542 -29 l 542 -29 q 168 36 294 -29 q 42 253 42 101 l 42 253 q 54 362 42 304 q 81 471 67 419 l 81 471 l 185 444 q 166 367 176 414 q 156 285 156 321 l 156 285 q 192 169 156 213 q 321 105 229 125 q 578 85 413 85 l 578 85 q 1051 120 901 85 q 1200 251 1200 156 l 1200 251 q 1181 374 1200 304 q 1131 522 1161 443 l 1131 522 l 1238 560 q 1287 414 1264 492 q 1310 274 1310 336 l 1310 274 q 1272 134 1310 192 q 1147 40 1235 76 q 912 -12 1060 4 q 542 -29 764 -29 z "},"ب":{"ha":1379,"x_min":42,"x_max":1310,"o":"m 542 -29 l 542 -29 q 168 36 294 -29 q 42 253 42 101 l 42 253 q 54 362 42 304 q 81 471 67 419 l 81 471 l 185 444 q 166 367 176 414 q 156 285 156 321 l 156 285 q 192 169 156 213 q 321 105 229 125 q 578 85 413 85 l 578 85 q 1051 120 901 85 q 1200 251 1200 156 l 1200 251 q 1181 374 1200 304 q 1131 522 1161 443 l 1131 522 l 1238 560 q 1287 414 1264 492 q 1310 274 1310 336 l 1310 274 q 1272 134 1310 192 q 1147 40 1235 76 q 912 -12 1060 4 q 542 -29 764 -29 z m 675 -293 l 675 -293 q 626 -273 646 -293 q 606 -225 606 -253 l 606 -225 q 626 -176 606 -197 q 675 -156 646 -156 l 675 -156 q 723 -176 703 -156 q 743 -225 743 -197 l 743 -225 q 723 -273 743 -253 q 675 -293 703 -293 z "},"ت":{"ha":1379,"x_min":42,"x_max":1310,"o":"m 774 557 l 774 557 q 724 577 744 557 q 704 625 704 597 l 704 625 q 724 674 704 653 q 774 694 744 694 l 774 694 q 822 674 801 694 q 842 625 842 653 l 842 625 q 822 577 842 597 q 774 557 801 557 z m 583 557 l 583 557 q 534 577 554 557 q 514 625 514 597 l 514 625 q 534 674 514 653 q 583 694 554 694 l 583 694 q 631 674 611 694 q 651 625 651 653 l 651 625 q 631 577 651 597 q 583 557 611 557 z m 542 -29 l 542 -29 q 168 36 294 -29 q 42 253 42 101 l 42 253 q 54 362 42 304 q 81 471 67 419 l 81 471 l 185 444 q 166 367 176 414 q 156 285 156 321 l 156 285 q 192 169 156 213 q 321 105 229 125 q 578 85 413 85 l 578 85 q 1051 120 901 85 q 1200 251 1200 156 l 1200 251 q 1181 374 1200 304 q 1131 522 1161 443 l 1131 522 l 1238 560 q 1287 414 1264 492 q 1310 274 1310 336 l 1310 274 q 1272 134 1310 192 q 1147 40 1235 76 q 912 -12 1060 4 q 542 -29 764 -29 z "},"ث":{"ha":1379,"x_min":42,"x_max":1310,"o":"m 679 710 l 679 710 q 630 730 650 710 q 610 778 610 750 l 610 778 q 630 826 610 806 q 679 847 650 847 l 679 847 q 727 826 707 847 q 747 778 747 806 l 747 778 q 727 730 747 750 q 679 710 707 710 z m 585 557 l 585 557 q 535 577 556 557 q 515 625 515 597 l 515 625 q 535 674 515 653 q 585 694 556 694 l 585 694 q 633 674 613 694 q 653 625 653 653 l 653 625 q 633 577 653 597 q 585 557 613 557 z m 774 557 l 774 557 q 724 577 744 557 q 704 625 704 597 l 704 625 q 724 674 704 653 q 774 694 744 694 l 774 694 q 822 674 801 694 q 842 625 842 653 l 842 625 q 822 577 842 597 q 774 557 801 557 z m 542 -29 l 542 -29 q 168 36 294 -29 q 42 253 42 101 l 42 253 q 54 362 42 304 q 81 471 67 419 l 81 471 l 185 444 q 166 367 176 414 q 156 285 156 321 l 156 285 q 192 169 156 213 q 321 105 229 125 q 578 85 413 85 l 578 85 q 1051 120 901 85 q 1200 251 1200 156 l 1200 251 q 1181 374 1200 304 q 1131 522 1161 443 l 1131 522 l 1238 560 q 1287 414 1264 492 q 1310 274 1310 336 l 1310 274 q 1272 134 1310 192 q 1147 40 1235 76 q 912 -12 1060 4 q 542 -29 764 -29 z "},"ج":{"ha":888,"x_min":14,"x_max":832,"o":"m 500 -547 l 500 -547 q 315 -525 403 -547 q 159 -456 226 -503 q 53 -339 92 -410 q 14 -172 14 -268 l 14 -172 q 74 65 14 -44 q 245 259 133 175 q 511 394 357 343 l 511 394 q 369 440 443 417 q 196 463 294 463 l 196 463 q 123 456 154 463 q 64 442 92 449 l 64 442 l 44 544 q 126 569 81 560 q 217 578 171 578 l 217 578 q 331 566 281 578 q 426 537 381 554 q 521 502 471 519 q 633 473 571 485 q 779 461 694 461 l 779 461 l 792 461 l 794 347 q 623 326 714 347 q 444 262 532 304 q 285 158 357 219 q 171 18 214 97 q 128 -158 128 -61 l 128 -158 q 181 -316 128 -256 q 322 -404 233 -376 q 514 -432 410 -432 l 514 -432 q 793 -376 651 -432 l 793 -376 l 832 -471 q 667 -528 751 -510 q 500 -547 582 -547 z m 488 -160 l 488 -160 q 438 -140 458 -160 q 418 -92 418 -119 l 418 -92 q 438 -43 418 -64 q 488 -22 458 -22 l 488 -22 q 535 -43 515 -22 q 556 -92 556 -64 l 556 -92 q 535 -140 556 -119 q 488 -160 515 -160 z "},"ح":{"ha":888,"x_min":14,"x_max":832,"o":"m 500 -547 l 500 -547 q 315 -525 403 -547 q 159 -456 226 -503 q 53 -339 92 -410 q 14 -172 14 -268 l 14 -172 q 74 65 14 -44 q 245 259 133 175 q 511 394 357 343 l 511 394 q 369 440 443 417 q 196 463 294 463 l 196 463 q 123 456 154 463 q 64 442 92 449 l 64 442 l 44 544 q 126 569 81 560 q 217 578 171 578 l 217 578 q 331 566 281 578 q 426 537 381 554 q 521 502 471 519 q 633 473 571 485 q 779 461 694 461 l 779 461 l 792 461 l 794 347 q 623 326 714 347 q 444 262 532 304 q 285 158 357 219 q 171 18 214 97 q 128 -158 128 -61 l 128 -158 q 181 -316 128 -256 q 322 -404 233 -376 q 514 -432 410 -432 l 514 -432 q 793 -376 651 -432 l 793 -376 l 832 -471 q 667 -528 751 -510 q 500 -547 582 -547 z "},"خ":{"ha":888,"x_min":14,"x_max":832,"o":"m 433 721 l 433 721 q 384 741 404 721 q 364 789 364 761 l 364 789 q 384 838 364 817 q 433 858 404 858 l 433 858 q 481 838 461 858 q 501 789 501 817 l 501 789 q 481 741 501 761 q 433 721 461 721 z m 500 -547 l 500 -547 q 315 -525 403 -547 q 159 -456 226 -503 q 53 -339 92 -410 q 14 -172 14 -268 l 14 -172 q 74 65 14 -44 q 245 259 133 175 q 511 394 357 343 l 511 394 q 369 440 443 417 q 196 463 294 463 l 196 463 q 123 456 154 463 q 64 442 92 449 l 64 442 l 44 544 q 126 569 81 560 q 217 578 171 578 l 217 578 q 331 566 281 578 q 426 537 381 554 q 521 502 471 519 q 633 473 571 485 q 779 461 694 461 l 779 461 l 792 461 l 794 347 q 623 326 714 347 q 444 262 532 304 q 285 158 357 219 q 171 18 214 97 q 128 -158 128 -61 l 128 -158 q 181 -316 128 -256 q 322 -404 233 -376 q 514 -432 410 -432 l 514 -432 q 793 -376 651 -432 l 793 -376 l 832 -471 q 667 -528 751 -510 q 500 -547 582 -547 z "},"د":{"ha":663,"x_min":49,"x_max":600,"o":"m 49 63 l 49 63 l 104 158 q 182 124 132 140 q 299 107 232 107 l 299 107 q 444 138 401 107 q 488 225 488 169 l 488 225 q 476 294 488 253 q 425 405 464 335 q 306 589 386 475 l 306 589 l 401 651 q 556 392 513 499 q 600 218 600 285 l 600 218 q 572 110 600 163 q 479 25 544 58 q 299 -8 414 -8 l 299 -8 q 157 10 222 -8 q 49 63 92 29 z "},"ذ":{"ha":663,"x_min":49,"x_max":600,"o":"m 300 778 l 300 778 q 251 798 271 778 q 231 846 231 818 l 231 846 q 251 894 231 874 q 300 915 271 915 l 300 915 q 348 894 328 915 q 368 846 368 874 l 368 846 q 348 798 368 818 q 300 778 328 778 z m 49 63 l 49 63 l 104 158 q 182 124 132 140 q 299 107 232 107 l 299 107 q 444 138 401 107 q 488 225 488 169 l 488 225 q 476 294 488 253 q 425 405 464 335 q 306 589 386 475 l 306 589 l 401 651 q 556 392 513 499 q 600 218 600 285 l 600 218 q 572 110 600 163 q 479 25 544 58 q 299 -8 414 -8 l 299 -8 q 157 10 222 -8 q 49 63 92 29 z "},"ر":{"ha":510,"x_min":-35,"x_max":418,"o":"m 6 -319 l 6 -319 l -35 -214 q 181 -108 106 -169 q 285 21 257 -46 q 314 149 314 88 l 314 149 q 306 224 314 188 q 276 306 297 260 q 218 419 256 351 l 218 419 l 319 471 q 395 300 372 381 q 418 158 418 219 l 418 158 q 390 0 418 71 q 315 -126 361 -71 q 213 -219 268 -181 q 103 -283 158 -258 q 6 -319 49 -308 z "},"ز":{"ha":510,"x_min":-35,"x_max":418,"o":"m 246 631 l 246 631 q 197 651 217 631 q 176 699 176 671 l 176 699 q 197 747 176 726 q 246 768 217 768 l 246 768 q 294 747 274 768 q 314 699 314 726 l 314 699 q 294 651 314 671 q 246 631 274 631 z m 6 -319 l 6 -319 l -35 -214 q 181 -108 106 -169 q 285 21 257 -46 q 314 149 314 88 l 314 149 q 306 224 314 188 q 276 306 297 260 q 218 419 256 351 l 218 419 l 319 471 q 395 300 372 381 q 418 158 418 219 l 418 158 q 390 0 418 71 q 315 -126 361 -71 q 213 -219 268 -181 q 103 -283 158 -258 q 6 -319 49 -308 z "},"س":{"ha":1679,"x_min":42,"x_max":1610,"o":"m 435 -322 l 435 -322 q 241 -284 331 -322 q 97 -174 151 -246 q 42 -1 42 -103 l 42 -1 q 56 110 42 49 q 100 244 69 171 l 100 244 l 200 206 q 167 99 178 147 q 156 8 156 50 l 156 8 q 194 -111 156 -62 q 297 -184 232 -160 q 439 -208 361 -208 l 439 -208 q 637 -172 565 -208 q 738 -78 708 -135 q 768 36 768 -22 l 768 36 q 748 205 768 128 q 704 364 728 282 l 704 364 l 817 394 q 848 280 839 315 q 863 222 857 244 l 863 222 q 898 147 878 171 q 945 115 918 122 q 1007 107 972 107 l 1007 107 q 1056 114 1035 107 q 1097 147 1078 121 q 1130 232 1115 174 q 1157 392 1144 290 l 1157 392 l 1263 372 q 1253 311 1258 347 q 1242 240 1247 275 q 1238 181 1238 204 l 1238 181 q 1247 144 1238 161 q 1283 117 1256 126 q 1364 107 1310 107 l 1364 107 q 1438 113 1407 107 q 1487 145 1469 119 q 1504 226 1504 171 l 1504 226 q 1480 359 1504 279 q 1425 518 1456 439 l 1425 518 l 1538 560 q 1572 458 1556 515 q 1599 346 1588 401 q 1610 249 1610 290 l 1610 249 q 1578 98 1610 154 q 1490 17 1546 42 q 1363 -7 1433 -7 l 1363 -7 q 1242 13 1286 -7 q 1179 76 1199 33 l 1179 76 q 1107 13 1149 32 q 1000 -7 1065 -7 l 1000 -7 q 931 3 960 -7 q 882 31 901 14 l 882 31 q 847 -96 872 -33 q 772 -210 822 -158 q 640 -292 722 -261 q 435 -322 557 -322 z "},"ش":{"ha":1679,"x_min":42,"x_max":1610,"o":"m 1144 757 l 1144 757 q 1095 777 1115 757 q 1075 825 1075 797 l 1075 825 q 1095 874 1075 853 q 1144 894 1115 894 l 1144 894 q 1192 874 1172 894 q 1213 825 1213 853 l 1213 825 q 1192 777 1213 797 q 1144 757 1172 757 z m 1050 604 l 1050 604 q 1001 624 1021 604 q 981 672 981 644 l 981 672 q 1001 721 981 700 q 1050 742 1021 742 l 1050 742 q 1098 721 1078 742 q 1118 672 1118 700 l 1118 672 q 1098 624 1118 644 q 1050 604 1078 604 z m 1239 604 l 1239 604 q 1190 624 1210 604 q 1169 672 1169 644 l 1169 672 q 1190 721 1169 700 q 1239 742 1210 742 l 1239 742 q 1287 721 1267 742 q 1307 672 1307 700 l 1307 672 q 1287 624 1307 644 q 1239 604 1267 604 z m 435 -322 l 435 -322 q 241 -284 331 -322 q 97 -174 151 -246 q 42 -1 42 -103 l 42 -1 q 56 110 42 49 q 100 244 69 171 l 100 244 l 200 206 q 167 99 178 147 q 156 8 156 50 l 156 8 q 194 -111 156 -62 q 297 -184 232 -160 q 439 -208 361 -208 l 439 -208 q 637 -172 565 -208 q 738 -78 708 -135 q 768 36 768 -22 l 768 36 q 748 205 768 128 q 704 364 728 282 l 704 364 l 817 394 q 848 280 839 315 q 863 222 857 244 l 863 222 q 898 147 878 171 q 945 115 918 122 q 1007 107 972 107 l 1007 107 q 1056 114 1035 107 q 1097 147 1078 121 q 1130 232 1115 174 q 1157 392 1144 290 l 1157 392 l 1263 372 q 1253 311 1258 347 q 1242 240 1247 275 q 1238 181 1238 204 l 1238 181 q 1247 144 1238 161 q 1283 117 1256 126 q 1364 107 1310 107 l 1364 107 q 1438 113 1407 107 q 1487 145 1469 119 q 1504 226 1504 171 l 1504 226 q 1480 359 1504 279 q 1425 518 1456 439 l 1425 518 l 1538 560 q 1572 458 1556 515 q 1599 346 1588 401 q 1610 249 1610 290 l 1610 249 q 1578 98 1610 154 q 1490 17 1546 42 q 1363 -7 1433 -7 l 1363 -7 q 1242 13 1286 -7 q 1179 76 1199 33 l 1179 76 q 1107 13 1149 32 q 1000 -7 1065 -7 l 1000 -7 q 931 3 960 -7 q 882 31 901 14 l 882 31 q 847 -96 872 -33 q 772 -210 822 -158 q 640 -292 722 -261 q 435 -322 557 -322 z "},"ص":{"ha":1814,"x_min":42,"x_max":1751,"o":"m 435 -322 l 435 -322 q 241 -284 331 -322 q 97 -174 151 -246 q 42 -1 42 -103 l 42 -1 q 56 110 42 49 q 100 244 69 171 l 100 244 l 200 206 q 167 99 178 147 q 156 8 156 50 l 156 8 q 194 -111 156 -62 q 297 -184 232 -160 q 439 -208 361 -208 l 439 -208 q 637 -168 565 -208 q 738 -64 708 -128 q 768 68 768 0 l 768 68 q 748 209 768 136 q 704 364 728 282 l 704 364 l 817 394 q 847 279 839 315 q 863 222 854 243 l 863 222 q 965 128 889 156 l 965 128 q 1072 265 1011 196 q 1203 392 1132 335 q 1350 485 1274 450 q 1506 519 1426 519 l 1506 519 q 1637 488 1582 519 q 1722 404 1692 457 q 1751 285 1751 351 l 1751 285 q 1703 134 1751 203 q 1542 24 1656 65 q 1232 -18 1428 -18 l 1232 -18 q 1014 3 1099 -18 q 885 54 929 24 l 885 54 q 854 -78 878 -12 q 781 -200 831 -144 q 648 -289 732 -256 q 435 -322 564 -322 z m 1497 406 l 1497 406 q 1373 375 1435 406 q 1255 297 1311 344 q 1152 197 1199 249 q 1075 104 1106 146 l 1075 104 q 1158 98 1113 100 q 1257 96 1203 96 l 1257 96 q 1542 141 1440 96 q 1644 274 1644 186 l 1644 274 q 1629 334 1644 304 q 1582 385 1614 364 q 1497 406 1550 406 z "},"ض":{"ha":1814,"x_min":42,"x_max":1751,"o":"m 1465 663 l 1465 663 q 1416 683 1436 663 q 1396 731 1396 703 l 1396 731 q 1416 779 1396 758 q 1465 800 1436 800 l 1465 800 q 1513 779 1493 800 q 1533 731 1533 758 l 1533 731 q 1513 683 1533 703 q 1465 663 1493 663 z m 435 -322 l 435 -322 q 241 -284 331 -322 q 97 -174 151 -246 q 42 -1 42 -103 l 42 -1 q 56 110 42 49 q 100 244 69 171 l 100 244 l 200 206 q 167 99 178 147 q 156 8 156 50 l 156 8 q 194 -111 156 -62 q 297 -184 232 -160 q 439 -208 361 -208 l 439 -208 q 637 -168 565 -208 q 738 -64 708 -128 q 768 68 768 0 l 768 68 q 748 209 768 136 q 704 364 728 282 l 704 364 l 817 394 q 847 279 839 315 q 863 222 854 243 l 863 222 q 965 128 889 156 l 965 128 q 1072 265 1011 196 q 1203 392 1132 335 q 1350 485 1274 450 q 1506 519 1426 519 l 1506 519 q 1637 488 1582 519 q 1722 404 1692 457 q 1751 285 1751 351 l 1751 285 q 1703 134 1751 203 q 1542 24 1656 65 q 1232 -18 1428 -18 l 1232 -18 q 1014 3 1099 -18 q 885 54 929 24 l 885 54 q 854 -78 878 -12 q 781 -200 831 -144 q 648 -289 732 -256 q 435 -322 564 -322 z m 1497 406 l 1497 406 q 1373 375 1435 406 q 1255 297 1311 344 q 1152 197 1199 249 q 1075 104 1106 146 l 1075 104 q 1158 98 1113 100 q 1257 96 1203 96 l 1257 96 q 1542 141 1440 96 q 1644 274 1644 186 l 1644 274 q 1629 334 1644 304 q 1582 385 1614 364 q 1497 406 1550 406 z "},"ط":{"ha":1094,"x_min":28,"x_max":1032,"o":"m 513 -18 l 513 -18 q 215 -9 339 -18 q 28 8 92 0 l 28 8 l 40 117 q 125 108 78 111 q 229 101 172 104 l 229 101 q 294 194 260 149 l 294 194 l 268 992 l 381 992 l 406 322 q 587 463 489 406 q 786 519 685 519 l 786 519 q 917 488 863 519 q 1002 404 972 457 q 1032 285 1032 351 l 1032 285 q 984 134 1032 203 q 822 24 936 65 q 513 -18 708 -18 z m 778 406 l 778 406 q 651 374 714 406 q 531 293 588 342 q 427 192 474 244 q 351 97 381 139 l 351 97 q 441 97 394 97 q 538 96 488 96 l 538 96 q 823 141 721 96 q 925 274 925 186 l 925 274 q 910 334 925 304 q 863 385 894 364 q 778 406 831 406 z "},"ظ":{"ha":1094,"x_min":28,"x_max":1032,"o":"m 513 -18 l 513 -18 q 215 -9 339 -18 q 28 8 92 0 l 28 8 l 40 117 q 125 108 78 111 q 229 101 172 104 l 229 101 q 294 194 260 149 l 294 194 l 268 992 l 381 992 l 406 322 q 587 463 489 406 q 786 519 685 519 l 786 519 q 917 488 863 519 q 1002 404 972 457 q 1032 285 1032 351 l 1032 285 q 984 134 1032 203 q 822 24 936 65 q 513 -18 708 -18 z m 788 663 l 788 663 q 738 683 758 663 q 718 731 718 703 l 718 731 q 738 779 718 758 q 788 800 758 800 l 788 800 q 835 779 815 800 q 856 731 856 758 l 856 731 q 835 683 856 703 q 788 663 815 663 z m 778 406 l 778 406 q 651 374 714 406 q 531 293 588 342 q 427 192 474 244 q 351 97 381 139 l 351 97 q 441 97 394 97 q 538 96 488 96 l 538 96 q 823 141 721 96 q 925 274 925 186 l 925 274 q 910 334 925 304 q 863 385 894 364 q 778 406 831 406 z "},"ع":{"ha":704,"x_min":14,"x_max":801,"o":"m 476 -547 l 476 -547 q 321 -530 401 -547 q 171 -470 240 -512 q 58 -356 101 -428 q 14 -176 14 -285 l 14 -176 q 65 33 14 -64 q 207 203 117 129 l 207 203 q 94 294 138 232 q 51 431 51 357 l 51 431 q 92 576 51 518 q 198 664 133 635 q 335 693 263 693 l 335 693 q 472 671 401 693 l 472 671 l 449 564 q 335 579 390 579 l 335 579 q 210 540 258 579 q 163 439 163 500 l 163 439 q 190 365 163 397 q 256 310 217 332 q 331 282 294 289 l 331 282 q 568 358 439 336 l 568 358 l 597 250 q 356 169 463 225 q 189 31 250 114 q 128 -160 128 -51 l 128 -160 q 161 -295 128 -242 q 248 -378 194 -349 q 362 -421 301 -408 q 476 -433 422 -433 l 476 -433 q 626 -420 550 -433 q 765 -381 703 -407 l 765 -381 l 801 -478 q 713 -510 768 -494 q 596 -537 658 -526 q 476 -547 533 -547 z "},"غ":{"ha":704,"x_min":14,"x_max":801,"o":"m 336 836 l 336 836 q 287 856 307 836 q 267 904 267 876 l 267 904 q 287 953 267 932 q 336 974 307 974 l 336 974 q 384 953 364 974 q 404 904 404 932 l 404 904 q 384 856 404 876 q 336 836 364 836 z m 476 -547 l 476 -547 q 321 -530 401 -547 q 171 -470 240 -512 q 58 -356 101 -428 q 14 -176 14 -285 l 14 -176 q 65 33 14 -64 q 207 203 117 129 l 207 203 q 94 294 138 232 q 51 431 51 357 l 51 431 q 92 576 51 518 q 198 664 133 635 q 335 693 263 693 l 335 693 q 472 671 401 693 l 472 671 l 449 564 q 335 579 390 579 l 335 579 q 210 540 258 579 q 163 439 163 500 l 163 439 q 190 365 163 397 q 256 310 217 332 q 331 282 294 289 l 331 282 q 568 358 439 336 l 568 358 l 597 250 q 356 169 463 225 q 189 31 250 114 q 128 -160 128 -51 l 128 -160 q 161 -295 128 -242 q 248 -378 194 -349 q 362 -421 301 -408 q 476 -433 422 -433 l 476 -433 q 626 -420 550 -433 q 765 -381 703 -407 l 765 -381 l 801 -478 q 713 -510 768 -494 q 596 -537 658 -526 q 476 -547 533 -547 z "},"ف":{"ha":1365,"x_min":42,"x_max":1303,"o":"m 1054 839 l 1054 839 q 1005 859 1025 839 q 985 907 985 879 l 985 907 q 1005 956 985 935 q 1054 976 1025 976 l 1054 976 q 1102 956 1082 976 q 1122 907 1122 935 l 1122 907 q 1102 859 1122 879 q 1054 839 1082 839 z m 1214 42 l 1214 42 q 1122 1 1188 15 q 963 -20 1056 -14 q 761 -28 869 -26 q 542 -29 653 -29 l 542 -29 q 168 36 294 -29 q 42 253 42 101 l 42 253 q 54 362 42 304 q 81 471 67 419 l 81 471 l 185 444 q 166 367 176 414 q 156 285 156 321 l 156 285 q 192 169 156 213 q 321 105 229 125 q 578 85 413 85 l 578 85 q 751 85 663 85 q 917 88 839 85 q 1051 97 994 90 q 1129 118 1107 104 l 1129 118 q 1169 163 1156 135 q 1189 235 1183 190 l 1189 235 q 1068 217 1133 217 l 1068 217 q 905 260 963 217 q 847 393 847 304 l 847 393 q 864 499 847 446 q 911 597 881 553 q 985 669 942 642 q 1081 696 1028 696 l 1081 696 q 1205 647 1156 696 q 1278 520 1254 599 q 1303 354 1303 442 l 1303 354 q 1283 170 1303 250 q 1214 42 1263 90 z m 957 421 l 957 421 q 985 352 957 378 q 1081 326 1013 326 l 1081 326 q 1194 343 1142 326 l 1194 343 l 1194 363 q 1179 471 1194 421 q 1136 551 1164 521 q 1069 582 1108 582 l 1069 582 q 1012 558 1038 582 q 972 496 986 533 q 957 421 957 458 z "},"ڡ":{"ha":1365,"x_min":42,"x_max":1303,"o":"m 1214 42 l 1214 42 q 1122 1 1188 15 q 963 -20 1056 -14 q 761 -28 869 -26 q 542 -29 653 -29 l 542 -29 q 168 36 294 -29 q 42 253 42 101 l 42 253 q 54 362 42 304 q 81 471 67 419 l 81 471 l 185 444 q 166 367 176 414 q 156 285 156 321 l 156 285 q 192 169 156 213 q 321 105 229 125 q 578 85 413 85 l 578 85 q 751 85 663 85 q 917 88 839 85 q 1051 97 994 90 q 1129 118 1107 104 l 1129 118 q 1169 163 1156 135 q 1189 235 1183 190 l 1189 235 q 1068 217 1133 217 l 1068 217 q 905 260 963 217 q 847 393 847 304 l 847 393 q 864 499 847 446 q 911 597 881 553 q 985 669 942 642 q 1081 696 1028 696 l 1081 696 q 1205 647 1156 696 q 1278 520 1254 599 q 1303 354 1303 442 l 1303 354 q 1283 170 1303 250 q 1214 42 1263 90 z m 957 421 l 957 421 q 985 352 957 378 q 1081 326 1013 326 l 1081 326 q 1194 343 1142 326 l 1194 343 l 1194 363 q 1179 471 1194 421 q 1136 551 1164 521 q 1069 582 1108 582 l 1069 582 q 1012 558 1038 582 q 972 496 986 533 q 957 421 957 458 z "},"ٯ":{"ha":1075,"x_min":42,"x_max":1013,"o":"m 453 -261 l 453 -261 q 249 -227 343 -261 q 99 -121 156 -193 q 42 68 42 -49 l 42 68 q 54 170 42 100 q 121 339 67 240 l 121 339 l 222 292 q 176 179 190 226 q 161 89 161 132 l 161 89 q 205 -49 161 1 q 322 -122 249 -100 q 483 -144 394 -144 l 483 -144 q 747 -87 644 -144 q 876 56 849 -29 l 876 56 q 892 114 885 83 l 892 114 q 836 102 865 106 q 778 99 807 99 l 778 99 q 615 142 672 99 q 557 275 557 186 l 557 275 q 574 381 557 328 q 621 479 590 435 q 694 551 651 524 q 790 578 738 578 l 790 578 q 915 529 865 578 q 988 402 964 481 q 1013 236 1013 324 l 1013 236 q 1001 101 1013 168 q 960 -24 989 33 l 960 -24 q 840 -162 915 -110 q 665 -238 764 -215 q 453 -261 567 -261 z m 667 303 l 667 303 q 694 234 667 260 q 790 208 722 208 l 790 208 q 904 225 850 208 l 904 225 q 904 244 904 235 l 904 244 q 889 353 904 303 q 846 433 874 403 q 779 464 818 464 l 779 464 q 722 440 747 464 q 681 378 696 415 q 667 303 667 340 z "},"ق":{"ha":1075,"x_min":42,"x_max":1013,"o":"m 861 721 l 861 721 q 812 741 832 721 q 792 789 792 761 l 792 789 q 812 838 792 817 q 861 858 832 858 l 861 858 q 909 838 889 858 q 929 789 929 817 l 929 789 q 909 741 929 761 q 861 721 889 721 z m 671 721 l 671 721 q 622 741 642 721 q 601 789 601 761 l 601 789 q 622 838 601 817 q 671 858 642 858 l 671 858 q 719 838 699 858 q 739 789 739 817 l 739 789 q 719 741 739 761 q 671 721 699 721 z m 453 -261 l 453 -261 q 249 -227 343 -261 q 99 -121 156 -193 q 42 68 42 -49 l 42 68 q 54 170 42 100 q 121 339 67 240 l 121 339 l 222 292 q 176 179 190 226 q 161 89 161 132 l 161 89 q 205 -49 161 1 q 322 -122 249 -100 q 483 -144 394 -144 l 483 -144 q 747 -87 644 -144 q 876 56 849 -29 l 876 56 q 892 114 885 83 l 892 114 q 836 102 865 106 q 778 99 807 99 l 778 99 q 615 142 672 99 q 557 275 557 186 l 557 275 q 574 381 557 328 q 621 479 590 435 q 694 551 651 524 q 790 578 738 578 l 790 578 q 915 529 865 578 q 988 402 964 481 q 1013 236 1013 324 l 1013 236 q 1001 101 1013 168 q 960 -24 989 33 l 960 -24 q 840 -162 915 -110 q 665 -238 764 -215 q 453 -261 567 -261 z m 667 303 l 667 303 q 694 234 667 260 q 790 208 722 208 l 790 208 q 904 225 850 208 l 904 225 q 904 244 904 235 l 904 244 q 889 353 904 303 q 846 433 874 403 q 779 464 818 464 l 779 464 q 722 440 747 464 q 681 378 696 415 q 667 303 667 340 z "},"ك":{"ha":1225,"x_min":42,"x_max":1143,"o":"m 542 -29 l 542 -29 q 168 36 294 -29 q 42 253 42 101 l 42 253 q 54 362 42 304 q 81 471 67 419 l 81 471 l 185 444 q 166 367 176 414 q 156 285 156 321 l 156 285 q 192 169 156 213 q 321 105 229 125 q 578 85 413 85 l 578 85 q 804 95 715 85 q 942 128 893 106 q 1010 188 992 151 q 1026 278 1029 225 l 1026 278 l 1000 992 l 1113 992 l 1140 290 q 1122 158 1143 217 q 1039 57 1101 99 q 857 -7 976 15 q 542 -29 738 -29 z m 506 283 l 506 283 l 479 371 q 604 409 567 394 q 642 440 642 424 l 642 440 q 626 469 642 456 q 590 497 610 482 q 553 531 569 511 q 538 578 538 550 l 538 578 q 572 657 538 614 q 710 750 607 700 l 710 750 l 753 671 q 659 619 689 640 q 629 581 629 597 l 629 581 q 645 554 629 568 q 681 524 661 540 q 717 485 701 507 q 733 435 733 464 l 733 435 q 717 384 733 408 q 651 335 700 360 q 506 283 603 310 z "},"ل":{"ha":965,"x_min":42,"x_max":879,"o":"m 42 -1 l 42 -1 q 56 110 42 49 q 100 244 69 171 l 100 244 l 200 206 q 167 99 178 147 q 156 8 156 50 l 156 8 q 233 -151 156 -93 q 435 -208 310 -208 l 435 -208 q 644 -156 571 -208 q 743 4 717 -104 q 763 279 769 113 l 763 279 l 736 992 l 851 992 l 875 250 q 860 30 879 133 q 792 -153 842 -74 q 655 -277 743 -232 q 431 -322 567 -322 l 431 -322 q 288 -303 357 -322 q 163 -244 218 -283 q 74 -145 107 -206 q 42 -1 42 -85 z "}}}
